{"glyphs":{"0":{"ha":833,"x_min":99,"x_max":735,"o":"m 417 -17 q 247 38 318 -17 q 137 195 175 92 q 99 446 99 299 q 184 786 99 669 q 417 903 269 903 q 649 786 564 903 q 735 446 735 669 q 697 195 735 299 q 587 38 658 92 q 417 -17 515 -17 m 417 76 q 526 116 478 76 q 601 238 574 156 q 628 446 628 319 q 601 653 628 572 q 526 772 574 733 q 417 810 478 810 q 307 772 354 810 q 233 653 260 733 q 206 446 206 572 q 233 238 206 319 q 307 116 260 156 q 417 76 354 76 m 417 363 q 356 387 382 363 q 331 456 331 411 q 356 523 331 499 q 417 547 382 547 q 477 523 451 547 q 503 456 503 499 q 477 387 503 411 q 417 363 451 363 z "},"1":{"ha":833,"x_min":135,"x_max":736,"o":"m 135 0 l 135 96 l 390 96 l 390 746 l 192 746 l 192 821 q 285 838 244 828 q 358 859 325 847 q 419 886 392 871 l 506 886 l 506 96 l 736 96 l 736 0 l 135 0 z "},"2":{"ha":833,"x_min":94,"x_max":725,"o":"m 101 0 l 101 68 q 355 301 251 200 q 512 482 458 401 q 565 636 565 563 q 519 760 565 713 q 374 808 472 808 q 258 778 311 808 q 161 703 204 747 l 94 768 q 225 865 156 828 q 388 903 294 903 q 541 870 476 903 q 641 778 606 838 q 676 642 676 719 q 625 473 676 558 q 481 294 574 388 q 269 92 389 200 q 353 97 311 94 q 435 99 394 99 l 725 99 l 725 0 l 101 0 z "},"3":{"ha":833,"x_min":79,"x_max":719,"o":"m 399 -17 q 263 1 322 -17 q 157 47 203 18 q 79 108 111 75 l 138 183 q 243 110 181 142 q 392 79 306 79 q 500 99 453 79 q 575 155 547 118 q 603 240 603 192 q 571 333 603 293 q 468 394 539 372 q 282 417 397 417 l 282 504 q 450 526 386 504 q 543 585 514 549 q 572 669 572 622 q 522 771 572 733 q 392 808 472 808 q 273 783 329 808 q 174 719 217 758 l 113 792 q 240 871 168 839 q 396 903 311 903 q 545 876 479 903 q 650 800 611 850 q 689 678 689 750 q 635 546 689 597 q 500 467 582 494 l 500 461 q 608 419 558 449 q 689 343 658 389 q 719 236 719 297 q 676 101 719 158 q 559 14 632 44 q 399 -17 486 -17 z "},"4":{"ha":833,"x_min":54,"x_max":757,"o":"m 511 0 l 511 610 q 515 688 513 646 q 518 767 517 731 l 511 767 q 466 702 489 735 q 421 638 443 669 l 182 338 l 757 338 l 757 244 l 54 244 l 54 321 l 496 886 l 619 886 l 619 0 l 511 0 z "},"5":{"ha":833,"x_min":78,"x_max":725,"o":"m 397 -17 q 259 1 318 -17 q 156 46 200 18 q 78 104 111 74 l 135 181 q 200 131 164 154 q 281 94 236 108 q 385 79 325 79 q 498 103 447 79 q 578 174 549 128 q 608 281 608 219 q 549 423 608 372 q 392 474 489 474 q 297 460 336 474 q 211 421 258 447 l 150 460 l 179 886 l 681 886 l 681 786 l 281 786 l 257 525 q 333 551 296 542 q 421 561 371 561 q 574 531 506 561 q 684 440 643 501 q 725 283 725 379 q 678 120 725 188 q 557 18 632 53 q 397 -17 482 -17 z "},"6":{"ha":833,"x_min":107,"x_max":742,"o":"m 446 -17 q 312 10 374 -17 q 204 90 250 36 q 133 223 158 143 q 107 410 107 303 q 138 637 107 543 q 220 790 168 731 q 339 876 272 849 q 478 903 406 903 q 619 876 558 903 q 725 808 681 849 l 661 736 q 581 788 626 768 q 485 807 535 807 q 351 769 413 807 q 253 645 290 732 q 215 410 215 558 q 242 226 215 300 q 321 113 269 151 q 446 74 372 74 q 540 98 497 74 q 607 166 582 122 q 632 268 632 210 q 584 407 632 358 q 444 456 536 456 q 331 427 392 456 q 213 331 269 399 l 208 421 q 331 509 264 476 q 465 542 397 542 q 610 511 547 542 q 707 419 672 481 q 742 268 742 358 q 701 119 742 183 q 592 19 660 56 q 446 -17 525 -17 z "},"7":{"ha":833,"x_min":97,"x_max":739,"o":"m 313 0 q 337 229 318 125 q 390 426 356 333 q 478 606 425 518 q 607 786 532 693 l 97 786 l 97 886 l 739 886 l 739 815 q 594 624 651 715 q 503 438 536 532 q 454 237 469 343 q 433 0 439 131 l 313 0 z "},"8":{"ha":833,"x_min":94,"x_max":738,"o":"m 419 -17 q 247 15 319 -17 q 134 101 174 46 q 94 226 94 157 q 122 332 94 288 q 193 408 150 376 q 285 463 236 440 l 285 468 q 190 554 229 503 q 150 675 150 606 q 185 794 150 743 q 283 874 221 846 q 424 903 344 903 q 626 836 554 903 q 699 667 699 769 q 659 549 699 604 q 564 456 619 494 l 564 450 q 652 396 613 425 q 715 325 692 367 q 738 219 738 283 q 700 99 738 153 q 592 15 663 46 q 419 -17 521 -17 m 489 483 q 599 661 599 564 q 578 740 599 704 q 518 796 558 775 q 421 817 478 817 q 301 778 347 817 q 256 675 256 739 q 286 588 256 622 q 369 528 317 553 q 489 483 422 504 m 422 69 q 574 113 519 69 q 628 224 628 156 q 606 301 628 269 q 547 353 585 332 q 458 392 508 375 q 350 429 408 410 q 273 378 307 406 q 219 317 239 351 q 199 238 199 282 q 226 151 199 189 q 304 91 254 113 q 422 69 354 69 z "},"9":{"ha":833,"x_min":93,"x_max":728,"o":"m 357 -17 q 214 10 275 -17 q 110 76 153 36 l 174 149 q 253 98 207 117 q 350 79 299 79 q 483 117 422 79 q 582 241 544 154 q 619 476 619 328 q 592 660 619 586 q 513 773 565 735 q 389 811 461 811 q 294 788 336 811 q 226 720 251 764 q 201 618 201 676 q 250 479 201 528 q 390 431 299 431 q 503 459 442 431 q 621 556 564 488 l 625 465 q 503 376 571 408 q 368 344 436 344 q 224 375 286 344 q 128 467 163 406 q 93 618 93 528 q 134 767 93 703 q 242 867 175 831 q 388 903 308 903 q 522 876 460 903 q 630 797 583 850 q 702 663 676 743 q 728 476 728 583 q 697 249 728 343 q 614 97 667 156 q 495 10 561 38 q 357 -17 429 -17 z "}," ":{"ha":833,"x_min":0,"x_max":0,"o":""},"A":{"ha":833,"x_min":43,"x_max":790,"o":"m 43 0 l 350 911 l 483 911 l 790 0 l 665 0 l 508 508 q 462 660 485 585 q 418 815 439 736 l 413 815 q 368 660 390 736 q 322 508 346 585 l 163 0 l 43 0 m 206 276 l 206 371 l 624 371 l 624 276 l 206 276 z "},"B":{"ha":833,"x_min":138,"x_max":760,"o":"m 138 0 l 138 911 l 396 911 q 559 889 489 911 q 669 818 629 867 q 708 689 708 769 q 669 566 708 621 q 549 490 631 511 l 549 485 q 704 415 649 469 q 760 267 760 361 q 717 118 760 178 q 597 29 674 58 q 417 0 519 0 l 138 0 m 253 528 l 376 528 q 544 565 493 528 q 594 679 594 603 q 541 783 594 753 q 382 814 488 814 l 253 814 l 253 528 m 253 97 l 400 97 q 581 138 517 97 q 646 272 646 179 q 583 394 646 357 q 400 431 519 431 l 253 431 l 253 97 z "},"C":{"ha":833,"x_min":90,"x_max":769,"o":"m 488 -17 q 331 15 403 -17 q 204 108 258 47 q 120 257 150 169 q 90 456 90 344 q 143 708 90 603 q 288 871 196 814 q 499 928 381 928 q 644 894 581 928 q 749 817 708 861 l 682 743 q 601 803 647 781 q 499 825 556 825 q 347 781 411 825 q 247 654 282 736 q 211 458 211 572 q 247 260 211 344 q 347 131 282 176 q 499 86 411 86 q 610 113 561 86 q 703 186 660 139 l 769 115 q 647 18 717 53 q 488 -17 578 -17 z "},"D":{"ha":833,"x_min":121,"x_max":768,"o":"m 121 0 l 121 911 l 346 911 q 577 858 483 911 q 719 705 671 806 q 768 460 768 604 q 719 211 768 314 q 578 54 671 108 q 351 0 486 0 l 121 0 m 238 96 l 338 96 q 510 139 442 96 q 613 263 579 182 q 647 460 647 344 q 613 654 647 575 q 510 774 579 733 q 338 815 442 815 l 238 815 l 238 96 z "},"E":{"ha":833,"x_min":158,"x_max":736,"o":"m 158 0 l 158 911 l 722 911 l 722 813 l 275 813 l 275 528 l 653 528 l 653 429 l 275 429 l 275 99 l 736 99 l 736 0 l 158 0 z "},"F":{"ha":833,"x_min":185,"x_max":744,"o":"m 185 0 l 185 911 l 744 911 l 744 813 l 301 813 l 301 506 l 676 506 l 676 407 l 301 407 l 301 0 l 185 0 z "},"G":{"ha":833,"x_min":74,"x_max":740,"o":"m 468 -17 q 264 40 353 -17 q 124 201 175 96 q 74 456 74 307 q 126 708 74 603 q 269 871 178 814 q 478 928 360 928 q 629 892 568 928 q 729 817 690 857 l 663 743 q 587 801 631 778 q 478 825 543 825 q 328 781 392 825 q 231 654 265 736 q 196 458 196 572 q 228 260 196 344 q 324 131 261 176 q 475 86 386 86 q 565 100 522 86 q 632 139 607 114 l 632 376 l 451 376 l 451 472 l 740 472 l 740 89 q 627 14 697 44 q 468 -17 557 -17 z "},"H":{"ha":833,"x_min":110,"x_max":724,"o":"m 110 0 l 110 911 l 228 911 l 228 531 l 606 531 l 606 911 l 724 911 l 724 0 l 606 0 l 606 428 l 228 428 l 228 0 l 110 0 z "},"I":{"ha":833,"x_min":132,"x_max":701,"o":"m 132 0 l 132 99 l 358 99 l 358 813 l 132 813 l 132 911 l 701 911 l 701 813 l 475 813 l 475 99 l 701 99 l 701 0 l 132 0 z "},"J":{"ha":833,"x_min":111,"x_max":686,"o":"m 383 -17 q 233 20 307 -17 q 111 135 158 57 l 185 206 q 276 115 225 144 q 381 86 328 86 q 523 138 478 86 q 568 301 568 189 l 568 814 l 188 814 l 188 913 l 686 913 l 686 292 q 658 137 686 207 q 563 25 629 67 q 383 -17 497 -17 z "},"K":{"ha":833,"x_min":135,"x_max":806,"o":"m 135 0 l 135 911 l 253 911 l 253 456 l 257 456 l 639 911 l 772 911 l 253 290 l 253 0 l 135 0 m 674 0 l 393 508 l 464 600 l 806 0 l 674 0 z "},"L":{"ha":833,"x_min":186,"x_max":751,"o":"m 186 0 l 186 911 l 301 911 l 301 99 l 751 99 l 751 0 l 186 0 z "},"M":{"ha":833,"x_min":100,"x_max":733,"o":"m 100 0 l 100 911 l 242 911 l 369 522 l 414 375 l 419 375 l 463 522 l 592 911 l 733 911 l 733 0 l 622 0 l 622 456 q 624 532 622 489 q 630 621 626 575 q 636 708 633 667 q 642 778 639 749 l 638 778 l 586 600 l 456 242 l 372 242 l 244 600 l 192 778 l 189 778 q 195 708 192 749 q 201 621 199 667 q 206 532 204 575 q 208 456 208 489 l 208 0 l 100 0 z "},"N":{"ha":833,"x_min":114,"x_max":719,"o":"m 114 0 l 114 911 l 242 911 l 533 339 l 621 150 l 624 150 q 615 292 621 218 q 608 439 608 367 l 608 911 l 719 911 l 719 0 l 592 0 l 300 572 l 213 761 l 210 761 q 219 619 213 692 q 225 476 225 547 l 225 0 l 114 0 z "},"O":{"ha":833,"x_min":67,"x_max":767,"o":"m 417 -17 q 235 40 314 -17 q 111 203 156 97 q 67 460 67 310 q 111 712 67 607 q 235 872 156 817 q 417 928 314 928 q 599 872 519 928 q 722 712 678 817 q 767 460 767 607 q 722 203 767 310 q 599 40 678 97 q 417 -17 519 -17 m 417 86 q 538 131 486 86 q 617 259 589 175 q 646 460 646 343 q 617 656 646 575 q 538 781 589 738 q 417 825 486 825 q 296 781 347 825 q 216 656 244 738 q 188 460 188 575 q 216 259 188 343 q 296 131 244 175 q 417 86 347 86 z "},"P":{"ha":833,"x_min":142,"x_max":754,"o":"m 142 0 l 142 911 l 417 911 q 593 886 517 911 q 712 802 669 861 q 754 643 754 743 q 712 485 754 547 q 593 392 669 422 q 417 361 517 361 l 258 361 l 258 0 l 142 0 m 258 456 l 403 456 q 580 501 522 456 q 638 643 638 546 q 579 779 638 742 q 403 817 521 817 l 258 817 l 258 456 z "},"Q":{"ha":833,"x_min":67,"x_max":771,"o":"m 417 -17 q 235 40 314 -17 q 111 203 156 97 q 67 460 67 310 q 111 712 67 607 q 235 872 156 817 q 417 928 314 928 q 599 872 519 928 q 722 712 678 817 q 767 460 767 607 q 722 203 767 310 q 599 40 678 97 q 417 -17 519 -17 m 417 81 q 538 125 486 81 q 617 254 589 169 q 646 460 646 339 q 617 656 646 575 q 538 781 589 738 q 417 825 486 825 q 296 781 347 825 q 216 656 244 738 q 188 460 188 575 q 216 254 188 339 q 296 125 244 169 q 417 81 347 81 m 668 -226 q 467 -162 544 -226 q 356 -1 389 -97 l 478 8 q 520 -67 492 -36 q 590 -112 549 -97 q 682 -126 631 -126 q 719 -123 703 -126 q 750 -114 736 -119 l 771 -207 q 724 -221 749 -215 q 668 -226 699 -226 z "},"R":{"ha":833,"x_min":138,"x_max":768,"o":"m 138 0 l 138 911 l 422 911 q 586 887 514 911 q 700 806 658 863 q 742 654 742 750 q 700 503 742 564 q 586 414 658 443 q 422 385 514 385 l 256 385 l 256 0 l 138 0 m 256 479 l 406 479 q 568 523 511 479 q 625 654 625 567 q 568 781 625 744 q 406 817 511 817 l 256 817 l 256 479 m 399 417 l 490 478 l 768 0 l 636 0 l 399 417 z "},"S":{"ha":833,"x_min":93,"x_max":746,"o":"m 424 -17 q 239 20 324 -17 q 93 118 154 57 l 163 199 q 283 117 214 147 q 429 86 353 86 q 574 126 522 86 q 626 229 626 167 q 605 307 626 278 q 547 355 583 336 q 464 393 510 374 l 332 451 q 241 499 286 469 q 166 574 196 528 q 136 686 136 619 q 174 810 136 756 q 280 897 213 865 q 435 928 347 928 q 592 897 519 928 q 715 815 665 865 l 654 740 q 556 803 610 781 q 431 825 501 825 q 303 790 351 825 q 254 693 254 754 q 278 622 254 650 q 340 576 303 594 q 417 543 378 558 l 544 486 q 646 433 600 464 q 719 357 692 403 q 746 243 746 311 q 707 112 746 171 q 596 18 668 53 q 424 -17 524 -17 z "},"T":{"ha":833,"x_min":57,"x_max":776,"o":"m 358 0 l 358 813 l 57 813 l 57 911 l 776 911 l 776 813 l 475 813 l 475 0 l 358 0 z "},"U":{"ha":833,"x_min":110,"x_max":724,"o":"m 418 -17 q 294 3 351 -17 q 197 66 238 24 q 133 178 156 108 q 110 344 110 247 l 110 911 l 228 911 l 228 342 q 253 192 228 247 q 321 111 278 136 q 418 86 364 86 q 516 111 472 86 q 585 192 560 136 q 611 342 611 247 l 611 911 l 724 911 l 724 344 q 701 178 724 247 q 638 66 679 108 q 540 3 596 24 q 418 -17 485 -17 z "},"V":{"ha":833,"x_min":58,"x_max":775,"o":"m 350 0 l 58 911 l 183 911 l 329 419 q 372 269 353 339 q 417 119 392 199 l 422 119 q 467 269 447 199 q 510 419 486 339 l 656 911 l 775 911 l 486 0 l 350 0 z "},"W":{"ha":833,"x_min":14,"x_max":819,"o":"m 153 0 l 14 913 l 144 913 l 211 340 q 219 272 215 303 q 225 208 222 240 q 229 129 228 175 l 233 129 q 249 208 242 175 q 263 271 256 240 q 278 339 269 301 l 367 678 l 478 678 l 564 339 q 581 271 574 301 q 594 208 588 240 q 608 129 600 175 l 614 129 q 619 208 617 175 q 624 271 621 240 q 631 339 626 301 l 694 913 l 819 913 l 686 0 l 542 0 l 453 367 q 433 449 442 408 q 419 531 425 489 l 415 531 q 401 449 408 489 q 383 367 394 408 l 294 0 l 153 0 z "},"X":{"ha":833,"x_min":74,"x_max":760,"o":"m 74 0 l 346 471 l 92 911 l 221 911 l 349 679 q 383 617 367 647 q 422 546 400 586 l 428 546 q 462 617 447 586 q 493 679 476 647 l 618 911 l 742 911 l 488 465 l 760 0 l 629 0 l 493 244 q 456 315 475 279 q 413 392 436 350 l 407 392 q 369 315 388 350 q 333 244 351 279 l 197 0 l 74 0 z "},"Y":{"ha":833,"x_min":53,"x_max":781,"o":"m 358 0 l 358 325 l 53 911 l 176 911 l 313 642 q 364 536 339 589 q 417 429 389 483 l 422 429 q 476 536 450 483 q 529 642 503 589 l 661 911 l 781 911 l 475 325 l 475 0 l 358 0 z "},"Z":{"ha":833,"x_min":90,"x_max":749,"o":"m 90 0 l 90 71 l 597 814 l 135 814 l 135 913 l 742 913 l 742 842 l 233 99 l 749 99 l 749 0 l 90 0 z "},"a":{"ha":833,"x_min":111,"x_max":717,"o":"m 342 -17 q 226 6 278 -17 q 142 72 174 29 q 111 175 111 114 q 226 348 111 289 q 601 428 340 407 q 582 512 600 474 q 526 574 564 550 q 422 597 488 597 q 336 585 378 597 q 256 555 294 574 q 186 517 217 536 l 140 594 q 223 639 175 617 q 327 676 271 661 q 442 692 383 692 q 594 657 533 692 q 686 560 656 622 q 717 414 717 497 l 717 0 l 621 0 l 611 92 l 607 92 q 482 15 551 47 q 342 -17 413 -17 m 372 76 q 486 102 429 76 q 601 176 543 128 l 601 351 q 375 317 457 340 q 259 261 293 294 q 225 183 225 228 q 246 122 225 144 q 300 88 267 99 q 372 76 333 76 z "},"b":{"ha":833,"x_min":129,"x_max":750,"o":"m 446 -17 q 340 8 396 -17 q 236 75 283 32 l 232 75 l 221 0 l 129 0 l 129 989 l 244 989 l 244 719 l 239 589 l 243 589 q 349 664 289 636 q 469 692 410 692 q 624 649 561 692 q 718 530 686 607 q 750 349 750 453 q 707 151 750 233 q 594 26 664 69 q 446 -17 525 -17 m 426 81 q 531 113 485 81 q 605 204 578 144 q 632 347 632 264 q 613 478 632 422 q 551 564 593 533 q 442 594 508 594 q 347 571 397 594 q 244 494 296 547 l 244 158 q 341 98 292 115 q 426 81 390 81 z "},"c":{"ha":833,"x_min":111,"x_max":749,"o":"m 481 -17 q 292 25 375 -17 q 160 146 208 67 q 111 336 111 225 q 163 529 111 450 q 300 650 214 608 q 488 692 386 692 q 631 663 569 692 q 733 593 692 633 l 676 519 q 590 576 635 556 q 492 596 544 596 q 355 563 414 596 q 263 472 296 531 q 229 336 229 414 q 262 201 229 258 q 353 111 294 143 q 489 79 411 79 q 603 103 551 79 q 697 164 656 128 l 749 89 q 624 11 692 39 q 481 -17 556 -17 z "},"d":{"ha":833,"x_min":83,"x_max":704,"o":"m 375 -17 q 164 75 244 -17 q 83 336 83 167 q 126 526 83 446 q 239 649 169 606 q 389 692 308 692 q 499 669 450 692 q 592 606 547 646 l 594 606 l 589 729 l 589 989 l 704 989 l 704 0 l 610 0 l 600 89 l 596 89 q 497 15 554 46 q 375 -17 439 -17 m 400 81 q 497 106 450 81 q 589 181 544 131 l 589 517 q 499 577 543 560 q 413 594 456 594 q 306 563 354 594 q 230 472 258 531 q 201 338 201 414 q 254 149 201 217 q 400 81 307 81 z "},"e":{"ha":833,"x_min":94,"x_max":747,"o":"m 458 -17 q 274 25 357 -17 q 143 147 192 67 q 94 339 94 226 q 143 528 94 449 q 270 649 192 607 q 439 692 349 692 q 605 652 536 692 q 710 541 674 613 q 747 375 747 469 q 746 338 747 356 q 742 306 744 319 l 171 306 l 171 394 l 674 394 l 644 363 q 590 542 644 482 q 442 601 535 601 q 326 571 379 601 q 240 481 272 540 q 208 339 208 422 q 243 192 208 251 q 338 104 278 133 q 472 75 397 75 q 583 92 533 75 q 678 139 632 110 l 719 64 q 604 7 669 31 q 458 -17 539 -17 z "},"f":{"ha":833,"x_min":143,"x_max":803,"o":"m 336 0 l 336 732 q 365 876 336 814 q 455 972 394 938 q 608 1006 515 1006 q 707 996 658 1006 q 803 967 756 986 l 776 881 q 699 906 735 899 q 619 913 664 913 q 490 865 529 913 q 450 736 450 817 l 450 0 l 336 0 m 143 582 l 143 668 l 339 675 l 732 675 l 732 582 l 143 582 z "},"g":{"ha":833,"x_min":100,"x_max":786,"o":"m 411 -311 q 243 -289 313 -311 q 137 -225 174 -267 q 100 -124 100 -183 q 128 -44 100 -83 q 211 26 157 -6 l 211 32 q 163 74 183 47 q 142 143 142 100 q 163 209 142 175 q 222 269 183 243 l 222 275 q 163 345 188 301 q 139 450 139 389 q 176 578 139 524 q 273 662 213 632 q 404 692 333 692 q 504 675 461 692 l 783 675 l 783 582 l 608 582 q 648 522 631 558 q 665 446 665 486 q 631 322 665 374 q 537 242 596 269 q 404 214 478 214 q 348 220 378 214 q 290 239 318 226 q 251 204 265 224 q 238 161 238 185 q 274 103 238 122 q 378 83 311 83 l 529 83 q 723 47 660 83 q 786 -75 786 11 q 740 -192 786 -139 q 610 -278 694 -246 q 411 -311 525 -311 m 404 290 q 483 310 447 290 q 539 365 518 329 q 560 450 560 401 q 539 533 560 497 q 483 588 518 568 q 404 608 447 608 q 326 588 361 608 q 270 533 292 568 q 249 450 249 497 q 270 365 249 401 q 326 310 292 329 q 404 290 361 290 m 419 -228 q 555 -208 497 -228 q 643 -158 613 -189 q 674 -93 674 -128 q 635 -28 674 -44 q 519 -11 597 -11 l 388 -11 q 333 -8 358 -11 q 285 0 307 -6 q 217 -55 236 -26 q 199 -112 199 -83 q 255 -197 199 -165 q 419 -228 311 -228 z "},"h":{"ha":833,"x_min":129,"x_max":726,"o":"m 129 0 l 129 989 l 244 989 l 244 719 l 238 560 l 242 560 q 354 654 293 617 q 493 692 415 692 q 669 622 613 692 q 726 419 726 553 l 726 0 l 611 0 l 611 404 q 575 546 611 500 q 457 592 539 592 q 350 561 397 592 q 244 471 303 531 l 244 0 l 129 0 z "},"i":{"ha":833,"x_min":125,"x_max":575,"o":"m 438 0 l 438 582 l 125 582 l 125 675 l 553 675 l 553 0 l 438 0 m 483 817 q 418 841 444 817 q 392 906 392 865 q 418 969 392 944 q 483 994 444 994 q 549 969 522 994 q 575 906 575 944 q 549 841 575 865 q 483 817 522 817 z "},"j":{"ha":833,"x_min":76,"x_max":575,"o":"m 269 -301 q 167 -288 217 -301 q 76 -256 117 -275 l 114 -169 q 190 -197 150 -187 q 268 -207 229 -207 q 372 -185 335 -207 q 423 -123 408 -164 q 438 -25 438 -82 l 438 582 l 125 582 l 125 675 l 553 675 l 553 -17 q 539 -131 553 -79 q 493 -222 525 -183 q 406 -281 461 -260 q 269 -301 351 -301 m 483 817 q 418 841 444 817 q 392 906 392 865 q 418 969 392 944 q 483 994 444 994 q 549 969 522 994 q 575 906 575 944 q 549 841 575 865 q 483 817 522 817 z "},"k":{"ha":833,"x_min":146,"x_max":797,"o":"m 146 0 l 146 989 l 261 989 l 261 321 l 267 321 l 629 675 l 761 675 l 261 183 l 261 0 l 146 0 m 669 0 l 406 358 l 475 433 l 797 0 l 669 0 z "},"l":{"ha":833,"x_min":103,"x_max":746,"o":"m 565 -17 q 399 45 457 -17 q 342 226 342 107 l 342 896 l 103 896 l 103 989 l 457 989 l 457 218 q 494 112 457 144 q 590 79 531 79 q 651 87 619 79 q 717 110 682 94 l 746 24 q 660 -6 699 4 q 565 -17 621 -17 z "},"m":{"ha":833,"x_min":81,"x_max":775,"o":"m 81 0 l 81 675 l 172 675 l 182 586 l 185 586 q 246 663 211 633 q 339 692 281 692 q 421 663 389 692 q 467 575 453 633 q 531 660 496 629 q 625 692 567 692 q 735 638 696 692 q 775 483 775 585 l 775 0 l 661 0 l 661 475 q 589 593 661 593 q 531 567 553 593 q 481 489 508 542 l 481 0 l 375 0 l 375 475 q 359 563 375 533 q 306 593 343 593 q 244 567 269 593 q 194 489 219 542 l 194 0 l 81 0 z "},"n":{"ha":833,"x_min":129,"x_max":726,"o":"m 129 0 l 129 675 l 224 675 l 233 561 l 239 561 q 353 654 292 617 q 493 692 414 692 q 669 622 613 692 q 726 419 726 553 l 726 0 l 611 0 l 611 404 q 575 546 611 500 q 457 592 539 592 q 350 561 397 592 q 244 471 303 531 l 244 0 l 129 0 z "},"o":{"ha":833,"x_min":83,"x_max":750,"o":"m 417 -17 q 252 25 328 -17 q 130 146 176 67 q 83 336 83 225 q 130 529 83 450 q 252 650 176 608 q 417 692 328 692 q 581 650 506 692 q 703 529 657 608 q 750 336 750 450 q 703 146 750 225 q 581 25 657 67 q 417 -17 506 -17 m 417 79 q 529 111 481 79 q 605 201 578 143 q 632 336 632 258 q 605 472 632 414 q 529 563 578 531 q 417 596 481 596 q 304 563 353 596 q 228 472 256 531 q 201 336 201 414 q 228 201 201 258 q 304 111 256 143 q 417 79 353 79 z "},"p":{"ha":833,"x_min":129,"x_max":750,"o":"m 129 -285 l 129 675 l 224 675 l 233 589 l 238 589 q 347 663 285 633 q 471 692 410 692 q 624 649 561 692 q 718 530 686 607 q 750 347 750 453 q 707 151 750 233 q 594 26 664 69 q 443 -17 525 -17 q 342 6 396 -17 q 242 71 288 29 l 239 71 l 244 -57 l 244 -285 l 129 -285 m 424 81 q 531 113 483 81 q 605 204 578 144 q 632 347 632 264 q 613 478 632 422 q 551 564 593 533 q 442 594 508 594 q 347 571 397 594 q 244 494 296 547 l 244 158 q 340 98 292 115 q 424 81 389 81 z "},"q":{"ha":833,"x_min":83,"x_max":704,"o":"m 589 -285 l 589 -39 l 594 86 l 592 86 q 494 13 550 43 q 375 -17 438 -17 q 164 75 244 -17 q 83 336 83 167 q 126 526 83 446 q 239 649 169 606 q 389 692 308 692 q 500 668 450 692 q 597 600 550 644 l 601 600 l 613 675 l 704 675 l 704 -285 l 589 -285 m 400 81 q 497 106 450 81 q 589 181 544 131 l 589 517 q 499 577 543 560 q 413 594 456 594 q 306 563 354 594 q 230 472 258 531 q 201 338 201 414 q 254 149 201 217 q 400 81 307 81 z "},"r":{"ha":833,"x_min":201,"x_max":746,"o":"m 201 0 l 201 675 l 297 675 l 308 515 l 311 515 q 442 644 364 597 q 613 692 519 692 q 682 685 650 692 q 746 664 714 679 l 719 565 q 658 582 683 576 q 594 588 633 588 q 448 544 518 588 q 317 394 378 500 l 317 0 l 201 0 z "},"s":{"ha":833,"x_min":99,"x_max":731,"o":"m 431 -17 q 246 15 332 -17 q 99 89 160 46 l 151 165 q 281 99 210 124 q 444 74 351 74 q 572 104 531 74 q 614 178 614 135 q 606 214 614 197 q 578 246 599 231 q 515 275 557 261 q 404 303 472 289 q 206 377 272 331 q 140 500 140 424 q 211 636 140 581 q 421 692 282 692 q 570 666 497 692 q 693 606 643 640 l 638 532 q 533 583 590 564 q 411 603 475 603 q 320 589 354 603 q 271 553 286 575 q 256 506 256 531 q 302 438 256 461 q 453 393 349 415 q 624 341 564 369 q 708 274 685 313 q 731 185 731 236 q 696 85 731 131 q 594 11 661 39 q 431 -17 528 -17 z "},"t":{"ha":833,"x_min":94,"x_max":758,"o":"m 547 -17 q 392 18 449 -17 q 310 116 335 53 q 286 263 286 179 l 286 582 l 94 582 l 94 668 l 290 675 l 306 892 l 401 892 l 401 675 l 732 675 l 732 582 l 401 582 l 401 261 q 417 160 401 200 q 469 99 432 119 q 572 78 507 78 q 658 86 619 78 q 733 108 697 94 l 758 24 q 662 -5 713 7 q 547 -17 611 -17 z "},"u":{"ha":833,"x_min":107,"x_max":703,"o":"m 340 -17 q 164 53 221 -17 q 107 256 107 122 l 107 675 l 222 675 l 222 271 q 258 130 222 176 q 378 83 294 83 q 483 113 436 83 q 588 207 531 142 l 588 675 l 703 675 l 703 0 l 607 0 l 597 118 l 592 118 q 479 21 540 58 q 340 -17 418 -17 z "},"v":{"ha":833,"x_min":69,"x_max":764,"o":"m 354 0 l 69 675 l 188 675 l 343 293 q 381 192 363 242 q 418 93 400 142 l 424 93 q 459 192 442 142 q 497 293 476 242 l 653 675 l 764 675 l 483 0 l 354 0 z "},"w":{"ha":833,"x_min":11,"x_max":822,"o":"m 158 0 l 11 675 l 125 675 l 206 283 q 223 190 215 236 q 236 97 231 144 l 242 97 q 258 190 247 144 q 281 283 269 236 l 364 633 l 478 633 l 558 283 q 582 190 569 236 q 600 97 594 144 l 606 97 q 620 190 614 144 q 636 283 626 236 l 717 675 l 822 675 l 678 0 l 531 0 l 453 322 q 436 408 444 358 q 419 522 428 458 l 414 522 q 397 408 406 458 q 381 322 389 358 l 306 0 l 158 0 z "},"x":{"ha":833,"x_min":89,"x_max":744,"o":"m 89 0 l 344 350 l 108 675 l 235 675 l 342 528 q 380 471 360 500 q 421 414 400 442 l 426 414 q 465 472 444 442 q 503 529 485 501 l 603 675 l 725 675 l 486 340 l 744 0 l 617 0 l 500 156 q 456 216 478 183 q 411 278 433 249 l 406 278 q 364 217 385 247 q 322 154 343 186 l 211 0 l 89 0 z "},"y":{"ha":833,"x_min":68,"x_max":767,"o":"m 182 -290 q 135 -287 158 -290 q 93 -276 111 -283 l 117 -185 q 147 -192 131 -189 q 178 -194 163 -194 q 293 -154 249 -194 q 363 -51 338 -114 l 382 -1 l 68 675 l 185 675 l 349 303 q 390 207 368 258 q 432 107 411 156 l 438 107 q 474 206 456 156 q 510 303 493 257 l 656 675 l 767 675 l 468 -56 q 406 -175 443 -122 q 313 -259 368 -228 q 182 -290 258 -290 z "},"z":{"ha":833,"x_min":99,"x_max":738,"o":"m 99 0 l 99 61 l 560 582 l 150 582 l 150 675 l 725 675 l 725 614 l 264 94 l 738 94 l 738 0 l 99 0 z "},"À":{"ha":833,"x_min":43,"x_max":790,"o":"m 43 0 l 350 911 l 483 911 l 790 0 l 665 0 l 508 508 q 462 660 485 585 q 418 815 439 736 l 413 815 q 368 660 390 736 q 322 508 346 585 l 163 0 l 43 0 m 206 276 l 206 371 l 624 371 l 624 276 l 206 276 m 457 968 l 246 1128 l 311 1206 l 508 1026 l 457 968 z "},"Á":{"ha":833,"x_min":43,"x_max":790,"o":"m 43 0 l 350 911 l 483 911 l 790 0 l 665 0 l 508 508 q 462 660 485 585 q 418 815 439 736 l 413 815 q 368 660 390 736 q 322 508 346 585 l 163 0 l 43 0 m 206 276 l 206 371 l 624 371 l 624 276 l 206 276 m 376 968 l 325 1026 l 522 1206 l 588 1128 l 376 968 z "},"Â":{"ha":833,"x_min":43,"x_max":790,"o":"m 43 0 l 350 911 l 483 911 l 790 0 l 665 0 l 508 508 q 462 660 485 585 q 418 815 439 736 l 413 815 q 368 660 390 736 q 322 508 346 585 l 163 0 l 43 0 m 206 276 l 206 371 l 624 371 l 624 276 l 206 276 m 261 971 l 211 1007 l 356 1164 l 478 1164 l 622 1007 l 572 971 l 419 1099 l 414 1099 l 261 971 z "},"Ã":{"ha":833,"x_min":43,"x_max":790,"o":"m 43 0 l 350 911 l 483 911 l 790 0 l 665 0 l 508 508 q 462 660 485 585 q 418 815 439 736 l 413 815 q 368 660 390 736 q 322 508 346 585 l 163 0 l 43 0 m 206 276 l 206 371 l 624 371 l 624 276 l 206 276 m 521 985 q 453 999 482 985 q 403 1033 425 1014 q 361 1067 382 1053 q 315 1082 340 1082 q 271 1059 289 1082 q 249 992 253 1036 l 171 997 q 212 1123 174 1078 q 313 1168 250 1168 q 380 1153 351 1168 q 430 1119 408 1139 q 472 1084 451 1099 q 518 1069 493 1069 q 562 1093 544 1069 q 585 1161 579 1117 l 663 1156 q 622 1030 660 1075 q 521 985 583 985 z "},"Ä":{"ha":833,"x_min":43,"x_max":790,"o":"m 43 0 l 350 911 l 483 911 l 790 0 l 665 0 l 508 508 q 462 660 485 585 q 418 815 439 736 l 413 815 q 368 660 390 736 q 322 508 346 585 l 163 0 l 43 0 m 206 276 l 206 371 l 624 371 l 624 276 l 206 276 m 289 993 q 239 1013 258 993 q 219 1064 219 1033 q 239 1115 219 1094 q 289 1135 258 1135 q 340 1115 319 1135 q 360 1064 360 1094 q 340 1013 360 1033 q 289 993 319 993 m 544 993 q 494 1013 514 993 q 474 1064 474 1033 q 494 1115 474 1094 q 544 1135 514 1135 q 594 1115 575 1135 q 614 1064 614 1094 q 594 1013 614 1033 q 544 993 575 993 z "},"Ā":{"ha":833,"x_min":43,"x_max":790,"o":"m 43 0 l 350 911 l 483 911 l 790 0 l 665 0 l 508 508 q 462 660 485 585 q 418 815 439 736 l 413 815 q 368 660 390 736 q 322 508 346 585 l 163 0 l 43 0 m 206 276 l 206 371 l 624 371 l 624 276 l 206 276 m 231 1021 l 231 1101 l 603 1101 l 603 1021 l 231 1021 z "},"Ă":{"ha":833,"x_min":43,"x_max":790,"o":"m 43 0 l 350 911 l 483 911 l 790 0 l 665 0 l 508 508 q 462 660 485 585 q 418 815 439 736 l 413 815 q 368 660 390 736 q 322 508 346 585 l 163 0 l 43 0 m 206 276 l 206 371 l 624 371 l 624 276 l 206 276 m 417 979 q 310 1003 353 979 q 243 1069 267 1028 q 214 1158 219 1110 l 283 1169 q 324 1087 292 1121 q 417 1053 357 1053 q 509 1087 476 1053 q 550 1169 542 1121 l 619 1158 q 590 1069 614 1110 q 524 1003 567 1028 q 417 979 481 979 z "},"Å":{"ha":833,"x_min":43,"x_max":790,"o":"m 43 0 l 350 911 l 483 911 l 790 0 l 665 0 l 508 508 q 462 660 485 585 q 418 815 439 736 l 413 815 q 368 660 390 736 q 322 508 346 585 l 163 0 l 43 0 m 206 276 l 206 371 l 624 371 l 624 276 l 206 276 m 417 971 q 320 1005 358 971 q 282 1096 282 1039 q 320 1188 282 1153 q 417 1222 358 1222 q 513 1188 474 1222 q 551 1096 551 1153 q 513 1005 551 1039 q 417 971 474 971 m 417 1021 q 466 1041 444 1021 q 488 1096 488 1061 q 466 1151 488 1131 q 417 1171 444 1171 q 365 1151 386 1171 q 344 1096 344 1131 q 365 1041 344 1061 q 417 1021 386 1021 z "},"Ǻ":{"ha":833,"x_min":43,"x_max":790,"o":"m 365 1167 l 324 1190 l 517 1344 l 568 1275 l 365 1167 m 43 0 l 350 911 l 483 911 l 790 0 l 665 0 l 508 508 q 462 660 485 585 q 418 815 439 736 l 413 815 q 368 660 390 736 q 322 508 346 585 l 163 0 l 43 0 m 206 276 l 206 371 l 624 371 l 624 276 l 206 276 m 417 971 q 320 1005 358 971 q 282 1096 282 1039 q 320 1188 282 1153 q 417 1222 358 1222 q 513 1188 474 1222 q 551 1096 551 1153 q 513 1005 551 1039 q 417 971 474 971 m 417 1021 q 466 1041 444 1021 q 488 1096 488 1061 q 466 1151 488 1131 q 417 1171 444 1171 q 365 1151 386 1171 q 344 1096 344 1131 q 365 1041 344 1061 q 417 1021 386 1021 z "},"Ǎ":{"ha":833,"x_min":43,"x_max":790,"o":"m 43 0 l 350 911 l 483 911 l 790 0 l 665 0 l 508 508 q 462 660 485 585 q 418 815 439 736 l 413 815 q 368 660 390 736 q 322 508 346 585 l 163 0 l 43 0 m 206 276 l 206 371 l 624 371 l 624 276 l 206 276 m 356 981 l 211 1138 l 261 1174 l 414 1046 l 419 1046 l 572 1174 l 622 1138 l 478 981 l 356 981 z "},"Ą":{"ha":833,"x_min":43,"x_max":843,"o":"m 715 -312 q 614 -281 656 -312 q 572 -186 572 -250 q 591 -108 572 -143 q 638 -45 610 -72 q 693 0 665 -18 l 665 0 l 508 508 q 462 660 485 585 q 418 815 439 736 l 413 815 q 368 660 390 736 q 322 508 346 585 l 163 0 l 43 0 l 350 911 l 483 911 l 790 0 q 699 -67 736 -24 q 663 -160 663 -110 q 685 -214 663 -196 q 738 -232 708 -232 q 778 -223 761 -232 q 807 -201 794 -214 l 843 -262 q 788 -298 819 -283 q 715 -312 756 -312 m 206 276 l 206 371 l 625 371 l 625 276 l 206 276 z "},"Ạ":{"ha":833,"x_min":43,"x_max":790,"o":"m 43 0 l 350 911 l 483 911 l 790 0 l 665 0 l 508 508 q 462 660 485 585 q 418 815 439 736 l 413 815 q 368 660 390 736 q 322 508 346 585 l 163 0 l 43 0 m 206 276 l 206 371 l 624 371 l 624 276 l 206 276 z "},"Ả":{"ha":833,"x_min":43,"x_max":790,"o":"m 43 0 l 350 911 l 483 911 l 790 0 l 665 0 l 508 508 q 462 660 485 585 q 418 815 439 736 l 413 815 q 368 660 390 736 q 322 508 346 585 l 163 0 l 43 0 m 206 276 l 206 371 l 624 371 l 624 276 l 206 276 m 372 969 l 360 1022 q 415 1046 393 1032 q 438 1086 438 1060 q 409 1128 438 1114 q 322 1144 381 1142 l 335 1211 q 439 1196 396 1208 q 504 1158 482 1183 q 526 1099 526 1133 q 505 1032 526 1058 q 448 991 483 1006 q 372 969 413 976 z "},"Ấ":{"ha":833,"x_min":43,"x_max":790,"o":"m 43 0 l 350 911 l 483 911 l 790 0 l 665 0 l 508 508 q 462 660 485 585 q 418 815 439 736 l 413 815 q 368 660 390 736 q 322 508 346 585 l 163 0 l 43 0 m 206 276 l 206 371 l 624 371 l 624 276 l 206 276 m 285 971 l 238 1007 l 367 1132 l 467 1132 l 596 1007 l 549 971 l 419 1067 l 414 1067 l 285 971 m 585 1060 l 543 1104 l 678 1233 l 728 1179 l 585 1060 z "},"Ầ":{"ha":833,"x_min":43,"x_max":790,"o":"m 43 0 l 350 911 l 483 911 l 790 0 l 665 0 l 508 508 q 462 660 485 585 q 418 815 439 736 l 413 815 q 368 660 390 736 q 322 508 346 585 l 163 0 l 43 0 m 206 276 l 206 371 l 624 371 l 624 276 l 206 276 m 285 971 l 238 1007 l 367 1132 l 467 1132 l 596 1007 l 549 971 l 419 1067 l 414 1067 l 285 971 m 249 1060 l 124 1182 l 172 1233 l 290 1101 l 249 1060 z "},"Ẩ":{"ha":833,"x_min":43,"x_max":790,"o":"m 43 0 l 350 911 l 483 911 l 790 0 l 665 0 l 508 508 q 462 660 485 585 q 418 815 439 736 l 413 815 q 368 660 390 736 q 322 508 346 585 l 163 0 l 43 0 m 206 276 l 206 371 l 624 371 l 624 276 l 206 276 m 285 971 l 238 1007 l 367 1132 l 467 1132 l 596 1007 l 549 971 l 419 1067 l 414 1067 l 285 971 m 576 1047 l 563 1096 q 606 1113 588 1103 q 624 1146 624 1124 q 601 1185 624 1172 q 526 1200 578 1197 l 538 1258 q 629 1244 592 1256 q 686 1210 667 1232 q 706 1157 706 1189 q 666 1080 706 1104 q 576 1047 626 1056 z "},"Ẫ":{"ha":833,"x_min":43,"x_max":790,"o":"m 43 0 l 350 911 l 483 911 l 790 0 l 665 0 l 508 508 q 462 660 485 585 q 418 815 439 736 l 413 815 q 368 660 390 736 q 322 508 346 585 l 163 0 l 43 0 m 206 276 l 206 371 l 624 371 l 624 276 l 206 276 m 285 971 l 238 1007 l 367 1128 l 467 1128 l 596 1007 l 549 971 l 419 1063 l 414 1063 l 285 971 m 508 1165 q 451 1176 475 1165 q 408 1200 426 1186 q 370 1224 389 1214 q 331 1235 351 1235 q 294 1218 306 1235 q 278 1171 282 1201 l 215 1178 q 228 1242 217 1214 q 264 1288 240 1271 q 325 1304 288 1304 q 383 1294 358 1304 q 426 1270 407 1283 q 463 1247 444 1257 q 503 1236 482 1236 q 540 1253 528 1236 q 556 1300 551 1269 l 618 1293 q 605 1228 617 1257 q 569 1182 593 1199 q 508 1165 546 1165 z "},"Ậ":{"ha":833,"x_min":43,"x_max":790,"o":"m 43 0 l 350 911 l 483 911 l 790 0 l 665 0 l 508 508 q 462 660 485 585 q 418 815 439 736 l 413 815 q 368 660 390 736 q 322 508 346 585 l 163 0 l 43 0 m 206 276 l 206 371 l 624 371 l 624 276 l 206 276 m 261 971 l 211 1007 l 356 1164 l 478 1164 l 622 1007 l 572 971 l 419 1099 l 414 1099 l 261 971 z "},"Ắ":{"ha":833,"x_min":43,"x_max":790,"o":"m 43 0 l 350 911 l 483 911 l 790 0 l 665 0 l 508 508 q 462 660 485 585 q 418 815 439 736 l 413 815 q 368 660 390 736 q 322 508 346 585 l 163 0 l 43 0 m 206 276 l 206 371 l 624 371 l 624 276 l 206 276 m 417 979 q 310 1003 353 979 q 243 1069 267 1028 q 214 1158 219 1110 l 279 1169 q 322 1083 288 1118 q 417 1047 356 1047 q 512 1083 478 1047 q 554 1169 546 1118 l 619 1158 q 590 1069 614 1110 q 524 1003 567 1028 q 417 979 481 979 m 421 1115 l 364 1156 l 496 1318 l 569 1267 l 421 1115 z "},"Ằ":{"ha":833,"x_min":43,"x_max":790,"o":"m 43 0 l 350 911 l 483 911 l 790 0 l 665 0 l 508 508 q 462 660 485 585 q 418 815 439 736 l 413 815 q 368 660 390 736 q 322 508 346 585 l 163 0 l 43 0 m 206 276 l 206 371 l 624 371 l 624 276 l 206 276 m 417 979 q 310 1003 353 979 q 243 1069 267 1028 q 214 1158 219 1110 l 279 1169 q 322 1083 288 1118 q 417 1047 356 1047 q 512 1083 478 1047 q 554 1169 546 1118 l 619 1158 q 590 1069 614 1110 q 524 1003 567 1028 q 417 979 481 979 m 413 1115 l 264 1267 l 338 1318 l 469 1156 l 413 1115 z "},"Ẳ":{"ha":833,"x_min":43,"x_max":790,"o":"m 43 0 l 350 911 l 483 911 l 790 0 l 665 0 l 508 508 q 462 660 485 585 q 418 815 439 736 l 413 815 q 368 660 390 736 q 322 508 346 585 l 163 0 l 43 0 m 206 276 l 206 371 l 624 371 l 624 276 l 206 276 m 417 979 q 310 1003 353 979 q 243 1069 267 1028 q 214 1158 219 1110 l 279 1169 q 322 1083 288 1118 q 417 1047 356 1047 q 512 1083 478 1047 q 554 1169 546 1118 l 619 1158 q 590 1069 614 1110 q 524 1003 567 1028 q 417 979 481 979 m 385 1111 l 369 1160 q 414 1177 396 1167 q 432 1210 432 1188 q 409 1249 432 1236 q 333 1264 386 1261 l 346 1322 q 438 1308 400 1319 q 494 1275 475 1297 q 514 1221 514 1253 q 474 1144 514 1168 q 385 1111 435 1119 z "},"Ẵ":{"ha":833,"x_min":43,"x_max":790,"o":"m 43 0 l 350 911 l 483 911 l 790 0 l 665 0 l 508 508 q 462 660 485 585 q 418 815 439 736 l 413 815 q 368 660 390 736 q 322 508 346 585 l 163 0 l 43 0 m 206 276 l 206 371 l 624 371 l 624 276 l 206 276 m 417 983 q 310 1004 353 983 q 245 1058 268 1025 q 218 1131 222 1092 l 282 1142 q 321 1076 289 1104 q 417 1047 353 1047 q 513 1076 481 1047 q 551 1142 544 1104 l 615 1131 q 588 1058 611 1092 q 523 1004 565 1025 q 417 983 481 983 m 508 1171 q 451 1181 475 1171 q 408 1206 426 1192 q 370 1230 389 1219 q 331 1240 351 1240 q 294 1223 306 1240 q 278 1175 282 1206 l 215 1182 q 228 1247 217 1218 q 264 1293 240 1276 q 325 1310 288 1310 q 383 1299 358 1310 q 426 1276 407 1289 q 463 1252 444 1263 q 503 1242 482 1242 q 540 1258 528 1242 q 556 1306 551 1275 l 618 1299 q 605 1233 617 1263 q 569 1188 593 1204 q 508 1171 546 1171 z "},"Ặ":{"ha":833,"x_min":43,"x_max":790,"o":"m 43 0 l 350 911 l 483 911 l 790 0 l 665 0 l 508 508 q 462 660 485 585 q 418 815 439 736 l 413 815 q 368 660 390 736 q 322 508 346 585 l 163 0 l 43 0 m 206 276 l 206 371 l 624 371 l 624 276 l 206 276 m 417 979 q 310 1003 353 979 q 243 1069 267 1028 q 214 1158 219 1110 l 283 1169 q 324 1087 292 1121 q 417 1053 357 1053 q 509 1087 476 1053 q 550 1169 542 1121 l 619 1158 q 590 1069 614 1110 q 524 1003 567 1028 q 417 979 481 979 z "},"Æ":{"ha":833,"x_min":-1,"x_max":821,"o":"m -1 0 l 364 911 l 808 911 l 808 813 l 547 813 l 547 529 l 750 529 l 750 431 l 547 431 l 547 99 l 821 99 l 821 0 l 440 0 l 440 819 l 436 819 q 378 671 408 744 q 321 524 349 597 l 121 0 l -1 0 m 182 265 l 182 358 l 496 358 l 496 265 l 182 265 z "},"Ǽ":{"ha":833,"x_min":-1,"x_max":821,"o":"m -1 0 l 364 911 l 808 911 l 808 813 l 547 813 l 547 529 l 750 529 l 750 431 l 547 431 l 547 99 l 821 99 l 821 0 l 440 0 l 440 819 l 436 819 q 378 671 408 744 q 321 524 349 597 l 121 0 l -1 0 m 182 265 l 182 358 l 496 358 l 496 265 l 182 265 m 543 968 l 492 1026 l 689 1206 l 754 1128 l 543 968 z "},"Ǣ":{"ha":833,"x_min":-1,"x_max":821,"o":"m -1 0 l 364 911 l 808 911 l 808 813 l 547 813 l 547 529 l 750 529 l 750 431 l 547 431 l 547 99 l 821 99 l 821 0 l 440 0 l 440 819 l 436 819 q 378 671 408 744 q 321 524 349 597 l 121 0 l -1 0 m 182 265 l 182 358 l 496 358 l 496 265 l 182 265 m 397 1021 l 397 1101 l 769 1101 l 769 1021 l 397 1021 z "},"Ƀ":{"ha":833,"x_min":36,"x_max":768,"o":"m 146 0 l 146 911 l 404 911 q 567 889 497 911 q 677 818 638 867 q 717 689 717 769 q 678 566 717 621 q 557 490 639 511 l 557 485 q 713 415 657 469 q 768 267 768 361 q 725 118 768 178 q 605 29 682 58 q 425 0 528 0 l 146 0 m 36 225 l 36 303 l 146 311 l 458 311 l 458 225 l 36 225 m 261 97 l 408 97 q 590 138 525 97 q 654 272 654 179 q 591 394 654 357 q 408 431 528 431 l 261 431 l 261 97 m 261 528 l 385 528 q 552 565 501 528 q 603 679 603 603 q 549 783 603 753 q 390 814 496 814 l 261 814 l 261 528 z "},"Ḇ":{"ha":833,"x_min":138,"x_max":760,"o":"m 138 0 l 138 911 l 396 911 q 559 889 489 911 q 669 818 629 867 q 708 689 708 769 q 669 566 708 621 q 549 490 631 511 l 549 485 q 704 415 649 469 q 760 267 760 361 q 717 118 760 178 q 597 29 674 58 q 417 0 519 0 l 138 0 m 253 528 l 376 528 q 544 565 493 528 q 594 679 594 603 q 541 783 594 753 q 382 814 488 814 l 253 814 l 253 528 m 253 97 l 400 97 q 581 138 517 97 q 646 272 646 179 q 583 394 646 357 q 400 431 519 431 l 253 431 l 253 97 z "},"Ç":{"ha":833,"x_min":90,"x_max":769,"o":"m 488 -17 q 331 15 403 -17 q 204 108 258 47 q 120 257 150 169 q 90 456 90 344 q 143 708 90 603 q 288 871 196 814 q 499 928 381 928 q 644 894 581 928 q 749 817 708 861 l 682 743 q 601 803 647 781 q 499 825 556 825 q 347 781 411 825 q 247 654 282 736 q 211 458 211 572 q 247 260 211 344 q 347 131 282 176 q 499 86 411 86 q 610 113 561 86 q 703 186 660 139 l 769 115 q 647 18 717 53 q 488 -17 578 -17 m 365 -314 l 354 -258 q 474 -236 442 -253 q 506 -189 506 -219 q 482 -146 506 -161 q 399 -122 458 -131 l 454 11 l 529 11 l 493 -89 q 568 -122 542 -100 q 594 -187 594 -144 q 535 -278 594 -247 q 365 -314 475 -308 z "},"Ć":{"ha":833,"x_min":90,"x_max":769,"o":"m 488 -17 q 331 15 403 -17 q 204 108 258 47 q 120 257 150 169 q 90 456 90 344 q 143 708 90 603 q 288 871 196 814 q 499 928 381 928 q 644 894 581 928 q 749 817 708 861 l 682 743 q 601 803 647 781 q 499 825 556 825 q 347 781 411 825 q 247 654 282 736 q 211 458 211 572 q 247 260 211 344 q 347 131 282 176 q 499 86 411 86 q 610 113 561 86 q 703 186 660 139 l 769 115 q 647 18 717 53 q 488 -17 578 -17 m 440 968 l 389 1026 l 586 1206 l 651 1128 l 440 968 z "},"Ĉ":{"ha":833,"x_min":90,"x_max":769,"o":"m 488 -17 q 331 15 403 -17 q 204 108 258 47 q 120 257 150 169 q 90 456 90 344 q 143 708 90 603 q 288 871 196 814 q 499 928 381 928 q 644 894 581 928 q 749 817 708 861 l 682 743 q 601 803 647 781 q 499 825 556 825 q 347 781 411 825 q 247 654 282 736 q 211 458 211 572 q 247 260 211 344 q 347 131 282 176 q 499 86 411 86 q 610 113 561 86 q 703 186 660 139 l 769 115 q 647 18 717 53 q 488 -17 578 -17 m 325 971 l 275 1007 l 419 1164 l 542 1164 l 686 1007 l 636 971 l 483 1099 l 478 1099 l 325 971 z "},"Č":{"ha":833,"x_min":90,"x_max":769,"o":"m 488 -17 q 331 15 403 -17 q 204 108 258 47 q 120 257 150 169 q 90 456 90 344 q 143 708 90 603 q 288 871 196 814 q 499 928 381 928 q 644 894 581 928 q 749 817 708 861 l 682 743 q 601 803 647 781 q 499 825 556 825 q 347 781 411 825 q 247 654 282 736 q 211 458 211 572 q 247 260 211 344 q 347 131 282 176 q 499 86 411 86 q 610 113 561 86 q 703 186 660 139 l 769 115 q 647 18 717 53 q 488 -17 578 -17 m 419 981 l 275 1138 l 325 1174 l 478 1046 l 483 1046 l 636 1174 l 686 1138 l 542 981 l 419 981 z "},"Ċ":{"ha":833,"x_min":90,"x_max":769,"o":"m 488 -17 q 331 15 403 -17 q 204 108 258 47 q 120 257 150 169 q 90 456 90 344 q 143 708 90 603 q 288 871 196 814 q 499 928 381 928 q 644 894 581 928 q 749 817 708 861 l 682 743 q 601 803 647 781 q 499 825 556 825 q 347 781 411 825 q 247 654 282 736 q 211 458 211 572 q 247 260 211 344 q 347 131 282 176 q 499 86 411 86 q 610 113 561 86 q 703 186 660 139 l 769 115 q 647 18 717 53 q 488 -17 578 -17 m 481 992 q 422 1014 444 992 q 399 1071 399 1036 q 422 1128 399 1106 q 481 1150 444 1150 q 540 1128 517 1150 q 563 1071 563 1106 q 540 1014 563 1036 q 481 992 517 992 z "},"Ď":{"ha":833,"x_min":121,"x_max":768,"o":"m 121 0 l 121 911 l 346 911 q 577 858 483 911 q 719 705 671 806 q 768 460 768 604 q 719 211 768 314 q 578 54 671 108 q 351 0 486 0 l 121 0 m 238 96 l 338 96 q 510 139 442 96 q 613 263 579 182 q 647 460 647 344 q 613 654 647 575 q 510 774 579 733 q 338 815 442 815 l 238 815 l 238 96 m 356 981 l 211 1138 l 261 1174 l 414 1046 l 419 1046 l 572 1174 l 622 1138 l 478 981 l 356 981 z "},"Ḍ":{"ha":833,"x_min":121,"x_max":768,"o":"m 121 0 l 121 911 l 346 911 q 577 858 483 911 q 719 705 671 806 q 768 460 768 604 q 719 211 768 314 q 578 54 671 108 q 351 0 486 0 l 121 0 m 238 96 l 338 96 q 510 139 442 96 q 613 263 579 182 q 647 460 647 344 q 613 654 647 575 q 510 774 579 733 q 338 815 442 815 l 238 815 l 238 96 z "},"Ḏ":{"ha":833,"x_min":121,"x_max":768,"o":"m 121 0 l 121 911 l 346 911 q 577 858 483 911 q 719 705 671 806 q 768 460 768 604 q 719 211 768 314 q 578 54 671 108 q 351 0 486 0 l 121 0 m 238 96 l 338 96 q 510 139 442 96 q 613 263 579 182 q 647 460 647 344 q 613 654 647 575 q 510 774 579 733 q 338 815 442 815 l 238 815 l 238 96 z "},"Ḑ":{"ha":833,"x_min":121,"x_max":768,"o":"m 121 0 l 121 911 l 346 911 q 577 858 483 911 q 719 705 671 806 q 768 460 768 604 q 719 211 768 314 q 578 54 671 108 q 351 0 486 0 l 121 0 m 238 96 l 338 96 q 510 139 442 96 q 613 263 579 182 q 647 460 647 344 q 613 654 647 575 q 510 774 579 733 q 338 815 442 815 l 238 815 l 238 96 m 276 -314 l 265 -258 q 385 -236 353 -253 q 417 -189 417 -219 q 393 -146 417 -161 q 310 -122 369 -131 l 365 11 l 440 11 l 404 -89 q 479 -122 453 -100 q 506 -187 506 -144 q 446 -278 506 -247 q 276 -314 386 -308 z "},"Đ":{"ha":833,"x_min":17,"x_max":768,"o":"m 121 0 l 121 436 l 17 436 l 17 514 l 121 522 l 121 911 l 346 911 q 577 858 483 911 q 719 705 671 806 q 768 460 768 604 q 719 211 768 314 q 578 54 671 108 q 351 0 486 0 l 121 0 m 236 94 l 338 94 q 510 138 442 94 q 613 263 579 181 q 647 460 647 344 q 613 654 647 575 q 510 775 579 733 q 338 817 442 817 l 236 817 l 236 522 l 436 522 l 436 436 l 236 436 l 236 94 z "},"Ɗ":{"ha":833,"x_min":28,"x_max":788,"o":"m 290 0 l 290 871 l 406 871 l 406 94 l 435 94 q 563 139 511 94 q 641 267 614 183 q 668 469 668 350 q 639 667 668 586 q 548 790 610 747 q 388 832 486 832 l 349 832 q 229 804 278 832 q 156 730 181 776 q 131 624 131 683 q 157 516 131 557 q 236 444 183 475 l 181 364 q 69 461 110 400 q 28 618 28 522 q 67 778 28 708 q 182 888 106 847 q 374 928 258 928 q 606 874 514 928 q 742 719 697 821 q 788 469 788 617 q 744 215 788 319 q 621 55 701 110 q 428 0 540 0 l 290 0 z "},"È":{"ha":833,"x_min":158,"x_max":736,"o":"m 158 0 l 158 911 l 722 911 l 722 813 l 275 813 l 275 528 l 653 528 l 653 429 l 275 429 l 275 99 l 736 99 l 736 0 l 158 0 m 500 968 l 289 1128 l 354 1206 l 551 1026 l 500 968 z "},"É":{"ha":833,"x_min":158,"x_max":736,"o":"m 158 0 l 158 911 l 722 911 l 722 813 l 275 813 l 275 528 l 653 528 l 653 429 l 275 429 l 275 99 l 736 99 l 736 0 l 158 0 m 419 968 l 368 1026 l 565 1206 l 631 1128 l 419 968 z "},"Ê":{"ha":833,"x_min":158,"x_max":736,"o":"m 158 0 l 158 911 l 722 911 l 722 813 l 275 813 l 275 528 l 653 528 l 653 429 l 275 429 l 275 99 l 736 99 l 736 0 l 158 0 m 304 971 l 254 1007 l 399 1164 l 521 1164 l 665 1007 l 615 971 l 463 1099 l 457 1099 l 304 971 z "},"Ě":{"ha":833,"x_min":158,"x_max":736,"o":"m 158 0 l 158 911 l 722 911 l 722 813 l 275 813 l 275 528 l 653 528 l 653 429 l 275 429 l 275 99 l 736 99 l 736 0 l 158 0 m 399 981 l 254 1138 l 304 1174 l 457 1046 l 463 1046 l 615 1174 l 665 1138 l 521 981 l 399 981 z "},"Ë":{"ha":833,"x_min":158,"x_max":736,"o":"m 158 0 l 158 911 l 722 911 l 722 813 l 275 813 l 275 528 l 653 528 l 653 429 l 275 429 l 275 99 l 736 99 l 736 0 l 158 0 m 332 993 q 282 1013 301 993 q 263 1064 263 1033 q 282 1115 263 1094 q 332 1135 301 1135 q 383 1115 363 1135 q 403 1064 403 1094 q 383 1013 403 1033 q 332 993 363 993 m 588 993 q 537 1013 557 993 q 517 1064 517 1033 q 537 1115 517 1094 q 588 1135 557 1135 q 638 1115 618 1135 q 657 1064 657 1094 q 638 1013 657 1033 q 588 993 618 993 z "},"Ē":{"ha":833,"x_min":158,"x_max":736,"o":"m 158 0 l 158 911 l 722 911 l 722 813 l 275 813 l 275 528 l 653 528 l 653 429 l 275 429 l 275 99 l 736 99 l 736 0 l 158 0 m 274 1021 l 274 1101 l 646 1101 l 646 1021 l 274 1021 z "},"Ĕ":{"ha":833,"x_min":158,"x_max":736,"o":"m 158 0 l 158 911 l 722 911 l 722 813 l 275 813 l 275 528 l 653 528 l 653 429 l 275 429 l 275 99 l 736 99 l 736 0 l 158 0 m 460 979 q 353 1003 396 979 q 286 1069 310 1028 q 257 1158 263 1110 l 326 1169 q 367 1087 335 1121 q 460 1053 400 1053 q 552 1087 519 1053 q 593 1169 585 1121 l 663 1158 q 633 1069 657 1110 q 567 1003 610 1028 q 460 979 524 979 z "},"Ė":{"ha":833,"x_min":158,"x_max":736,"o":"m 158 0 l 158 911 l 722 911 l 722 813 l 275 813 l 275 528 l 653 528 l 653 429 l 275 429 l 275 99 l 736 99 l 736 0 l 158 0 m 460 992 q 401 1014 424 992 q 378 1071 378 1036 q 401 1128 378 1106 q 460 1150 424 1150 q 519 1128 496 1150 q 542 1071 542 1106 q 519 1014 542 1036 q 460 992 496 992 z "},"Ę":{"ha":833,"x_min":160,"x_max":768,"o":"m 642 -312 q 539 -281 581 -312 q 497 -186 497 -250 q 515 -109 497 -144 q 560 -46 532 -74 q 618 0 588 -18 l 160 0 l 160 911 l 722 911 l 722 813 l 276 813 l 276 528 l 653 528 l 653 429 l 276 429 l 276 99 l 736 99 l 736 0 l 731 0 q 662 -30 694 -6 q 608 -88 629 -54 q 588 -160 588 -122 q 611 -215 588 -197 q 664 -232 635 -232 q 703 -222 686 -232 q 733 -201 719 -212 l 768 -262 q 713 -298 744 -283 q 642 -312 681 -312 z "},"Ẹ":{"ha":833,"x_min":158,"x_max":736,"o":"m 158 0 l 158 911 l 722 911 l 722 813 l 275 813 l 275 528 l 653 528 l 653 429 l 275 429 l 275 99 l 736 99 l 736 0 l 158 0 z "},"Ẻ":{"ha":833,"x_min":158,"x_max":736,"o":"m 158 0 l 158 911 l 722 911 l 722 813 l 275 813 l 275 528 l 653 528 l 653 429 l 275 429 l 275 99 l 736 99 l 736 0 l 158 0 m 415 969 l 403 1022 q 458 1046 436 1032 q 481 1086 481 1060 q 452 1128 481 1114 q 365 1144 424 1142 l 378 1211 q 482 1196 439 1208 q 547 1158 525 1183 q 569 1099 569 1133 q 548 1032 569 1058 q 491 991 526 1006 q 415 969 456 976 z "},"Ẽ":{"ha":833,"x_min":158,"x_max":736,"o":"m 158 0 l 158 911 l 722 911 l 722 813 l 275 813 l 275 528 l 653 528 l 653 429 l 275 429 l 275 99 l 736 99 l 736 0 l 158 0 m 564 985 q 497 999 525 985 q 447 1033 468 1014 q 404 1067 425 1053 q 358 1082 383 1082 q 314 1059 332 1082 q 292 992 296 1036 l 214 997 q 255 1123 217 1078 q 356 1168 293 1168 q 423 1153 394 1168 q 473 1119 451 1139 q 515 1084 494 1099 q 561 1069 536 1069 q 605 1093 588 1069 q 628 1161 622 1117 l 706 1156 q 665 1030 703 1075 q 564 985 626 985 z "},"Ế":{"ha":833,"x_min":158,"x_max":771,"o":"m 158 0 l 158 911 l 722 911 l 722 813 l 275 813 l 275 528 l 653 528 l 653 429 l 275 429 l 275 99 l 736 99 l 736 0 l 158 0 m 328 971 l 281 1007 l 410 1132 l 510 1132 l 639 1007 l 592 971 l 463 1067 l 457 1067 l 328 971 m 628 1060 l 586 1104 l 721 1233 l 771 1179 l 628 1060 z "},"Ề":{"ha":833,"x_min":158,"x_max":736,"o":"m 158 0 l 158 911 l 722 911 l 722 813 l 275 813 l 275 528 l 653 528 l 653 429 l 275 429 l 275 99 l 736 99 l 736 0 l 158 0 m 328 971 l 281 1007 l 410 1132 l 510 1132 l 639 1007 l 592 971 l 463 1067 l 457 1067 l 328 971 m 292 1060 l 167 1182 l 215 1233 l 333 1101 l 292 1060 z "},"Ể":{"ha":833,"x_min":158,"x_max":749,"o":"m 158 0 l 158 911 l 722 911 l 722 813 l 275 813 l 275 528 l 653 528 l 653 429 l 275 429 l 275 99 l 736 99 l 736 0 l 158 0 m 328 971 l 281 1007 l 410 1132 l 510 1132 l 639 1007 l 592 971 l 463 1067 l 457 1067 l 328 971 m 619 1047 l 606 1096 q 649 1113 631 1103 q 667 1146 667 1124 q 644 1185 667 1172 q 569 1200 621 1197 l 581 1258 q 672 1244 635 1256 q 729 1210 710 1232 q 749 1157 749 1189 q 709 1080 749 1104 q 619 1047 669 1056 z "},"Ễ":{"ha":833,"x_min":158,"x_max":736,"o":"m 158 0 l 158 911 l 722 911 l 722 813 l 275 813 l 275 528 l 653 528 l 653 429 l 275 429 l 275 99 l 736 99 l 736 0 l 158 0 m 328 971 l 281 1007 l 410 1128 l 510 1128 l 639 1007 l 592 971 l 463 1063 l 457 1063 l 328 971 m 551 1165 q 494 1176 518 1165 q 451 1200 469 1186 q 413 1224 432 1214 q 374 1235 394 1235 q 337 1218 349 1235 q 321 1171 325 1201 l 258 1178 q 272 1242 260 1214 q 307 1288 283 1271 q 368 1304 331 1304 q 426 1294 401 1304 q 469 1270 450 1283 q 506 1247 488 1257 q 546 1236 525 1236 q 583 1253 571 1236 q 599 1300 594 1269 l 661 1293 q 648 1228 660 1257 q 613 1182 636 1199 q 551 1165 589 1165 z "},"Ệ":{"ha":833,"x_min":158,"x_max":736,"o":"m 158 0 l 158 911 l 722 911 l 722 813 l 275 813 l 275 528 l 653 528 l 653 429 l 275 429 l 275 99 l 736 99 l 736 0 l 158 0 m 304 971 l 254 1007 l 399 1164 l 521 1164 l 665 1007 l 615 971 l 463 1099 l 457 1099 l 304 971 z "},"Ḗ":{"ha":833,"x_min":158,"x_max":736,"o":"m 158 0 l 158 911 l 722 911 l 722 813 l 275 813 l 275 528 l 653 528 l 653 429 l 275 429 l 275 99 l 736 99 l 736 0 l 158 0 m 274 1021 l 274 1101 l 646 1101 l 646 1021 l 274 1021 m 435 1149 l 392 1201 l 560 1344 l 614 1278 l 435 1149 z "},"Ǵ":{"ha":833,"x_min":74,"x_max":740,"o":"m 468 -17 q 264 40 353 -17 q 124 201 175 96 q 74 456 74 307 q 126 708 74 603 q 269 871 178 814 q 478 928 360 928 q 629 892 568 928 q 729 817 690 857 l 663 743 q 587 801 631 778 q 478 825 543 825 q 328 781 392 825 q 231 654 265 736 q 196 458 196 572 q 228 260 196 344 q 324 131 261 176 q 475 86 386 86 q 565 100 522 86 q 632 139 607 114 l 632 376 l 451 376 l 451 472 l 740 472 l 740 89 q 627 14 697 44 q 468 -17 557 -17 m 418 968 l 367 1026 l 564 1206 l 629 1128 l 418 968 z "},"Ĝ":{"ha":833,"x_min":74,"x_max":740,"o":"m 468 -17 q 264 40 353 -17 q 124 201 175 96 q 74 456 74 307 q 126 708 74 603 q 269 871 178 814 q 478 928 360 928 q 629 892 568 928 q 729 817 690 857 l 663 743 q 587 801 631 778 q 478 825 543 825 q 328 781 392 825 q 231 654 265 736 q 196 458 196 572 q 228 260 196 344 q 324 131 261 176 q 475 86 386 86 q 565 100 522 86 q 632 139 607 114 l 632 376 l 451 376 l 451 472 l 740 472 l 740 89 q 627 14 697 44 q 468 -17 557 -17 m 303 971 l 253 1007 l 397 1164 l 519 1164 l 664 1007 l 614 971 l 461 1099 l 456 1099 l 303 971 z "},"Ğ":{"ha":833,"x_min":74,"x_max":740,"o":"m 468 -17 q 264 40 353 -17 q 124 201 175 96 q 74 456 74 307 q 126 708 74 603 q 269 871 178 814 q 478 928 360 928 q 629 892 568 928 q 729 817 690 857 l 663 743 q 587 801 631 778 q 478 825 543 825 q 328 781 392 825 q 231 654 265 736 q 196 458 196 572 q 228 260 196 344 q 324 131 261 176 q 475 86 386 86 q 565 100 522 86 q 632 139 607 114 l 632 376 l 451 376 l 451 472 l 740 472 l 740 89 q 627 14 697 44 q 468 -17 557 -17 m 458 979 q 351 1003 394 979 q 285 1069 308 1028 q 256 1158 261 1110 l 325 1169 q 366 1087 333 1121 q 458 1053 399 1053 q 551 1087 518 1053 q 592 1169 583 1121 l 661 1158 q 632 1069 656 1110 q 565 1003 608 1028 q 458 979 522 979 z "},"Ġ":{"ha":833,"x_min":74,"x_max":740,"o":"m 468 -17 q 264 40 353 -17 q 124 201 175 96 q 74 456 74 307 q 126 708 74 603 q 269 871 178 814 q 478 928 360 928 q 629 892 568 928 q 729 817 690 857 l 663 743 q 587 801 631 778 q 478 825 543 825 q 328 781 392 825 q 231 654 265 736 q 196 458 196 572 q 228 260 196 344 q 324 131 261 176 q 475 86 386 86 q 565 100 522 86 q 632 139 607 114 l 632 376 l 451 376 l 451 472 l 740 472 l 740 89 q 627 14 697 44 q 468 -17 557 -17 m 458 992 q 399 1014 422 992 q 376 1071 376 1036 q 399 1128 376 1106 q 458 1150 422 1150 q 517 1128 494 1150 q 540 1071 540 1106 q 517 1014 540 1036 q 458 992 494 992 z "},"Ģ":{"ha":833,"x_min":74,"x_max":740,"o":"m 468 -17 q 264 40 353 -17 q 124 201 175 96 q 74 456 74 307 q 126 708 74 603 q 269 871 178 814 q 478 928 360 928 q 629 892 568 928 q 729 817 690 857 l 663 743 q 587 801 631 778 q 478 825 543 825 q 328 781 392 825 q 231 654 265 736 q 196 458 196 572 q 228 260 196 344 q 324 131 261 176 q 475 86 386 86 q 565 100 522 86 q 632 139 607 114 l 632 376 l 451 376 l 451 472 l 740 472 l 740 89 q 627 14 697 44 q 468 -17 557 -17 m 338 -314 l 326 -258 q 446 -236 414 -253 q 478 -192 478 -219 q 453 -151 478 -164 q 379 -133 428 -137 l 404 -81 q 531 -116 494 -92 q 567 -187 567 -140 q 507 -278 567 -247 q 338 -314 447 -308 z "},"Ǧ":{"ha":833,"x_min":74,"x_max":740,"o":"m 468 -17 q 264 40 353 -17 q 124 201 175 96 q 74 456 74 307 q 126 708 74 603 q 269 871 178 814 q 478 928 360 928 q 629 892 568 928 q 729 817 690 857 l 663 743 q 587 801 631 778 q 478 825 543 825 q 328 781 392 825 q 231 654 265 736 q 196 458 196 572 q 228 260 196 344 q 324 131 261 176 q 475 86 386 86 q 565 100 522 86 q 632 139 607 114 l 632 376 l 451 376 l 451 472 l 740 472 l 740 89 q 627 14 697 44 q 468 -17 557 -17 m 397 981 l 253 1138 l 303 1174 l 456 1046 l 461 1046 l 614 1174 l 664 1138 l 519 981 l 397 981 z "},"Ḡ":{"ha":833,"x_min":74,"x_max":740,"o":"m 468 -17 q 264 40 353 -17 q 124 201 175 96 q 74 456 74 307 q 126 708 74 603 q 269 871 178 814 q 478 928 360 928 q 629 892 568 928 q 729 817 690 857 l 663 743 q 587 801 631 778 q 478 825 543 825 q 328 781 392 825 q 231 654 265 736 q 196 458 196 572 q 228 260 196 344 q 324 131 261 176 q 475 86 386 86 q 565 100 522 86 q 632 139 607 114 l 632 376 l 451 376 l 451 472 l 740 472 l 740 89 q 627 14 697 44 q 468 -17 557 -17 m 272 1021 l 272 1101 l 644 1101 l 644 1021 l 272 1021 z "},"Ɠ":{"ha":833,"x_min":74,"x_max":818,"o":"m 729 817 l 632 817 q 589 897 603 863 q 575 971 575 932 q 594 1047 575 1014 q 649 1098 614 1079 q 731 1117 685 1117 q 781 1111 760 1117 q 818 1099 801 1106 l 796 1011 q 774 1019 785 1015 q 749 1022 764 1022 q 694 1001 714 1022 q 675 949 675 981 q 689 883 675 911 q 729 817 703 856 m 468 -17 q 264 40 353 -17 q 124 201 175 96 q 74 456 74 307 q 126 708 74 603 q 269 871 178 814 q 478 928 360 928 q 629 892 568 928 q 729 817 690 857 l 663 743 q 587 801 631 778 q 478 825 543 825 q 328 781 392 825 q 231 654 265 736 q 196 458 196 572 q 228 260 196 344 q 324 131 261 176 q 475 86 386 86 q 565 100 522 86 q 632 139 607 114 l 632 376 l 451 376 l 451 472 l 740 472 l 740 89 q 627 14 697 44 q 468 -17 557 -17 z "},"Ĥ":{"ha":833,"x_min":110,"x_max":724,"o":"m 110 0 l 110 911 l 228 911 l 228 531 l 606 531 l 606 911 l 724 911 l 724 0 l 606 0 l 606 428 l 228 428 l 228 0 l 110 0 m 261 971 l 211 1007 l 356 1164 l 478 1164 l 622 1007 l 572 971 l 419 1099 l 414 1099 l 261 971 z "},"Ḧ":{"ha":833,"x_min":110,"x_max":724,"o":"m 110 0 l 110 911 l 228 911 l 228 531 l 606 531 l 606 911 l 724 911 l 724 0 l 606 0 l 606 428 l 228 428 l 228 0 l 110 0 m 289 993 q 239 1013 258 993 q 219 1064 219 1033 q 239 1115 219 1094 q 289 1135 258 1135 q 340 1115 319 1135 q 360 1064 360 1094 q 340 1013 360 1033 q 289 993 319 993 m 544 993 q 494 1013 514 993 q 474 1064 474 1033 q 494 1115 474 1094 q 544 1135 514 1135 q 594 1115 575 1135 q 614 1064 614 1094 q 594 1013 614 1033 q 544 993 575 993 z "},"Ḥ":{"ha":833,"x_min":110,"x_max":724,"o":"m 110 0 l 110 911 l 228 911 l 228 531 l 606 531 l 606 911 l 724 911 l 724 0 l 606 0 l 606 428 l 228 428 l 228 0 l 110 0 z "},"Ḩ":{"ha":833,"x_min":38,"x_max":724,"o":"m 110 0 l 110 911 l 228 911 l 228 531 l 606 531 l 606 911 l 724 911 l 724 0 l 606 0 l 606 428 l 228 428 l 228 0 l 110 0 m 49 -314 l 38 -258 q 157 -236 125 -253 q 189 -189 189 -219 q 165 -146 189 -161 q 82 -122 142 -131 l 138 11 l 213 11 l 176 -89 q 251 -122 225 -100 q 278 -187 278 -144 q 218 -278 278 -247 q 49 -314 158 -308 z "},"Ḫ":{"ha":833,"x_min":110,"x_max":724,"o":"m 110 0 l 110 911 l 228 911 l 228 531 l 606 531 l 606 911 l 724 911 l 724 0 l 606 0 l 606 428 l 228 428 l 228 0 l 110 0 z "},"Ħ":{"ha":833,"x_min":14,"x_max":819,"o":"m 14 672 l 14 750 l 114 758 l 819 758 l 819 672 l 14 672 m 110 0 l 110 911 l 228 911 l 228 531 l 606 531 l 606 911 l 724 911 l 724 0 l 606 0 l 606 428 l 228 428 l 228 0 l 110 0 z "},"Ì":{"ha":833,"x_min":132,"x_max":701,"o":"m 132 0 l 132 99 l 358 99 l 358 813 l 132 813 l 132 911 l 701 911 l 701 813 l 475 813 l 475 99 l 701 99 l 701 0 l 132 0 m 457 968 l 246 1128 l 311 1206 l 508 1026 l 457 968 z "},"Í":{"ha":833,"x_min":132,"x_max":701,"o":"m 132 0 l 132 99 l 358 99 l 358 813 l 132 813 l 132 911 l 701 911 l 701 813 l 475 813 l 475 99 l 701 99 l 701 0 l 132 0 m 376 968 l 325 1026 l 522 1206 l 588 1128 l 376 968 z "},"Î":{"ha":833,"x_min":132,"x_max":701,"o":"m 132 0 l 132 99 l 358 99 l 358 813 l 132 813 l 132 911 l 701 911 l 701 813 l 475 813 l 475 99 l 701 99 l 701 0 l 132 0 m 261 971 l 211 1007 l 356 1164 l 478 1164 l 622 1007 l 572 971 l 419 1099 l 414 1099 l 261 971 z "},"Ĩ":{"ha":833,"x_min":132,"x_max":701,"o":"m 132 0 l 132 99 l 358 99 l 358 813 l 132 813 l 132 911 l 701 911 l 701 813 l 475 813 l 475 99 l 701 99 l 701 0 l 132 0 m 521 985 q 453 999 482 985 q 403 1033 425 1014 q 361 1067 382 1053 q 315 1082 340 1082 q 271 1059 289 1082 q 249 992 253 1036 l 171 997 q 212 1123 174 1078 q 313 1168 250 1168 q 380 1153 351 1168 q 430 1119 408 1139 q 472 1084 451 1099 q 518 1069 493 1069 q 562 1093 544 1069 q 585 1161 579 1117 l 663 1156 q 622 1030 660 1075 q 521 985 583 985 z "},"Ï":{"ha":833,"x_min":132,"x_max":701,"o":"m 132 0 l 132 99 l 358 99 l 358 813 l 132 813 l 132 911 l 701 911 l 701 813 l 475 813 l 475 99 l 701 99 l 701 0 l 132 0 m 289 993 q 239 1013 258 993 q 219 1064 219 1033 q 239 1115 219 1094 q 289 1135 258 1135 q 340 1115 319 1135 q 360 1064 360 1094 q 340 1013 360 1033 q 289 993 319 993 m 544 993 q 494 1013 514 993 q 474 1064 474 1033 q 494 1115 474 1094 q 544 1135 514 1135 q 594 1115 575 1135 q 614 1064 614 1094 q 594 1013 614 1033 q 544 993 575 993 z "},"Ī":{"ha":833,"x_min":132,"x_max":701,"o":"m 132 0 l 132 99 l 358 99 l 358 813 l 132 813 l 132 911 l 701 911 l 701 813 l 475 813 l 475 99 l 701 99 l 701 0 l 132 0 m 231 1021 l 231 1101 l 603 1101 l 603 1021 l 231 1021 z "},"İ":{"ha":833,"x_min":132,"x_max":701,"o":"m 132 0 l 132 99 l 358 99 l 358 813 l 132 813 l 132 911 l 701 911 l 701 813 l 475 813 l 475 99 l 701 99 l 701 0 l 132 0 m 417 992 q 358 1014 381 992 q 335 1071 335 1036 q 358 1128 335 1106 q 417 1150 381 1150 q 476 1128 453 1150 q 499 1071 499 1106 q 476 1014 499 1036 q 417 992 453 992 z "},"Ǐ":{"ha":833,"x_min":132,"x_max":701,"o":"m 132 0 l 132 99 l 358 99 l 358 813 l 132 813 l 132 911 l 701 911 l 701 813 l 475 813 l 475 99 l 701 99 l 701 0 l 132 0 m 356 981 l 211 1138 l 261 1174 l 414 1046 l 419 1046 l 572 1174 l 622 1138 l 478 981 l 356 981 z "},"Į":{"ha":833,"x_min":132,"x_max":701,"o":"m 432 -312 q 330 -281 371 -312 q 289 -186 289 -250 q 304 -113 289 -147 q 342 -51 319 -79 q 388 0 364 -22 l 132 0 l 132 99 l 358 99 l 358 813 l 132 813 l 132 911 l 701 911 l 701 813 l 475 813 l 475 99 l 701 99 l 701 0 l 482 0 q 405 -80 431 -39 q 379 -160 379 -121 q 403 -215 379 -197 q 456 -232 426 -232 q 494 -222 478 -232 q 524 -201 511 -212 l 558 -262 q 503 -298 535 -283 q 432 -312 472 -312 z "},"Ỉ":{"ha":833,"x_min":132,"x_max":701,"o":"m 132 0 l 132 99 l 358 99 l 358 813 l 132 813 l 132 911 l 701 911 l 701 813 l 475 813 l 475 99 l 701 99 l 701 0 l 132 0 m 372 969 l 360 1022 q 415 1046 393 1032 q 438 1086 438 1060 q 409 1128 438 1114 q 322 1144 381 1142 l 335 1211 q 439 1196 396 1208 q 504 1158 482 1183 q 526 1099 526 1133 q 505 1032 526 1058 q 448 991 483 1006 q 372 969 413 976 z "},"Ị":{"ha":833,"x_min":132,"x_max":701,"o":"m 132 0 l 132 99 l 358 99 l 358 813 l 132 813 l 132 911 l 701 911 l 701 813 l 475 813 l 475 99 l 701 99 l 701 0 l 132 0 z "},"Ĭ":{"ha":833,"x_min":132,"x_max":701,"o":"m 132 0 l 132 99 l 358 99 l 358 813 l 132 813 l 132 911 l 701 911 l 701 813 l 475 813 l 475 99 l 701 99 l 701 0 l 132 0 m 417 979 q 310 1003 353 979 q 243 1069 267 1028 q 214 1158 219 1110 l 283 1169 q 324 1087 292 1121 q 417 1053 357 1053 q 509 1087 476 1053 q 550 1169 542 1121 l 619 1158 q 590 1069 614 1110 q 524 1003 567 1028 q 417 979 481 979 z "},"Ĵ":{"ha":833,"x_min":111,"x_max":686,"o":"m 383 -17 q 233 20 307 -17 q 111 135 158 57 l 185 206 q 276 115 225 144 q 381 86 328 86 q 523 138 478 86 q 568 301 568 189 l 568 814 l 188 814 l 188 913 l 686 913 l 686 292 q 658 137 686 207 q 563 25 629 67 q 383 -17 497 -17 m 294 971 l 244 1007 l 389 1164 l 511 1164 l 656 1007 l 606 971 l 453 1099 l 447 1099 l 294 971 z "},"Ķ":{"ha":833,"x_min":135,"x_max":806,"o":"m 135 0 l 135 911 l 253 911 l 253 456 l 257 456 l 639 911 l 772 911 l 253 290 l 253 0 l 135 0 m 674 0 l 393 508 l 464 600 l 806 0 l 674 0 m 349 -314 l 338 -258 q 457 -236 425 -253 q 489 -192 489 -219 q 464 -151 489 -164 q 390 -133 439 -137 l 415 -81 q 542 -116 506 -92 q 578 -187 578 -140 q 518 -278 578 -247 q 349 -314 458 -308 z "},"Ḳ":{"ha":833,"x_min":135,"x_max":806,"o":"m 135 0 l 135 911 l 253 911 l 253 456 l 257 456 l 639 911 l 772 911 l 253 290 l 253 0 l 135 0 m 674 0 l 393 508 l 464 600 l 806 0 l 674 0 z "},"Ḵ":{"ha":833,"x_min":135,"x_max":806,"o":"m 135 0 l 135 911 l 253 911 l 253 456 l 257 456 l 639 911 l 772 911 l 253 290 l 253 0 l 135 0 m 674 0 l 393 508 l 464 600 l 806 0 l 674 0 z "},"Ĺ":{"ha":833,"x_min":171,"x_max":751,"o":"m 186 0 l 186 911 l 301 911 l 301 99 l 751 99 l 751 0 l 186 0 m 222 968 l 171 1026 l 368 1206 l 433 1128 l 222 968 z "},"Ľ":{"ha":833,"x_min":186,"x_max":751,"o":"m 186 0 l 186 911 l 301 911 l 301 99 l 751 99 l 751 0 l 186 0 m 531 714 l 525 1086 l 631 1086 l 629 974 l 610 714 l 531 714 z "},"Ļ":{"ha":833,"x_min":186,"x_max":751,"o":"m 186 0 l 186 911 l 301 911 l 301 99 l 751 99 l 751 0 l 186 0 m 364 -314 l 353 -258 q 472 -236 440 -253 q 504 -192 504 -219 q 479 -151 504 -164 q 406 -133 454 -137 l 431 -81 q 557 -116 521 -92 q 593 -187 593 -140 q 533 -278 593 -247 q 364 -314 474 -308 z "},"Ḷ":{"ha":833,"x_min":186,"x_max":751,"o":"m 186 0 l 186 911 l 301 911 l 301 99 l 751 99 l 751 0 l 186 0 z "},"Ḹ":{"ha":833,"x_min":76,"x_max":751,"o":"m 186 0 l 186 911 l 301 911 l 301 99 l 751 99 l 751 0 l 186 0 m 76 1021 l 76 1101 l 449 1101 l 449 1021 l 76 1021 z "},"Ḻ":{"ha":833,"x_min":186,"x_max":751,"o":"m 186 0 l 186 911 l 301 911 l 301 99 l 751 99 l 751 0 l 186 0 z "},"Ł":{"ha":833,"x_min":14,"x_max":751,"o":"m 54 251 l 14 325 l 197 422 l 290 464 l 593 625 l 633 551 l 290 368 l 197 328 l 54 251 m 186 0 l 186 911 l 301 911 l 301 99 l 751 99 l 751 0 l 186 0 z "},"Ŀ":{"ha":833,"x_min":186,"x_max":751,"o":"m 186 0 l 186 911 l 301 911 l 301 99 l 751 99 l 751 0 l 186 0 m 649 397 q 583 422 610 397 q 557 486 557 446 q 583 550 557 525 q 649 575 610 575 q 714 550 688 575 q 740 486 740 525 q 714 422 740 446 q 649 397 688 397 z "},"Ḿ":{"ha":833,"x_min":100,"x_max":733,"o":"m 100 0 l 100 911 l 242 911 l 369 522 l 414 375 l 419 375 l 463 522 l 592 911 l 733 911 l 733 0 l 622 0 l 622 456 q 624 532 622 489 q 630 621 626 575 q 636 708 633 667 q 642 778 639 749 l 638 778 l 586 600 l 456 242 l 372 242 l 244 600 l 192 778 l 189 778 q 195 708 192 749 q 201 621 199 667 q 206 532 204 575 q 208 456 208 489 l 208 0 l 100 0 m 376 968 l 325 1026 l 522 1206 l 588 1128 l 376 968 z "},"Ṁ":{"ha":833,"x_min":100,"x_max":733,"o":"m 100 0 l 100 911 l 242 911 l 369 522 l 414 375 l 419 375 l 463 522 l 592 911 l 733 911 l 733 0 l 622 0 l 622 456 q 624 532 622 489 q 630 621 626 575 q 636 708 633 667 q 642 778 639 749 l 638 778 l 586 600 l 456 242 l 372 242 l 244 600 l 192 778 l 189 778 q 195 708 192 749 q 201 621 199 667 q 206 532 204 575 q 208 456 208 489 l 208 0 l 100 0 m 417 992 q 358 1014 381 992 q 335 1071 335 1036 q 358 1128 335 1106 q 417 1150 381 1150 q 476 1128 453 1150 q 499 1071 499 1106 q 476 1014 499 1036 q 417 992 453 992 z "},"Ṃ":{"ha":833,"x_min":100,"x_max":733,"o":"m 100 0 l 100 911 l 242 911 l 369 522 l 414 375 l 419 375 l 463 522 l 592 911 l 733 911 l 733 0 l 622 0 l 622 456 q 624 532 622 489 q 630 621 626 575 q 636 708 633 667 q 642 778 639 749 l 638 778 l 586 600 l 456 242 l 372 242 l 244 600 l 192 778 l 189 778 q 195 708 192 749 q 201 621 199 667 q 206 532 204 575 q 208 456 208 489 l 208 0 l 100 0 z "},"Ń":{"ha":833,"x_min":114,"x_max":719,"o":"m 114 0 l 114 911 l 242 911 l 533 339 l 621 150 l 624 150 q 615 292 621 218 q 608 439 608 367 l 608 911 l 719 911 l 719 0 l 592 0 l 300 572 l 213 761 l 210 761 q 219 619 213 692 q 225 476 225 547 l 225 0 l 114 0 m 390 968 l 339 1026 l 536 1206 l 601 1128 l 390 968 z "},"Ǹ":{"ha":833,"x_min":114,"x_max":719,"o":"m 114 0 l 114 911 l 242 911 l 533 339 l 621 150 l 624 150 q 615 292 621 218 q 608 439 608 367 l 608 911 l 719 911 l 719 0 l 592 0 l 300 572 l 213 761 l 210 761 q 219 619 213 692 q 225 476 225 547 l 225 0 l 114 0 m 471 968 l 260 1128 l 325 1206 l 522 1026 l 471 968 z "},"Ň":{"ha":833,"x_min":114,"x_max":719,"o":"m 114 0 l 114 911 l 242 911 l 533 339 l 621 150 l 624 150 q 615 292 621 218 q 608 439 608 367 l 608 911 l 719 911 l 719 0 l 592 0 l 300 572 l 213 761 l 210 761 q 219 619 213 692 q 225 476 225 547 l 225 0 l 114 0 m 369 981 l 225 1138 l 275 1174 l 428 1046 l 433 1046 l 586 1174 l 636 1138 l 492 981 l 369 981 z "},"Ñ":{"ha":833,"x_min":114,"x_max":719,"o":"m 114 0 l 114 911 l 242 911 l 533 339 l 621 150 l 624 150 q 615 292 621 218 q 608 439 608 367 l 608 911 l 719 911 l 719 0 l 592 0 l 300 572 l 213 761 l 210 761 q 219 619 213 692 q 225 476 225 547 l 225 0 l 114 0 m 535 985 q 467 999 496 985 q 417 1033 439 1014 q 375 1067 396 1053 q 329 1082 354 1082 q 285 1059 303 1082 q 263 992 267 1036 l 185 997 q 226 1123 188 1078 q 326 1168 264 1168 q 394 1153 365 1168 q 444 1119 422 1139 q 486 1084 465 1099 q 532 1069 507 1069 q 576 1093 558 1069 q 599 1161 593 1117 l 676 1156 q 635 1030 674 1075 q 535 985 597 985 z "},"Ņ":{"ha":833,"x_min":114,"x_max":719,"o":"m 114 0 l 114 911 l 242 911 l 533 339 l 621 150 l 624 150 q 615 292 621 218 q 608 439 608 367 l 608 911 l 719 911 l 719 0 l 592 0 l 300 572 l 213 761 l 210 761 q 219 619 213 692 q 225 476 225 547 l 225 0 l 114 0 m 296 -314 l 285 -258 q 404 -236 372 -253 q 436 -192 436 -219 q 411 -151 436 -164 q 338 -133 386 -137 l 363 -81 q 489 -116 453 -92 q 525 -187 525 -140 q 465 -278 525 -247 q 296 -314 406 -308 z "},"Ṅ":{"ha":833,"x_min":114,"x_max":719,"o":"m 114 0 l 114 911 l 242 911 l 533 339 l 621 150 l 624 150 q 615 292 621 218 q 608 439 608 367 l 608 911 l 719 911 l 719 0 l 592 0 l 300 572 l 213 761 l 210 761 q 219 619 213 692 q 225 476 225 547 l 225 0 l 114 0 m 431 992 q 372 1014 394 992 q 349 1071 349 1036 q 372 1128 349 1106 q 431 1150 394 1150 q 490 1128 467 1150 q 513 1071 513 1106 q 490 1014 513 1036 q 431 992 467 992 z "},"Ṇ":{"ha":833,"x_min":114,"x_max":719,"o":"m 114 0 l 114 911 l 242 911 l 533 339 l 621 150 l 624 150 q 615 292 621 218 q 608 439 608 367 l 608 911 l 719 911 l 719 0 l 592 0 l 300 572 l 213 761 l 210 761 q 219 619 213 692 q 225 476 225 547 l 225 0 l 114 0 z "},"Ṉ":{"ha":833,"x_min":114,"x_max":719,"o":"m 114 0 l 114 911 l 242 911 l 533 339 l 621 150 l 624 150 q 615 292 621 218 q 608 439 608 367 l 608 911 l 719 911 l 719 0 l 592 0 l 300 572 l 213 761 l 210 761 q 219 619 213 692 q 225 476 225 547 l 225 0 l 114 0 z "},"Ò":{"ha":833,"x_min":67,"x_max":767,"o":"m 417 -17 q 235 40 314 -17 q 111 203 156 97 q 67 460 67 310 q 111 712 67 607 q 235 872 156 817 q 417 928 314 928 q 599 872 519 928 q 722 712 678 817 q 767 460 767 607 q 722 203 767 310 q 599 40 678 97 q 417 -17 519 -17 m 417 86 q 538 131 486 86 q 617 259 589 175 q 646 460 646 343 q 617 656 646 575 q 538 781 589 738 q 417 825 486 825 q 296 781 347 825 q 216 656 244 738 q 188 460 188 575 q 216 259 188 343 q 296 131 244 175 q 417 86 347 86 m 457 968 l 246 1128 l 311 1206 l 508 1026 l 457 968 z "},"Ó":{"ha":833,"x_min":67,"x_max":767,"o":"m 417 -17 q 235 40 314 -17 q 111 203 156 97 q 67 460 67 310 q 111 712 67 607 q 235 872 156 817 q 417 928 314 928 q 599 872 519 928 q 722 712 678 817 q 767 460 767 607 q 722 203 767 310 q 599 40 678 97 q 417 -17 519 -17 m 417 86 q 538 131 486 86 q 617 259 589 175 q 646 460 646 343 q 617 656 646 575 q 538 781 589 738 q 417 825 486 825 q 296 781 347 825 q 216 656 244 738 q 188 460 188 575 q 216 259 188 343 q 296 131 244 175 q 417 86 347 86 m 376 968 l 325 1026 l 522 1206 l 588 1128 l 376 968 z "},"Ô":{"ha":833,"x_min":67,"x_max":767,"o":"m 417 -17 q 235 40 314 -17 q 111 203 156 97 q 67 460 67 310 q 111 712 67 607 q 235 872 156 817 q 417 928 314 928 q 599 872 519 928 q 722 712 678 817 q 767 460 767 607 q 722 203 767 310 q 599 40 678 97 q 417 -17 519 -17 m 417 86 q 538 131 486 86 q 617 259 589 175 q 646 460 646 343 q 617 656 646 575 q 538 781 589 738 q 417 825 486 825 q 296 781 347 825 q 216 656 244 738 q 188 460 188 575 q 216 259 188 343 q 296 131 244 175 q 417 86 347 86 m 261 971 l 211 1007 l 356 1164 l 478 1164 l 622 1007 l 572 971 l 419 1099 l 414 1099 l 261 971 z "},"Õ":{"ha":833,"x_min":67,"x_max":767,"o":"m 417 -17 q 235 40 314 -17 q 111 203 156 97 q 67 460 67 310 q 111 712 67 607 q 235 872 156 817 q 417 928 314 928 q 599 872 519 928 q 722 712 678 817 q 767 460 767 607 q 722 203 767 310 q 599 40 678 97 q 417 -17 519 -17 m 417 86 q 538 131 486 86 q 617 259 589 175 q 646 460 646 343 q 617 656 646 575 q 538 781 589 738 q 417 825 486 825 q 296 781 347 825 q 216 656 244 738 q 188 460 188 575 q 216 259 188 343 q 296 131 244 175 q 417 86 347 86 m 521 985 q 453 999 482 985 q 403 1033 425 1014 q 361 1067 382 1053 q 315 1082 340 1082 q 271 1059 289 1082 q 249 992 253 1036 l 171 997 q 212 1123 174 1078 q 313 1168 250 1168 q 380 1153 351 1168 q 430 1119 408 1139 q 472 1084 451 1099 q 518 1069 493 1069 q 562 1093 544 1069 q 585 1161 579 1117 l 663 1156 q 622 1030 660 1075 q 521 985 583 985 z "},"Ö":{"ha":833,"x_min":67,"x_max":767,"o":"m 417 -17 q 235 40 314 -17 q 111 203 156 97 q 67 460 67 310 q 111 712 67 607 q 235 872 156 817 q 417 928 314 928 q 599 872 519 928 q 722 712 678 817 q 767 460 767 607 q 722 203 767 310 q 599 40 678 97 q 417 -17 519 -17 m 417 86 q 538 131 486 86 q 617 259 589 175 q 646 460 646 343 q 617 656 646 575 q 538 781 589 738 q 417 825 486 825 q 296 781 347 825 q 216 656 244 738 q 188 460 188 575 q 216 259 188 343 q 296 131 244 175 q 417 86 347 86 m 289 993 q 239 1013 258 993 q 219 1064 219 1033 q 239 1115 219 1094 q 289 1135 258 1135 q 340 1115 319 1135 q 360 1064 360 1094 q 340 1013 360 1033 q 289 993 319 993 m 544 993 q 494 1013 514 993 q 474 1064 474 1033 q 494 1115 474 1094 q 544 1135 514 1135 q 594 1115 575 1135 q 614 1064 614 1094 q 594 1013 614 1033 q 544 993 575 993 z "},"Ō":{"ha":833,"x_min":67,"x_max":767,"o":"m 417 -17 q 235 40 314 -17 q 111 203 156 97 q 67 460 67 310 q 111 712 67 607 q 235 872 156 817 q 417 928 314 928 q 599 872 519 928 q 722 712 678 817 q 767 460 767 607 q 722 203 767 310 q 599 40 678 97 q 417 -17 519 -17 m 417 86 q 538 131 486 86 q 617 259 589 175 q 646 460 646 343 q 617 656 646 575 q 538 781 589 738 q 417 825 486 825 q 296 781 347 825 q 216 656 244 738 q 188 460 188 575 q 216 259 188 343 q 296 131 244 175 q 417 86 347 86 m 231 1021 l 231 1101 l 603 1101 l 603 1021 l 231 1021 z "},"Ő":{"ha":833,"x_min":67,"x_max":767,"o":"m 417 -17 q 235 40 314 -17 q 111 203 156 97 q 67 460 67 310 q 111 712 67 607 q 235 872 156 817 q 417 928 314 928 q 599 872 519 928 q 722 712 678 817 q 767 460 767 607 q 722 203 767 310 q 599 40 678 97 q 417 -17 519 -17 m 417 86 q 538 131 486 86 q 617 259 589 175 q 646 460 646 343 q 617 656 646 575 q 538 781 589 738 q 417 825 486 825 q 296 781 347 825 q 216 656 244 738 q 188 460 188 575 q 216 259 188 343 q 296 131 244 175 q 417 86 347 86 m 317 976 l 257 1006 l 385 1217 l 464 1172 l 317 976 m 540 976 l 479 1006 l 608 1217 l 686 1172 l 540 976 z "},"Ŏ":{"ha":833,"x_min":67,"x_max":767,"o":"m 417 -17 q 235 40 314 -17 q 111 203 156 97 q 67 460 67 310 q 111 712 67 607 q 235 872 156 817 q 417 928 314 928 q 599 872 519 928 q 722 712 678 817 q 767 460 767 607 q 722 203 767 310 q 599 40 678 97 q 417 -17 519 -17 m 417 86 q 538 131 486 86 q 617 259 589 175 q 646 460 646 343 q 617 656 646 575 q 538 781 589 738 q 417 825 486 825 q 296 781 347 825 q 216 656 244 738 q 188 460 188 575 q 216 259 188 343 q 296 131 244 175 q 417 86 347 86 m 417 979 q 310 1003 353 979 q 243 1069 267 1028 q 214 1158 219 1110 l 283 1169 q 324 1087 292 1121 q 417 1053 357 1053 q 509 1087 476 1053 q 550 1169 542 1121 l 619 1158 q 590 1069 614 1110 q 524 1003 567 1028 q 417 979 481 979 z "},"Ǒ":{"ha":833,"x_min":67,"x_max":767,"o":"m 417 -17 q 235 40 314 -17 q 111 203 156 97 q 67 460 67 310 q 111 712 67 607 q 235 872 156 817 q 417 928 314 928 q 599 872 519 928 q 722 712 678 817 q 767 460 767 607 q 722 203 767 310 q 599 40 678 97 q 417 -17 519 -17 m 417 86 q 538 131 486 86 q 617 259 589 175 q 646 460 646 343 q 617 656 646 575 q 538 781 589 738 q 417 825 486 825 q 296 781 347 825 q 216 656 244 738 q 188 460 188 575 q 216 259 188 343 q 296 131 244 175 q 417 86 347 86 m 356 981 l 211 1138 l 261 1174 l 414 1046 l 419 1046 l 572 1174 l 622 1138 l 478 981 l 356 981 z "},"Ǫ":{"ha":833,"x_min":67,"x_max":767,"o":"m 442 -312 q 340 -281 381 -312 q 299 -186 299 -250 q 328 -89 299 -131 q 397 -15 358 -47 q 215 57 289 -7 q 104 225 142 121 q 67 460 67 329 q 111 710 67 606 q 235 872 156 815 q 417 928 314 928 q 599 872 519 928 q 722 710 678 815 q 767 460 767 606 q 701 163 767 278 q 515 -3 636 49 q 421 -74 453 -31 q 389 -160 389 -117 q 413 -215 389 -197 q 465 -232 436 -232 q 503 -222 486 -232 q 533 -201 521 -212 l 568 -262 q 513 -298 544 -283 q 442 -312 481 -312 m 417 85 q 538 128 486 85 q 617 256 589 172 q 646 460 646 340 q 617 656 646 575 q 538 781 589 738 q 417 825 486 825 q 296 781 347 825 q 216 656 244 738 q 188 460 188 575 q 216 256 188 340 q 296 128 244 172 q 417 85 347 85 z "},"Ọ":{"ha":833,"x_min":67,"x_max":767,"o":"m 417 -17 q 235 40 314 -17 q 111 203 156 97 q 67 460 67 310 q 111 712 67 607 q 235 872 156 817 q 417 928 314 928 q 599 872 519 928 q 722 712 678 817 q 767 460 767 607 q 722 203 767 310 q 599 40 678 97 q 417 -17 519 -17 m 417 86 q 538 131 486 86 q 617 259 589 175 q 646 460 646 343 q 617 656 646 575 q 538 781 589 738 q 417 825 486 825 q 296 781 347 825 q 216 656 244 738 q 188 460 188 575 q 216 259 188 343 q 296 131 244 175 q 417 86 347 86 z "},"Ỏ":{"ha":833,"x_min":67,"x_max":767,"o":"m 417 -17 q 235 40 314 -17 q 111 203 156 97 q 67 460 67 310 q 111 712 67 607 q 235 872 156 817 q 417 928 314 928 q 599 872 519 928 q 722 712 678 817 q 767 460 767 607 q 722 203 767 310 q 599 40 678 97 q 417 -17 519 -17 m 417 86 q 538 131 486 86 q 617 259 589 175 q 646 460 646 343 q 617 656 646 575 q 538 781 589 738 q 417 825 486 825 q 296 781 347 825 q 216 656 244 738 q 188 460 188 575 q 216 259 188 343 q 296 131 244 175 q 417 86 347 86 m 372 969 l 360 1022 q 415 1046 393 1032 q 438 1086 438 1060 q 409 1128 438 1114 q 322 1144 381 1142 l 335 1211 q 439 1196 396 1208 q 504 1158 482 1183 q 526 1099 526 1133 q 505 1032 526 1058 q 448 991 483 1006 q 372 969 413 976 z "},"Ố":{"ha":833,"x_min":67,"x_max":767,"o":"m 417 -17 q 235 40 314 -17 q 111 203 156 97 q 67 460 67 310 q 111 712 67 607 q 235 872 156 817 q 417 928 314 928 q 599 872 519 928 q 722 712 678 817 q 767 460 767 607 q 722 203 767 310 q 599 40 678 97 q 417 -17 519 -17 m 417 86 q 538 131 486 86 q 617 259 589 175 q 646 460 646 343 q 617 656 646 575 q 538 781 589 738 q 417 825 486 825 q 296 781 347 825 q 216 656 244 738 q 188 460 188 575 q 216 259 188 343 q 296 131 244 175 q 417 86 347 86 m 285 971 l 238 1007 l 367 1132 l 467 1132 l 596 1007 l 549 971 l 419 1067 l 414 1067 l 285 971 m 585 1060 l 543 1104 l 678 1233 l 728 1179 l 585 1060 z "},"Ồ":{"ha":833,"x_min":67,"x_max":767,"o":"m 417 -17 q 235 40 314 -17 q 111 203 156 97 q 67 460 67 310 q 111 712 67 607 q 235 872 156 817 q 417 928 314 928 q 599 872 519 928 q 722 712 678 817 q 767 460 767 607 q 722 203 767 310 q 599 40 678 97 q 417 -17 519 -17 m 417 86 q 538 131 486 86 q 617 259 589 175 q 646 460 646 343 q 617 656 646 575 q 538 781 589 738 q 417 825 486 825 q 296 781 347 825 q 216 656 244 738 q 188 460 188 575 q 216 259 188 343 q 296 131 244 175 q 417 86 347 86 m 285 971 l 238 1007 l 367 1132 l 467 1132 l 596 1007 l 549 971 l 419 1067 l 414 1067 l 285 971 m 249 1060 l 124 1182 l 172 1233 l 290 1101 l 249 1060 z "},"Ổ":{"ha":833,"x_min":67,"x_max":767,"o":"m 417 -17 q 235 40 314 -17 q 111 203 156 97 q 67 460 67 310 q 111 712 67 607 q 235 872 156 817 q 417 928 314 928 q 599 872 519 928 q 722 712 678 817 q 767 460 767 607 q 722 203 767 310 q 599 40 678 97 q 417 -17 519 -17 m 417 86 q 538 131 486 86 q 617 259 589 175 q 646 460 646 343 q 617 656 646 575 q 538 781 589 738 q 417 825 486 825 q 296 781 347 825 q 216 656 244 738 q 188 460 188 575 q 216 259 188 343 q 296 131 244 175 q 417 86 347 86 m 285 971 l 238 1007 l 367 1132 l 467 1132 l 596 1007 l 549 971 l 419 1067 l 414 1067 l 285 971 m 576 1047 l 563 1096 q 606 1113 588 1103 q 624 1146 624 1124 q 601 1185 624 1172 q 526 1200 578 1197 l 538 1258 q 629 1244 592 1256 q 686 1210 667 1232 q 706 1157 706 1189 q 666 1080 706 1104 q 576 1047 626 1056 z "},"Ỗ":{"ha":833,"x_min":67,"x_max":767,"o":"m 417 -17 q 235 40 314 -17 q 111 203 156 97 q 67 460 67 310 q 111 712 67 607 q 235 872 156 817 q 417 928 314 928 q 599 872 519 928 q 722 712 678 817 q 767 460 767 607 q 722 203 767 310 q 599 40 678 97 q 417 -17 519 -17 m 417 86 q 538 131 486 86 q 617 259 589 175 q 646 460 646 343 q 617 656 646 575 q 538 781 589 738 q 417 825 486 825 q 296 781 347 825 q 216 656 244 738 q 188 460 188 575 q 216 259 188 343 q 296 131 244 175 q 417 86 347 86 m 285 971 l 238 1007 l 367 1128 l 467 1128 l 596 1007 l 549 971 l 419 1063 l 414 1063 l 285 971 m 508 1165 q 451 1176 475 1165 q 408 1200 426 1186 q 370 1224 389 1214 q 331 1235 351 1235 q 294 1218 306 1235 q 278 1171 282 1201 l 215 1178 q 228 1242 217 1214 q 264 1288 240 1271 q 325 1304 288 1304 q 383 1294 358 1304 q 426 1270 407 1283 q 463 1247 444 1257 q 503 1236 482 1236 q 540 1253 528 1236 q 556 1300 551 1269 l 618 1293 q 605 1228 617 1257 q 569 1182 593 1199 q 508 1165 546 1165 z "},"Ộ":{"ha":833,"x_min":67,"x_max":767,"o":"m 417 -17 q 235 40 314 -17 q 111 203 156 97 q 67 460 67 310 q 111 712 67 607 q 235 872 156 817 q 417 928 314 928 q 599 872 519 928 q 722 712 678 817 q 767 460 767 607 q 722 203 767 310 q 599 40 678 97 q 417 -17 519 -17 m 417 86 q 538 131 486 86 q 617 259 589 175 q 646 460 646 343 q 617 656 646 575 q 538 781 589 738 q 417 825 486 825 q 296 781 347 825 q 216 656 244 738 q 188 460 188 575 q 216 259 188 343 q 296 131 244 175 q 417 86 347 86 m 261 971 l 211 1007 l 356 1164 l 478 1164 l 622 1007 l 572 971 l 419 1099 l 414 1099 l 261 971 z "},"Ơ":{"ha":833,"x_min":67,"x_max":782,"o":"m 628 839 l 561 888 q 651 928 622 897 q 679 1008 679 958 q 674 1051 679 1029 q 658 1089 668 1072 l 750 1129 q 773 1076 764 1106 q 782 1017 782 1047 q 742 902 782 946 q 628 839 701 858 m 417 -17 q 235 40 314 -17 q 111 203 156 97 q 67 460 67 310 q 111 712 67 607 q 235 872 156 817 q 417 928 314 928 q 599 872 519 928 q 722 712 678 817 q 767 460 767 607 q 722 203 767 310 q 599 40 678 97 q 417 -17 519 -17 m 417 86 q 538 131 486 86 q 617 259 589 175 q 646 460 646 343 q 617 656 646 575 q 538 781 589 738 q 417 825 486 825 q 296 781 347 825 q 216 656 244 738 q 188 460 188 575 q 216 259 188 343 q 296 131 244 175 q 417 86 347 86 z "},"Ớ":{"ha":833,"x_min":67,"x_max":782,"o":"m 628 839 l 561 888 q 651 928 622 897 q 679 1008 679 958 q 674 1051 679 1029 q 658 1089 668 1072 l 750 1129 q 773 1076 764 1106 q 782 1017 782 1047 q 742 902 782 946 q 628 839 701 858 m 417 -17 q 235 40 314 -17 q 111 203 156 97 q 67 460 67 310 q 111 712 67 607 q 235 872 156 817 q 417 928 314 928 q 599 872 519 928 q 722 712 678 817 q 767 460 767 607 q 722 203 767 310 q 599 40 678 97 q 417 -17 519 -17 m 417 86 q 538 131 486 86 q 617 259 589 175 q 646 460 646 343 q 617 656 646 575 q 538 781 589 738 q 417 825 486 825 q 296 781 347 825 q 216 656 244 738 q 188 460 188 575 q 216 259 188 343 q 296 131 244 175 q 417 86 347 86 m 376 968 l 325 1026 l 522 1206 l 588 1128 l 376 968 z "},"Ờ":{"ha":833,"x_min":67,"x_max":782,"o":"m 628 839 l 561 888 q 651 928 622 897 q 679 1008 679 958 q 674 1051 679 1029 q 658 1089 668 1072 l 750 1129 q 773 1076 764 1106 q 782 1017 782 1047 q 742 902 782 946 q 628 839 701 858 m 417 -17 q 235 40 314 -17 q 111 203 156 97 q 67 460 67 310 q 111 712 67 607 q 235 872 156 817 q 417 928 314 928 q 599 872 519 928 q 722 712 678 817 q 767 460 767 607 q 722 203 767 310 q 599 40 678 97 q 417 -17 519 -17 m 417 86 q 538 131 486 86 q 617 259 589 175 q 646 460 646 343 q 617 656 646 575 q 538 781 589 738 q 417 825 486 825 q 296 781 347 825 q 216 656 244 738 q 188 460 188 575 q 216 259 188 343 q 296 131 244 175 q 417 86 347 86 m 457 968 l 246 1128 l 311 1206 l 508 1026 l 457 968 z "},"Ở":{"ha":833,"x_min":67,"x_max":782,"o":"m 628 839 l 561 888 q 651 928 622 897 q 679 1008 679 958 q 674 1051 679 1029 q 658 1089 668 1072 l 750 1129 q 773 1076 764 1106 q 782 1017 782 1047 q 742 902 782 946 q 628 839 701 858 m 417 -17 q 235 40 314 -17 q 111 203 156 97 q 67 460 67 310 q 111 712 67 607 q 235 872 156 817 q 417 928 314 928 q 599 872 519 928 q 722 712 678 817 q 767 460 767 607 q 722 203 767 310 q 599 40 678 97 q 417 -17 519 -17 m 417 86 q 538 131 486 86 q 617 259 589 175 q 646 460 646 343 q 617 656 646 575 q 538 781 589 738 q 417 825 486 825 q 296 781 347 825 q 216 656 244 738 q 188 460 188 575 q 216 259 188 343 q 296 131 244 175 q 417 86 347 86 m 372 969 l 360 1022 q 415 1046 393 1032 q 438 1086 438 1060 q 409 1128 438 1114 q 322 1144 381 1142 l 335 1211 q 439 1196 396 1208 q 504 1158 482 1183 q 526 1099 526 1133 q 505 1032 526 1058 q 448 991 483 1006 q 372 969 413 976 z "},"Ỡ":{"ha":833,"x_min":67,"x_max":782,"o":"m 628 839 l 561 888 q 651 928 622 897 q 679 1008 679 958 q 674 1051 679 1029 q 658 1089 668 1072 l 750 1129 q 773 1076 764 1106 q 782 1017 782 1047 q 742 902 782 946 q 628 839 701 858 m 417 -17 q 235 40 314 -17 q 111 203 156 97 q 67 460 67 310 q 111 712 67 607 q 235 872 156 817 q 417 928 314 928 q 599 872 519 928 q 722 712 678 817 q 767 460 767 607 q 722 203 767 310 q 599 40 678 97 q 417 -17 519 -17 m 417 86 q 538 131 486 86 q 617 259 589 175 q 646 460 646 343 q 617 656 646 575 q 538 781 589 738 q 417 825 486 825 q 296 781 347 825 q 216 656 244 738 q 188 460 188 575 q 216 259 188 343 q 296 131 244 175 q 417 86 347 86 m 493 985 q 426 999 454 985 q 376 1033 397 1014 q 333 1067 354 1053 q 288 1082 313 1082 q 243 1059 261 1082 q 221 992 225 1036 l 143 997 q 184 1123 146 1078 q 285 1168 222 1168 q 352 1153 324 1168 q 402 1119 381 1139 q 444 1084 424 1099 q 490 1069 465 1069 q 534 1093 517 1069 q 557 1161 551 1117 l 635 1156 q 594 1030 632 1075 q 493 985 556 985 z "},"Ợ":{"ha":833,"x_min":67,"x_max":782,"o":"m 628 839 l 561 888 q 651 928 622 897 q 679 1008 679 958 q 674 1051 679 1029 q 658 1089 668 1072 l 750 1129 q 773 1076 764 1106 q 782 1017 782 1047 q 742 902 782 946 q 628 839 701 858 m 417 -17 q 235 40 314 -17 q 111 203 156 97 q 67 460 67 310 q 111 712 67 607 q 235 872 156 817 q 417 928 314 928 q 599 872 519 928 q 722 712 678 817 q 767 460 767 607 q 722 203 767 310 q 599 40 678 97 q 417 -17 519 -17 m 417 86 q 538 131 486 86 q 617 259 589 175 q 646 460 646 343 q 617 656 646 575 q 538 781 589 738 q 417 825 486 825 q 296 781 347 825 q 216 656 244 738 q 188 460 188 575 q 216 259 188 343 q 296 131 244 175 q 417 86 347 86 z "},"Ṓ":{"ha":833,"x_min":67,"x_max":767,"o":"m 417 -17 q 235 40 314 -17 q 111 203 156 97 q 67 460 67 310 q 111 712 67 607 q 235 872 156 817 q 417 928 314 928 q 599 872 519 928 q 722 712 678 817 q 767 460 767 607 q 722 203 767 310 q 599 40 678 97 q 417 -17 519 -17 m 417 86 q 538 131 486 86 q 617 259 589 175 q 646 460 646 343 q 617 656 646 575 q 538 781 589 738 q 417 825 486 825 q 296 781 347 825 q 216 656 244 738 q 188 460 188 575 q 216 259 188 343 q 296 131 244 175 q 417 86 347 86 m 231 1021 l 231 1101 l 603 1101 l 603 1021 l 231 1021 m 392 1149 l 349 1201 l 517 1344 l 571 1278 l 392 1149 z "},"Ø":{"ha":833,"x_min":50,"x_max":778,"o":"m 50 6 l 700 956 l 778 906 l 128 -44 l 50 6 m 417 -17 q 235 40 314 -17 q 111 203 156 97 q 67 460 67 310 q 111 712 67 607 q 235 872 156 817 q 417 928 314 928 q 599 872 519 928 q 722 712 678 817 q 767 460 767 607 q 722 203 767 310 q 599 40 678 97 q 417 -17 519 -17 m 417 86 q 538 131 486 86 q 617 259 589 175 q 646 460 646 343 q 617 656 646 575 q 538 781 589 738 q 417 825 486 825 q 296 781 347 825 q 216 656 244 738 q 188 460 188 575 q 216 259 188 343 q 296 131 244 175 q 417 86 347 86 z "},"Ǿ":{"ha":833,"x_min":50,"x_max":778,"o":"m 50 6 l 700 956 l 778 906 l 128 -44 l 50 6 m 417 -17 q 235 40 314 -17 q 111 203 156 97 q 67 460 67 310 q 111 712 67 607 q 235 872 156 817 q 417 928 314 928 q 599 872 519 928 q 722 712 678 817 q 767 460 767 607 q 722 203 767 310 q 599 40 678 97 q 417 -17 519 -17 m 417 86 q 538 131 486 86 q 617 259 589 175 q 646 460 646 343 q 617 656 646 575 q 538 781 589 738 q 417 825 486 825 q 296 781 347 825 q 216 656 244 738 q 188 460 188 575 q 216 259 188 343 q 296 131 244 175 q 417 86 347 86 m 376 968 l 325 1026 l 522 1206 l 588 1128 l 376 968 z "},"Œ":{"ha":833,"x_min":46,"x_max":821,"o":"m 411 0 q 215 54 297 0 q 90 211 133 108 q 46 460 46 314 q 90 706 46 604 q 217 860 135 807 q 415 913 300 913 l 807 913 l 807 814 l 538 814 l 538 528 l 743 528 l 743 429 l 538 429 l 538 99 l 821 99 l 821 0 l 411 0 m 401 96 l 432 96 l 432 817 l 401 817 q 270 776 322 817 q 192 655 218 735 q 167 460 167 575 q 192 262 167 343 q 270 138 218 181 q 401 96 322 96 z "},"Ŕ":{"ha":833,"x_min":138,"x_max":768,"o":"m 138 0 l 138 911 l 422 911 q 586 887 514 911 q 700 806 658 863 q 742 654 742 750 q 700 503 742 564 q 586 414 658 443 q 422 385 514 385 l 256 385 l 256 0 l 138 0 m 256 479 l 406 479 q 568 523 511 479 q 625 654 625 567 q 568 781 625 744 q 406 817 511 817 l 256 817 l 256 479 m 399 417 l 490 478 l 768 0 l 636 0 l 399 417 m 382 968 l 331 1026 l 528 1206 l 593 1128 l 382 968 z "},"Ř":{"ha":833,"x_min":138,"x_max":768,"o":"m 138 0 l 138 911 l 422 911 q 586 887 514 911 q 700 806 658 863 q 742 654 742 750 q 700 503 742 564 q 586 414 658 443 q 422 385 514 385 l 256 385 l 256 0 l 138 0 m 256 479 l 406 479 q 568 523 511 479 q 625 654 625 567 q 568 781 625 744 q 406 817 511 817 l 256 817 l 256 479 m 399 417 l 490 478 l 768 0 l 636 0 l 399 417 m 361 981 l 217 1138 l 267 1174 l 419 1046 l 425 1046 l 578 1174 l 628 1138 l 483 981 l 361 981 z "},"Ṙ":{"ha":833,"x_min":138,"x_max":768,"o":"m 138 0 l 138 911 l 422 911 q 586 887 514 911 q 700 806 658 863 q 742 654 742 750 q 700 503 742 564 q 586 414 658 443 q 422 385 514 385 l 256 385 l 256 0 l 138 0 m 256 479 l 406 479 q 568 523 511 479 q 625 654 625 567 q 568 781 625 744 q 406 817 511 817 l 256 817 l 256 479 m 399 417 l 490 478 l 768 0 l 636 0 l 399 417 m 422 992 q 363 1014 386 992 q 340 1071 340 1036 q 363 1128 340 1106 q 422 1150 386 1150 q 481 1128 458 1150 q 504 1071 504 1106 q 481 1014 504 1036 q 422 992 458 992 z "},"Ŗ":{"ha":833,"x_min":138,"x_max":768,"o":"m 138 0 l 138 911 l 422 911 q 586 887 514 911 q 700 806 658 863 q 742 654 742 750 q 700 503 742 564 q 586 414 658 443 q 422 385 514 385 l 256 385 l 256 0 l 138 0 m 256 479 l 406 479 q 568 523 511 479 q 625 654 625 567 q 568 781 625 744 q 406 817 511 817 l 256 817 l 256 479 m 399 417 l 490 478 l 768 0 l 636 0 l 399 417 m 324 -314 l 313 -258 q 432 -236 400 -253 q 464 -192 464 -219 q 439 -151 464 -164 q 365 -133 414 -137 l 390 -81 q 517 -116 481 -92 q 553 -187 553 -140 q 493 -278 553 -247 q 324 -314 433 -308 z "},"Ṛ":{"ha":833,"x_min":138,"x_max":768,"o":"m 138 0 l 138 911 l 422 911 q 586 887 514 911 q 700 806 658 863 q 742 654 742 750 q 700 503 742 564 q 586 414 658 443 q 422 385 514 385 l 256 385 l 256 0 l 138 0 m 256 479 l 406 479 q 568 523 511 479 q 625 654 625 567 q 568 781 625 744 q 406 817 511 817 l 256 817 l 256 479 m 399 417 l 490 478 l 768 0 l 636 0 l 399 417 z "},"Ṝ":{"ha":833,"x_min":138,"x_max":768,"o":"m 138 0 l 138 911 l 422 911 q 586 887 514 911 q 700 806 658 863 q 742 654 742 750 q 700 503 742 564 q 586 414 658 443 q 422 385 514 385 l 256 385 l 256 0 l 138 0 m 256 479 l 406 479 q 568 523 511 479 q 625 654 625 567 q 568 781 625 744 q 406 817 511 817 l 256 817 l 256 479 m 399 417 l 490 478 l 768 0 l 636 0 l 399 417 m 236 1021 l 236 1101 l 608 1101 l 608 1021 l 236 1021 z "},"Ṟ":{"ha":833,"x_min":138,"x_max":768,"o":"m 138 0 l 138 911 l 422 911 q 586 887 514 911 q 700 806 658 863 q 742 654 742 750 q 700 503 742 564 q 586 414 658 443 q 422 385 514 385 l 256 385 l 256 0 l 138 0 m 256 479 l 406 479 q 568 523 511 479 q 625 654 625 567 q 568 781 625 744 q 406 817 511 817 l 256 817 l 256 479 m 399 417 l 490 478 l 768 0 l 636 0 l 399 417 z "},"Ś":{"ha":833,"x_min":93,"x_max":746,"o":"m 424 -17 q 239 20 324 -17 q 93 118 154 57 l 163 199 q 283 117 214 147 q 429 86 353 86 q 574 126 522 86 q 626 229 626 167 q 605 307 626 278 q 547 355 583 336 q 464 393 510 374 l 332 451 q 241 499 286 469 q 166 574 196 528 q 136 686 136 619 q 174 810 136 756 q 280 897 213 865 q 435 928 347 928 q 592 897 519 928 q 715 815 665 865 l 654 740 q 556 803 610 781 q 431 825 501 825 q 303 790 351 825 q 254 693 254 754 q 278 622 254 650 q 340 576 303 594 q 417 543 378 558 l 544 486 q 646 433 600 464 q 719 357 692 403 q 746 243 746 311 q 707 112 746 171 q 596 18 668 53 q 424 -17 524 -17 m 399 968 l 347 1026 l 544 1206 l 610 1128 l 399 968 z "},"Ŝ":{"ha":833,"x_min":93,"x_max":746,"o":"m 424 -17 q 239 20 324 -17 q 93 118 154 57 l 163 199 q 283 117 214 147 q 429 86 353 86 q 574 126 522 86 q 626 229 626 167 q 605 307 626 278 q 547 355 583 336 q 464 393 510 374 l 332 451 q 241 499 286 469 q 166 574 196 528 q 136 686 136 619 q 174 810 136 756 q 280 897 213 865 q 435 928 347 928 q 592 897 519 928 q 715 815 665 865 l 654 740 q 556 803 610 781 q 431 825 501 825 q 303 790 351 825 q 254 693 254 754 q 278 622 254 650 q 340 576 303 594 q 417 543 378 558 l 544 486 q 646 433 600 464 q 719 357 692 403 q 746 243 746 311 q 707 112 746 171 q 596 18 668 53 q 424 -17 524 -17 m 283 971 l 233 1007 l 378 1164 l 500 1164 l 644 1007 l 594 971 l 442 1099 l 436 1099 l 283 971 z "},"Š":{"ha":833,"x_min":93,"x_max":746,"o":"m 424 -17 q 239 20 324 -17 q 93 118 154 57 l 163 199 q 283 117 214 147 q 429 86 353 86 q 574 126 522 86 q 626 229 626 167 q 605 307 626 278 q 547 355 583 336 q 464 393 510 374 l 332 451 q 241 499 286 469 q 166 574 196 528 q 136 686 136 619 q 174 810 136 756 q 280 897 213 865 q 435 928 347 928 q 592 897 519 928 q 715 815 665 865 l 654 740 q 556 803 610 781 q 431 825 501 825 q 303 790 351 825 q 254 693 254 754 q 278 622 254 650 q 340 576 303 594 q 417 543 378 558 l 544 486 q 646 433 600 464 q 719 357 692 403 q 746 243 746 311 q 707 112 746 171 q 596 18 668 53 q 424 -17 524 -17 m 378 981 l 233 1138 l 283 1174 l 436 1046 l 442 1046 l 594 1174 l 644 1138 l 500 981 l 378 981 z "},"Ṧ":{"ha":833,"x_min":93,"x_max":746,"o":"m 424 -17 q 239 20 324 -17 q 93 118 154 57 l 163 199 q 283 117 214 147 q 429 86 353 86 q 574 126 522 86 q 626 229 626 167 q 605 307 626 278 q 547 355 583 336 q 464 393 510 374 l 332 451 q 241 499 286 469 q 166 574 196 528 q 136 686 136 619 q 174 810 136 756 q 280 897 213 865 q 435 928 347 928 q 592 897 519 928 q 715 815 665 865 l 654 740 q 556 803 610 781 q 431 825 501 825 q 303 790 351 825 q 254 693 254 754 q 278 622 254 650 q 340 576 303 594 q 417 543 378 558 l 544 486 q 646 433 600 464 q 719 357 692 403 q 746 243 746 311 q 707 112 746 171 q 596 18 668 53 q 424 -17 524 -17 m 439 1140 q 387 1160 408 1140 q 365 1213 365 1181 q 387 1265 365 1244 q 439 1285 408 1285 q 491 1265 469 1285 q 513 1213 513 1244 q 491 1160 513 1181 q 439 1140 469 1140 m 378 981 l 228 1132 l 268 1174 l 436 1046 l 442 1046 l 610 1174 l 650 1132 l 500 981 l 378 981 z "},"Ş":{"ha":833,"x_min":93,"x_max":746,"o":"m 424 -17 q 239 20 324 -17 q 93 118 154 57 l 163 199 q 283 117 214 147 q 429 86 353 86 q 574 126 522 86 q 626 229 626 167 q 605 307 626 278 q 547 355 583 336 q 464 393 510 374 l 332 451 q 241 499 286 469 q 166 574 196 528 q 136 686 136 619 q 174 810 136 756 q 280 897 213 865 q 435 928 347 928 q 592 897 519 928 q 715 815 665 865 l 654 740 q 556 803 610 781 q 431 825 501 825 q 303 790 351 825 q 254 693 254 754 q 278 622 254 650 q 340 576 303 594 q 417 543 378 558 l 544 486 q 646 433 600 464 q 719 357 692 403 q 746 243 746 311 q 707 112 746 171 q 596 18 668 53 q 424 -17 524 -17 m 322 -314 l 311 -258 q 431 -236 399 -253 q 463 -189 463 -219 q 439 -146 463 -161 q 356 -122 415 -131 l 411 11 l 486 11 l 450 -89 q 525 -122 499 -100 q 551 -187 551 -144 q 492 -278 551 -247 q 322 -314 432 -308 z "},"Ș":{"ha":833,"x_min":93,"x_max":746,"o":"m 424 -17 q 239 20 324 -17 q 93 118 154 57 l 163 199 q 283 117 214 147 q 429 86 353 86 q 574 126 522 86 q 626 229 626 167 q 605 307 626 278 q 547 355 583 336 q 464 393 510 374 l 332 451 q 241 499 286 469 q 166 574 196 528 q 136 686 136 619 q 174 810 136 756 q 280 897 213 865 q 435 928 347 928 q 592 897 519 928 q 715 815 665 865 l 654 740 q 556 803 610 781 q 431 825 501 825 q 303 790 351 825 q 254 693 254 754 q 278 622 254 650 q 340 576 303 594 q 417 543 378 558 l 544 486 q 646 433 600 464 q 719 357 692 403 q 746 243 746 311 q 707 112 746 171 q 596 18 668 53 q 424 -17 524 -17 m 314 -314 l 303 -258 q 422 -236 390 -253 q 454 -192 454 -219 q 429 -151 454 -164 q 356 -133 404 -137 l 381 -81 q 507 -116 471 -92 q 543 -187 543 -140 q 483 -278 543 -247 q 314 -314 424 -308 z "},"Ṡ":{"ha":833,"x_min":93,"x_max":746,"o":"m 424 -17 q 239 20 324 -17 q 93 118 154 57 l 163 199 q 283 117 214 147 q 429 86 353 86 q 574 126 522 86 q 626 229 626 167 q 605 307 626 278 q 547 355 583 336 q 464 393 510 374 l 332 451 q 241 499 286 469 q 166 574 196 528 q 136 686 136 619 q 174 810 136 756 q 280 897 213 865 q 435 928 347 928 q 592 897 519 928 q 715 815 665 865 l 654 740 q 556 803 610 781 q 431 825 501 825 q 303 790 351 825 q 254 693 254 754 q 278 622 254 650 q 340 576 303 594 q 417 543 378 558 l 544 486 q 646 433 600 464 q 719 357 692 403 q 746 243 746 311 q 707 112 746 171 q 596 18 668 53 q 424 -17 524 -17 m 439 992 q 380 1014 403 992 q 357 1071 357 1036 q 380 1128 357 1106 q 439 1150 403 1150 q 498 1128 475 1150 q 521 1071 521 1106 q 498 1014 521 1036 q 439 992 475 992 z "},"Ṣ":{"ha":833,"x_min":93,"x_max":746,"o":"m 424 -17 q 239 20 324 -17 q 93 118 154 57 l 163 199 q 283 117 214 147 q 429 86 353 86 q 574 126 522 86 q 626 229 626 167 q 605 307 626 278 q 547 355 583 336 q 464 393 510 374 l 332 451 q 241 499 286 469 q 166 574 196 528 q 136 686 136 619 q 174 810 136 756 q 280 897 213 865 q 435 928 347 928 q 592 897 519 928 q 715 815 665 865 l 654 740 q 556 803 610 781 q 431 825 501 825 q 303 790 351 825 q 254 693 254 754 q 278 622 254 650 q 340 576 303 594 q 417 543 378 558 l 544 486 q 646 433 600 464 q 719 357 692 403 q 746 243 746 311 q 707 112 746 171 q 596 18 668 53 q 424 -17 524 -17 z "},"ẞ":{"ha":833,"x_min":108,"x_max":792,"o":"m 542 -17 q 415 10 474 -17 q 318 85 357 36 l 374 158 q 446 100 408 119 q 532 81 483 81 q 632 124 596 81 q 668 232 668 167 q 649 315 668 276 q 577 382 629 353 q 431 431 525 411 l 422 506 l 618 751 l 604 685 q 538 795 585 760 q 424 831 492 831 q 280 768 333 831 q 226 574 226 706 l 226 0 l 108 0 l 108 594 q 147 772 108 697 q 255 887 185 846 q 424 928 325 928 q 610 869 539 928 q 715 713 682 811 l 519 469 l 515 514 q 680 446 619 486 q 766 352 740 406 q 792 232 792 299 q 762 105 792 161 q 676 16 732 49 q 542 -17 619 -17 z "},"Ť":{"ha":833,"x_min":57,"x_max":776,"o":"m 358 0 l 358 813 l 57 813 l 57 911 l 776 911 l 776 813 l 475 813 l 475 0 l 358 0 m 356 981 l 211 1138 l 261 1174 l 414 1046 l 419 1046 l 572 1174 l 622 1138 l 478 981 l 356 981 z "},"Ţ":{"ha":833,"x_min":57,"x_max":776,"o":"m 358 0 l 358 813 l 57 813 l 57 911 l 776 911 l 776 813 l 475 813 l 475 0 l 358 0 m 296 -314 l 285 -258 q 404 -236 372 -253 q 436 -189 436 -219 q 413 -146 436 -161 q 329 -122 389 -131 l 385 11 l 460 11 l 424 -89 q 499 -122 472 -100 q 525 -187 525 -144 q 465 -278 525 -247 q 296 -314 406 -308 z "},"Ț":{"ha":833,"x_min":57,"x_max":776,"o":"m 358 0 l 358 813 l 57 813 l 57 911 l 776 911 l 776 813 l 475 813 l 475 0 l 358 0 m 296 -314 l 285 -258 q 404 -236 372 -253 q 436 -192 436 -219 q 411 -151 436 -164 q 338 -133 386 -137 l 363 -81 q 489 -116 453 -92 q 525 -187 525 -140 q 465 -278 525 -247 q 296 -314 406 -308 z "},"Ṭ":{"ha":833,"x_min":57,"x_max":776,"o":"m 358 0 l 358 813 l 57 813 l 57 911 l 776 911 l 776 813 l 475 813 l 475 0 l 358 0 z "},"Ṯ":{"ha":833,"x_min":57,"x_max":776,"o":"m 358 0 l 358 813 l 57 813 l 57 911 l 776 911 l 776 813 l 475 813 l 475 0 l 358 0 z "},"Ŧ":{"ha":833,"x_min":57,"x_max":776,"o":"m 161 425 l 161 506 l 286 511 l 672 511 l 672 425 l 161 425 m 358 0 l 358 813 l 57 813 l 57 911 l 776 911 l 776 813 l 475 813 l 475 0 l 358 0 z "},"Ù":{"ha":833,"x_min":110,"x_max":724,"o":"m 418 -17 q 294 3 351 -17 q 197 66 238 24 q 133 178 156 108 q 110 344 110 247 l 110 911 l 228 911 l 228 342 q 253 192 228 247 q 321 111 278 136 q 418 86 364 86 q 516 111 472 86 q 585 192 560 136 q 611 342 611 247 l 611 911 l 724 911 l 724 344 q 701 178 724 247 q 638 66 679 108 q 540 3 596 24 q 418 -17 485 -17 m 457 968 l 246 1128 l 311 1206 l 508 1026 l 457 968 z "},"Ú":{"ha":833,"x_min":110,"x_max":724,"o":"m 418 -17 q 294 3 351 -17 q 197 66 238 24 q 133 178 156 108 q 110 344 110 247 l 110 911 l 228 911 l 228 342 q 253 192 228 247 q 321 111 278 136 q 418 86 364 86 q 516 111 472 86 q 585 192 560 136 q 611 342 611 247 l 611 911 l 724 911 l 724 344 q 701 178 724 247 q 638 66 679 108 q 540 3 596 24 q 418 -17 485 -17 m 376 968 l 325 1026 l 522 1206 l 588 1128 l 376 968 z "},"Û":{"ha":833,"x_min":110,"x_max":724,"o":"m 418 -17 q 294 3 351 -17 q 197 66 238 24 q 133 178 156 108 q 110 344 110 247 l 110 911 l 228 911 l 228 342 q 253 192 228 247 q 321 111 278 136 q 418 86 364 86 q 516 111 472 86 q 585 192 560 136 q 611 342 611 247 l 611 911 l 724 911 l 724 344 q 701 178 724 247 q 638 66 679 108 q 540 3 596 24 q 418 -17 485 -17 m 261 971 l 211 1007 l 356 1164 l 478 1164 l 622 1007 l 572 971 l 419 1099 l 414 1099 l 261 971 z "},"Ũ":{"ha":833,"x_min":110,"x_max":724,"o":"m 418 -17 q 294 3 351 -17 q 197 66 238 24 q 133 178 156 108 q 110 344 110 247 l 110 911 l 228 911 l 228 342 q 253 192 228 247 q 321 111 278 136 q 418 86 364 86 q 516 111 472 86 q 585 192 560 136 q 611 342 611 247 l 611 911 l 724 911 l 724 344 q 701 178 724 247 q 638 66 679 108 q 540 3 596 24 q 418 -17 485 -17 m 521 985 q 453 999 482 985 q 403 1033 425 1014 q 361 1067 382 1053 q 315 1082 340 1082 q 271 1059 289 1082 q 249 992 253 1036 l 171 997 q 212 1123 174 1078 q 313 1168 250 1168 q 380 1153 351 1168 q 430 1119 408 1139 q 472 1084 451 1099 q 518 1069 493 1069 q 562 1093 544 1069 q 585 1161 579 1117 l 663 1156 q 622 1030 660 1075 q 521 985 583 985 z "},"Ü":{"ha":833,"x_min":110,"x_max":724,"o":"m 418 -17 q 294 3 351 -17 q 197 66 238 24 q 133 178 156 108 q 110 344 110 247 l 110 911 l 228 911 l 228 342 q 253 192 228 247 q 321 111 278 136 q 418 86 364 86 q 516 111 472 86 q 585 192 560 136 q 611 342 611 247 l 611 911 l 724 911 l 724 344 q 701 178 724 247 q 638 66 679 108 q 540 3 596 24 q 418 -17 485 -17 m 289 993 q 239 1013 258 993 q 219 1064 219 1033 q 239 1115 219 1094 q 289 1135 258 1135 q 340 1115 319 1135 q 360 1064 360 1094 q 340 1013 360 1033 q 289 993 319 993 m 544 993 q 494 1013 514 993 q 474 1064 474 1033 q 494 1115 474 1094 q 544 1135 514 1135 q 594 1115 575 1135 q 614 1064 614 1094 q 594 1013 614 1033 q 544 993 575 993 z "},"Ū":{"ha":833,"x_min":110,"x_max":724,"o":"m 418 -17 q 294 3 351 -17 q 197 66 238 24 q 133 178 156 108 q 110 344 110 247 l 110 911 l 228 911 l 228 342 q 253 192 228 247 q 321 111 278 136 q 418 86 364 86 q 516 111 472 86 q 585 192 560 136 q 611 342 611 247 l 611 911 l 724 911 l 724 344 q 701 178 724 247 q 638 66 679 108 q 540 3 596 24 q 418 -17 485 -17 m 231 1021 l 231 1101 l 603 1101 l 603 1021 l 231 1021 z "},"Ŭ":{"ha":833,"x_min":110,"x_max":724,"o":"m 418 -17 q 294 3 351 -17 q 197 66 238 24 q 133 178 156 108 q 110 344 110 247 l 110 911 l 228 911 l 228 342 q 253 192 228 247 q 321 111 278 136 q 418 86 364 86 q 516 111 472 86 q 585 192 560 136 q 611 342 611 247 l 611 911 l 724 911 l 724 344 q 701 178 724 247 q 638 66 679 108 q 540 3 596 24 q 418 -17 485 -17 m 417 979 q 310 1003 353 979 q 243 1069 267 1028 q 214 1158 219 1110 l 283 1169 q 324 1087 292 1121 q 417 1053 357 1053 q 509 1087 476 1053 q 550 1169 542 1121 l 619 1158 q 590 1069 614 1110 q 524 1003 567 1028 q 417 979 481 979 z "},"Ů":{"ha":833,"x_min":110,"x_max":724,"o":"m 418 -17 q 294 3 351 -17 q 197 66 238 24 q 133 178 156 108 q 110 344 110 247 l 110 911 l 228 911 l 228 342 q 253 192 228 247 q 321 111 278 136 q 418 86 364 86 q 516 111 472 86 q 585 192 560 136 q 611 342 611 247 l 611 911 l 724 911 l 724 344 q 701 178 724 247 q 638 66 679 108 q 540 3 596 24 q 418 -17 485 -17 m 417 971 q 320 1005 358 971 q 282 1096 282 1039 q 320 1188 282 1153 q 417 1222 358 1222 q 513 1188 474 1222 q 551 1096 551 1153 q 513 1005 551 1039 q 417 971 474 971 m 417 1021 q 466 1041 444 1021 q 488 1096 488 1061 q 466 1151 488 1131 q 417 1171 444 1171 q 365 1151 386 1171 q 344 1096 344 1131 q 365 1041 344 1061 q 417 1021 386 1021 z "},"Ű":{"ha":833,"x_min":110,"x_max":724,"o":"m 418 -17 q 294 3 351 -17 q 197 66 238 24 q 133 178 156 108 q 110 344 110 247 l 110 911 l 228 911 l 228 342 q 253 192 228 247 q 321 111 278 136 q 418 86 364 86 q 516 111 472 86 q 585 192 560 136 q 611 342 611 247 l 611 911 l 724 911 l 724 344 q 701 178 724 247 q 638 66 679 108 q 540 3 596 24 q 418 -17 485 -17 m 317 976 l 257 1006 l 385 1217 l 464 1172 l 317 976 m 540 976 l 479 1006 l 608 1217 l 686 1172 l 540 976 z "},"Ǔ":{"ha":833,"x_min":110,"x_max":724,"o":"m 418 -17 q 294 3 351 -17 q 197 66 238 24 q 133 178 156 108 q 110 344 110 247 l 110 911 l 228 911 l 228 342 q 253 192 228 247 q 321 111 278 136 q 418 86 364 86 q 516 111 472 86 q 585 192 560 136 q 611 342 611 247 l 611 911 l 724 911 l 724 344 q 701 178 724 247 q 638 66 679 108 q 540 3 596 24 q 418 -17 485 -17 m 356 981 l 211 1138 l 261 1174 l 414 1046 l 419 1046 l 572 1174 l 622 1138 l 478 981 l 356 981 z "},"Ų":{"ha":833,"x_min":110,"x_max":724,"o":"m 442 -312 q 340 -281 381 -312 q 299 -186 299 -250 q 314 -115 299 -147 q 351 -57 329 -82 q 392 -15 372 -32 q 242 30 306 -10 q 144 147 178 69 q 110 344 110 225 l 110 911 l 228 911 l 228 342 q 252 192 228 247 q 319 111 276 136 q 417 86 361 86 q 516 111 472 86 q 585 192 560 136 q 611 342 611 247 l 611 911 l 724 911 l 724 344 q 702 180 724 247 q 638 69 681 113 q 532 0 594 25 q 447 -49 478 -22 q 402 -105 415 -76 q 389 -160 389 -133 q 413 -215 389 -197 q 465 -232 436 -232 q 503 -222 486 -232 q 533 -201 521 -212 l 568 -262 q 513 -298 544 -283 q 442 -312 481 -312 z "},"Ǖ":{"ha":833,"x_min":110,"x_max":724,"o":"m 418 -17 q 294 3 351 -17 q 197 66 238 24 q 133 178 156 108 q 110 344 110 247 l 110 911 l 228 911 l 228 342 q 253 192 228 247 q 321 111 278 136 q 418 86 364 86 q 516 111 472 86 q 585 192 560 136 q 611 342 611 247 l 611 911 l 724 911 l 724 344 q 701 178 724 247 q 638 66 679 108 q 540 3 596 24 q 418 -17 485 -17 m 274 993 q 229 1011 247 993 q 211 1057 211 1029 q 229 1101 211 1083 q 274 1119 247 1119 q 319 1101 300 1119 q 338 1057 338 1083 q 319 1011 338 1029 q 274 993 300 993 m 560 993 q 515 1011 533 993 q 496 1057 496 1029 q 515 1101 496 1083 q 560 1119 533 1119 q 604 1101 586 1119 q 622 1057 622 1083 q 604 1011 622 1029 q 560 993 586 993 m 231 1196 l 231 1261 l 603 1261 l 603 1196 l 231 1196 z "},"Ǘ":{"ha":833,"x_min":110,"x_max":724,"o":"m 418 -17 q 294 3 351 -17 q 197 66 238 24 q 133 178 156 108 q 110 344 110 247 l 110 911 l 228 911 l 228 342 q 253 192 228 247 q 321 111 278 136 q 418 86 364 86 q 516 111 472 86 q 585 192 560 136 q 611 342 611 247 l 611 911 l 724 911 l 724 344 q 701 178 724 247 q 638 66 679 108 q 540 3 596 24 q 418 -17 485 -17 m 274 993 q 229 1011 247 993 q 211 1057 211 1029 q 229 1101 211 1083 q 274 1119 247 1119 q 319 1101 300 1119 q 338 1057 338 1083 q 319 1011 338 1029 q 274 993 300 993 m 560 993 q 515 1011 533 993 q 496 1057 496 1029 q 515 1101 496 1083 q 560 1119 533 1119 q 604 1101 586 1119 q 622 1057 622 1083 q 604 1011 622 1029 q 560 993 586 993 m 415 1143 l 364 1179 l 496 1346 l 569 1294 l 415 1143 z "},"Ǚ":{"ha":833,"x_min":110,"x_max":724,"o":"m 418 -17 q 294 3 351 -17 q 197 66 238 24 q 133 178 156 108 q 110 344 110 247 l 110 911 l 228 911 l 228 342 q 253 192 228 247 q 321 111 278 136 q 418 86 364 86 q 516 111 472 86 q 585 192 560 136 q 611 342 611 247 l 611 911 l 724 911 l 724 344 q 701 178 724 247 q 638 66 679 108 q 540 3 596 24 q 418 -17 485 -17 m 274 993 q 229 1011 247 993 q 211 1057 211 1029 q 229 1101 211 1083 q 274 1119 247 1119 q 319 1101 300 1119 q 338 1057 338 1083 q 319 1011 338 1029 q 274 993 300 993 m 560 993 q 515 1011 533 993 q 496 1057 496 1029 q 515 1101 496 1083 q 560 1119 533 1119 q 604 1101 586 1119 q 622 1057 622 1083 q 604 1011 622 1029 q 560 993 586 993 m 367 1165 l 228 1299 l 275 1338 l 414 1232 l 419 1232 l 558 1338 l 606 1299 l 467 1165 l 367 1165 z "},"Ǜ":{"ha":833,"x_min":110,"x_max":724,"o":"m 418 -17 q 294 3 351 -17 q 197 66 238 24 q 133 178 156 108 q 110 344 110 247 l 110 911 l 228 911 l 228 342 q 253 192 228 247 q 321 111 278 136 q 418 86 364 86 q 516 111 472 86 q 585 192 560 136 q 611 342 611 247 l 611 911 l 724 911 l 724 344 q 701 178 724 247 q 638 66 679 108 q 540 3 596 24 q 418 -17 485 -17 m 274 993 q 229 1011 247 993 q 211 1057 211 1029 q 229 1101 211 1083 q 274 1119 247 1119 q 319 1101 300 1119 q 338 1057 338 1083 q 319 1011 338 1029 q 274 993 300 993 m 560 993 q 515 1011 533 993 q 496 1057 496 1029 q 515 1101 496 1083 q 560 1119 533 1119 q 604 1101 586 1119 q 622 1057 622 1083 q 604 1011 622 1029 q 560 993 586 993 m 418 1143 l 264 1294 l 338 1346 l 469 1179 l 418 1143 z "},"Ụ":{"ha":833,"x_min":110,"x_max":724,"o":"m 418 -17 q 294 3 351 -17 q 197 66 238 24 q 133 178 156 108 q 110 344 110 247 l 110 911 l 228 911 l 228 342 q 253 192 228 247 q 321 111 278 136 q 418 86 364 86 q 516 111 472 86 q 585 192 560 136 q 611 342 611 247 l 611 911 l 724 911 l 724 344 q 701 178 724 247 q 638 66 679 108 q 540 3 596 24 q 418 -17 485 -17 z "},"Ủ":{"ha":833,"x_min":110,"x_max":724,"o":"m 418 -17 q 294 3 351 -17 q 197 66 238 24 q 133 178 156 108 q 110 344 110 247 l 110 911 l 228 911 l 228 342 q 253 192 228 247 q 321 111 278 136 q 418 86 364 86 q 516 111 472 86 q 585 192 560 136 q 611 342 611 247 l 611 911 l 724 911 l 724 344 q 701 178 724 247 q 638 66 679 108 q 540 3 596 24 q 418 -17 485 -17 m 372 969 l 360 1022 q 415 1046 393 1032 q 438 1086 438 1060 q 409 1128 438 1114 q 322 1144 381 1142 l 335 1211 q 439 1196 396 1208 q 504 1158 482 1183 q 526 1099 526 1133 q 505 1032 526 1058 q 448 991 483 1006 q 372 969 413 976 z "},"Ư":{"ha":833,"x_min":110,"x_max":876,"o":"m 721 861 l 657 911 q 720 928 694 917 q 759 964 746 940 q 772 1026 772 988 q 767 1069 772 1047 q 753 1107 761 1090 l 843 1146 q 867 1094 858 1122 q 876 1035 876 1067 q 856 946 876 981 q 799 891 835 911 q 721 861 764 871 m 418 -17 q 294 3 351 -17 q 197 66 238 24 q 133 178 156 108 q 110 344 110 247 l 110 911 l 228 911 l 228 342 q 253 192 228 247 q 321 111 278 136 q 418 86 364 86 q 516 111 472 86 q 585 192 560 136 q 611 342 611 247 l 611 911 l 724 911 l 724 344 q 701 178 724 247 q 638 66 679 108 q 540 3 596 24 q 418 -17 485 -17 z "},"Ứ":{"ha":833,"x_min":110,"x_max":876,"o":"m 721 861 l 657 911 q 720 928 694 917 q 759 964 746 940 q 772 1026 772 988 q 767 1069 772 1047 q 753 1107 761 1090 l 843 1146 q 867 1094 858 1122 q 876 1035 876 1067 q 856 946 876 981 q 799 891 835 911 q 721 861 764 871 m 418 -17 q 294 3 351 -17 q 197 66 238 24 q 133 178 156 108 q 110 344 110 247 l 110 911 l 228 911 l 228 342 q 253 192 228 247 q 321 111 278 136 q 418 86 364 86 q 516 111 472 86 q 585 192 560 136 q 611 342 611 247 l 611 911 l 724 911 l 724 344 q 701 178 724 247 q 638 66 679 108 q 540 3 596 24 q 418 -17 485 -17 m 376 968 l 325 1026 l 522 1206 l 588 1128 l 376 968 z "},"Ừ":{"ha":833,"x_min":110,"x_max":876,"o":"m 721 861 l 657 911 q 720 928 694 917 q 759 964 746 940 q 772 1026 772 988 q 767 1069 772 1047 q 753 1107 761 1090 l 843 1146 q 867 1094 858 1122 q 876 1035 876 1067 q 856 946 876 981 q 799 891 835 911 q 721 861 764 871 m 418 -17 q 294 3 351 -17 q 197 66 238 24 q 133 178 156 108 q 110 344 110 247 l 110 911 l 228 911 l 228 342 q 253 192 228 247 q 321 111 278 136 q 418 86 364 86 q 516 111 472 86 q 585 192 560 136 q 611 342 611 247 l 611 911 l 724 911 l 724 344 q 701 178 724 247 q 638 66 679 108 q 540 3 596 24 q 418 -17 485 -17 m 457 968 l 246 1128 l 311 1206 l 508 1026 l 457 968 z "},"Ử":{"ha":833,"x_min":110,"x_max":876,"o":"m 721 861 l 657 911 q 720 928 694 917 q 759 964 746 940 q 772 1026 772 988 q 767 1069 772 1047 q 753 1107 761 1090 l 843 1146 q 867 1094 858 1122 q 876 1035 876 1067 q 856 946 876 981 q 799 891 835 911 q 721 861 764 871 m 418 -17 q 294 3 351 -17 q 197 66 238 24 q 133 178 156 108 q 110 344 110 247 l 110 911 l 228 911 l 228 342 q 253 192 228 247 q 321 111 278 136 q 418 86 364 86 q 516 111 472 86 q 585 192 560 136 q 611 342 611 247 l 611 911 l 724 911 l 724 344 q 701 178 724 247 q 638 66 679 108 q 540 3 596 24 q 418 -17 485 -17 m 372 969 l 360 1022 q 415 1046 393 1032 q 438 1086 438 1060 q 409 1128 438 1114 q 322 1144 381 1142 l 335 1211 q 439 1196 396 1208 q 504 1158 482 1183 q 526 1099 526 1133 q 505 1032 526 1058 q 448 991 483 1006 q 372 969 413 976 z "},"Ữ":{"ha":833,"x_min":110,"x_max":876,"o":"m 721 861 l 657 911 q 720 928 694 917 q 759 964 746 940 q 772 1026 772 988 q 767 1069 772 1047 q 753 1107 761 1090 l 843 1146 q 867 1094 858 1122 q 876 1035 876 1067 q 856 946 876 981 q 799 891 835 911 q 721 861 764 871 m 418 -17 q 294 3 351 -17 q 197 66 238 24 q 133 178 156 108 q 110 344 110 247 l 110 911 l 228 911 l 228 342 q 253 192 228 247 q 321 111 278 136 q 418 86 364 86 q 516 111 472 86 q 585 192 560 136 q 611 342 611 247 l 611 911 l 724 911 l 724 344 q 701 178 724 247 q 638 66 679 108 q 540 3 596 24 q 418 -17 485 -17 m 521 985 q 453 999 482 985 q 403 1033 425 1014 q 361 1067 382 1053 q 315 1082 340 1082 q 271 1059 289 1082 q 249 992 253 1036 l 171 997 q 212 1123 174 1078 q 313 1168 250 1168 q 380 1153 351 1168 q 430 1119 408 1139 q 472 1084 451 1099 q 518 1069 493 1069 q 562 1093 544 1069 q 585 1161 579 1117 l 663 1156 q 622 1030 660 1075 q 521 985 583 985 z "},"Ự":{"ha":833,"x_min":110,"x_max":876,"o":"m 721 861 l 657 911 q 720 928 694 917 q 759 964 746 940 q 772 1026 772 988 q 767 1069 772 1047 q 753 1107 761 1090 l 843 1146 q 867 1094 858 1122 q 876 1035 876 1067 q 856 946 876 981 q 799 891 835 911 q 721 861 764 871 m 418 -17 q 294 3 351 -17 q 197 66 238 24 q 133 178 156 108 q 110 344 110 247 l 110 911 l 228 911 l 228 342 q 253 192 228 247 q 321 111 278 136 q 418 86 364 86 q 516 111 472 86 q 585 192 560 136 q 611 342 611 247 l 611 911 l 724 911 l 724 344 q 701 178 724 247 q 638 66 679 108 q 540 3 596 24 q 418 -17 485 -17 z "},"Ṿ":{"ha":833,"x_min":58,"x_max":775,"o":"m 350 0 l 58 911 l 183 911 l 329 419 q 372 269 353 339 q 417 119 392 199 l 422 119 q 467 269 447 199 q 510 419 486 339 l 656 911 l 775 911 l 486 0 l 350 0 z "},"Ẁ":{"ha":833,"x_min":14,"x_max":819,"o":"m 153 0 l 14 913 l 144 913 l 211 340 q 219 272 215 303 q 225 208 222 240 q 229 129 228 175 l 233 129 q 249 208 242 175 q 263 271 256 240 q 278 339 269 301 l 367 678 l 478 678 l 564 339 q 581 271 574 301 q 594 208 588 240 q 608 129 600 175 l 614 129 q 619 208 617 175 q 624 271 621 240 q 631 339 626 301 l 694 913 l 819 913 l 686 0 l 542 0 l 453 367 q 433 449 442 408 q 419 531 425 489 l 415 531 q 401 449 408 489 q 383 367 394 408 l 294 0 l 153 0 m 457 968 l 246 1128 l 311 1206 l 508 1026 l 457 968 z "},"Ẃ":{"ha":833,"x_min":14,"x_max":819,"o":"m 153 0 l 14 913 l 144 913 l 211 340 q 219 272 215 303 q 225 208 222 240 q 229 129 228 175 l 233 129 q 249 208 242 175 q 263 271 256 240 q 278 339 269 301 l 367 678 l 478 678 l 564 339 q 581 271 574 301 q 594 208 588 240 q 608 129 600 175 l 614 129 q 619 208 617 175 q 624 271 621 240 q 631 339 626 301 l 694 913 l 819 913 l 686 0 l 542 0 l 453 367 q 433 449 442 408 q 419 531 425 489 l 415 531 q 401 449 408 489 q 383 367 394 408 l 294 0 l 153 0 m 376 968 l 325 1026 l 522 1206 l 588 1128 l 376 968 z "},"Ŵ":{"ha":833,"x_min":14,"x_max":819,"o":"m 153 0 l 14 913 l 144 913 l 211 340 q 219 272 215 303 q 225 208 222 240 q 229 129 228 175 l 233 129 q 249 208 242 175 q 263 271 256 240 q 278 339 269 301 l 367 678 l 478 678 l 564 339 q 581 271 574 301 q 594 208 588 240 q 608 129 600 175 l 614 129 q 619 208 617 175 q 624 271 621 240 q 631 339 626 301 l 694 913 l 819 913 l 686 0 l 542 0 l 453 367 q 433 449 442 408 q 419 531 425 489 l 415 531 q 401 449 408 489 q 383 367 394 408 l 294 0 l 153 0 m 261 971 l 211 1007 l 356 1164 l 478 1164 l 622 1007 l 572 971 l 419 1099 l 414 1099 l 261 971 z "},"Ẅ":{"ha":833,"x_min":14,"x_max":819,"o":"m 153 0 l 14 913 l 144 913 l 211 340 q 219 272 215 303 q 225 208 222 240 q 229 129 228 175 l 233 129 q 249 208 242 175 q 263 271 256 240 q 278 339 269 301 l 367 678 l 478 678 l 564 339 q 581 271 574 301 q 594 208 588 240 q 608 129 600 175 l 614 129 q 619 208 617 175 q 624 271 621 240 q 631 339 626 301 l 694 913 l 819 913 l 686 0 l 542 0 l 453 367 q 433 449 442 408 q 419 531 425 489 l 415 531 q 401 449 408 489 q 383 367 394 408 l 294 0 l 153 0 m 289 993 q 239 1013 258 993 q 219 1064 219 1033 q 239 1115 219 1094 q 289 1135 258 1135 q 340 1115 319 1135 q 360 1064 360 1094 q 340 1013 360 1033 q 289 993 319 993 m 544 993 q 494 1013 514 993 q 474 1064 474 1033 q 494 1115 474 1094 q 544 1135 514 1135 q 594 1115 575 1135 q 614 1064 614 1094 q 594 1013 614 1033 q 544 993 575 993 z "},"Ỳ":{"ha":833,"x_min":53,"x_max":781,"o":"m 358 0 l 358 325 l 53 911 l 176 911 l 313 642 q 364 536 339 589 q 417 429 389 483 l 422 429 q 476 536 450 483 q 529 642 503 589 l 661 911 l 781 911 l 475 325 l 475 0 l 358 0 m 457 968 l 246 1128 l 311 1206 l 508 1026 l 457 968 z "},"Ý":{"ha":833,"x_min":53,"x_max":781,"o":"m 358 0 l 358 325 l 53 911 l 176 911 l 313 642 q 364 536 339 589 q 417 429 389 483 l 422 429 q 476 536 450 483 q 529 642 503 589 l 661 911 l 781 911 l 475 325 l 475 0 l 358 0 m 376 968 l 325 1026 l 522 1206 l 588 1128 l 376 968 z "},"Ŷ":{"ha":833,"x_min":53,"x_max":781,"o":"m 358 0 l 358 325 l 53 911 l 176 911 l 313 642 q 364 536 339 589 q 417 429 389 483 l 422 429 q 476 536 450 483 q 529 642 503 589 l 661 911 l 781 911 l 475 325 l 475 0 l 358 0 m 261 971 l 211 1007 l 356 1164 l 478 1164 l 622 1007 l 572 971 l 419 1099 l 414 1099 l 261 971 z "},"Ÿ":{"ha":833,"x_min":53,"x_max":781,"o":"m 358 0 l 358 325 l 53 911 l 176 911 l 313 642 q 364 536 339 589 q 417 429 389 483 l 422 429 q 476 536 450 483 q 529 642 503 589 l 661 911 l 781 911 l 475 325 l 475 0 l 358 0 m 289 993 q 239 1013 258 993 q 219 1064 219 1033 q 239 1115 219 1094 q 289 1135 258 1135 q 340 1115 319 1135 q 360 1064 360 1094 q 340 1013 360 1033 q 289 993 319 993 m 544 993 q 494 1013 514 993 q 474 1064 474 1033 q 494 1115 474 1094 q 544 1135 514 1135 q 594 1115 575 1135 q 614 1064 614 1094 q 594 1013 614 1033 q 544 993 575 993 z "},"Ẏ":{"ha":833,"x_min":53,"x_max":781,"o":"m 358 0 l 358 325 l 53 911 l 176 911 l 313 642 q 364 536 339 589 q 417 429 389 483 l 422 429 q 476 536 450 483 q 529 642 503 589 l 661 911 l 781 911 l 475 325 l 475 0 l 358 0 m 417 992 q 358 1014 381 992 q 335 1071 335 1036 q 358 1128 335 1106 q 417 1150 381 1150 q 476 1128 453 1150 q 499 1071 499 1106 q 476 1014 499 1036 q 417 992 453 992 z "},"Ỵ":{"ha":833,"x_min":53,"x_max":781,"o":"m 358 0 l 358 325 l 53 911 l 176 911 l 313 642 q 364 536 339 589 q 417 429 389 483 l 422 429 q 476 536 450 483 q 529 642 503 589 l 661 911 l 781 911 l 475 325 l 475 0 l 358 0 z "},"Ỷ":{"ha":833,"x_min":53,"x_max":781,"o":"m 358 0 l 358 325 l 53 911 l 176 911 l 313 642 q 364 536 339 589 q 417 429 389 483 l 422 429 q 476 536 450 483 q 529 642 503 589 l 661 911 l 781 911 l 475 325 l 475 0 l 358 0 m 372 969 l 360 1022 q 415 1046 393 1032 q 438 1086 438 1060 q 409 1128 438 1114 q 322 1144 381 1142 l 335 1211 q 439 1196 396 1208 q 504 1158 482 1183 q 526 1099 526 1133 q 505 1032 526 1058 q 448 991 483 1006 q 372 969 413 976 z "},"Ỹ":{"ha":833,"x_min":53,"x_max":781,"o":"m 358 0 l 358 325 l 53 911 l 176 911 l 313 642 q 364 536 339 589 q 417 429 389 483 l 422 429 q 476 536 450 483 q 529 642 503 589 l 661 911 l 781 911 l 475 325 l 475 0 l 358 0 m 521 985 q 453 999 482 985 q 403 1033 425 1014 q 361 1067 382 1053 q 315 1082 340 1082 q 271 1059 289 1082 q 249 992 253 1036 l 171 997 q 212 1123 174 1078 q 313 1168 250 1168 q 380 1153 351 1168 q 430 1119 408 1139 q 472 1084 451 1099 q 518 1069 493 1069 q 562 1093 544 1069 q 585 1161 579 1117 l 663 1156 q 622 1030 660 1075 q 521 985 583 985 z "},"Ź":{"ha":833,"x_min":90,"x_max":749,"o":"m 90 0 l 90 71 l 597 814 l 135 814 l 135 913 l 742 913 l 742 842 l 233 99 l 749 99 l 749 0 l 90 0 m 400 968 l 349 1026 l 546 1206 l 611 1128 l 400 968 z "},"Ž":{"ha":833,"x_min":90,"x_max":749,"o":"m 90 0 l 90 71 l 597 814 l 135 814 l 135 913 l 742 913 l 742 842 l 233 99 l 749 99 l 749 0 l 90 0 m 379 981 l 235 1138 l 285 1174 l 438 1046 l 443 1046 l 596 1174 l 646 1138 l 501 981 l 379 981 z "},"Ż":{"ha":833,"x_min":90,"x_max":749,"o":"m 90 0 l 90 71 l 597 814 l 135 814 l 135 913 l 742 913 l 742 842 l 233 99 l 749 99 l 749 0 l 90 0 m 440 992 q 381 1014 404 992 q 358 1071 358 1036 q 381 1128 358 1106 q 440 1150 404 1150 q 499 1128 476 1150 q 522 1071 522 1106 q 499 1014 522 1036 q 440 992 476 992 z "},"Ẑ":{"ha":833,"x_min":90,"x_max":749,"o":"m 90 0 l 90 71 l 597 814 l 135 814 l 135 913 l 742 913 l 742 842 l 233 99 l 749 99 l 749 0 l 90 0 m 285 971 l 235 1007 l 379 1164 l 501 1164 l 646 1007 l 596 971 l 443 1099 l 438 1099 l 285 971 z "},"Ẓ":{"ha":833,"x_min":90,"x_max":749,"o":"m 90 0 l 90 71 l 597 814 l 135 814 l 135 913 l 742 913 l 742 842 l 233 99 l 749 99 l 749 0 l 90 0 z "},"Ẕ":{"ha":833,"x_min":90,"x_max":749,"o":"m 90 0 l 90 71 l 597 814 l 135 814 l 135 913 l 742 913 l 742 842 l 233 99 l 749 99 l 749 0 l 90 0 z "},"Ð":{"ha":833,"x_min":17,"x_max":768,"o":"m 121 0 l 121 436 l 17 436 l 17 514 l 121 522 l 121 911 l 346 911 q 577 858 483 911 q 719 705 671 806 q 768 460 768 604 q 719 211 768 314 q 578 54 671 108 q 351 0 486 0 l 121 0 m 236 94 l 338 94 q 510 138 442 94 q 613 263 579 181 q 647 460 647 344 q 613 654 647 575 q 510 775 579 733 q 338 817 442 817 l 236 817 l 236 522 l 436 522 l 436 436 l 236 436 l 236 94 z "},"Þ":{"ha":833,"x_min":140,"x_max":757,"o":"m 140 0 l 140 911 l 257 911 l 257 758 l 421 758 q 597 733 522 758 q 715 648 672 707 q 757 490 757 589 q 715 332 757 394 q 596 239 672 269 q 421 208 519 208 l 257 208 l 257 0 l 140 0 m 257 303 l 406 303 q 583 347 525 303 q 640 490 640 392 q 582 626 640 589 q 406 664 524 664 l 257 664 l 257 303 z "},"Ə":{"ha":833,"x_min":82,"x_max":764,"o":"m 417 -17 q 239 42 314 -17 q 123 206 164 100 q 82 454 82 313 q 82 470 82 463 q 83 486 82 478 l 675 486 l 675 397 l 165 397 l 196 458 q 222 250 196 333 q 298 126 249 167 q 417 85 347 85 q 538 127 486 85 q 619 253 590 169 q 649 458 649 336 q 622 658 649 575 q 542 783 594 740 q 413 826 489 826 q 310 804 356 826 q 229 746 264 782 l 174 826 q 277 899 217 869 q 418 928 338 928 q 603 871 525 928 q 722 709 681 814 q 764 458 764 604 q 720 206 764 313 q 598 42 676 100 q 417 -17 519 -17 z "},"Ŋ":{"ha":833,"x_min":117,"x_max":763,"o":"m 525 -17 q 469 -12 499 -17 q 421 3 439 -7 l 450 108 q 478 99 463 103 q 513 94 493 94 q 579 127 550 94 q 625 240 608 160 q 642 465 642 321 q 616 681 642 603 q 544 792 590 760 q 438 825 499 825 q 366 808 403 825 q 294 761 329 790 q 235 696 260 732 l 235 0 l 117 0 l 117 911 l 231 911 l 231 804 q 298 867 261 839 q 376 911 335 894 q 463 928 418 928 q 617 883 549 928 q 724 738 685 839 q 763 465 763 636 q 734 184 763 290 q 653 31 706 78 q 525 -17 600 -17 z "},"Ĳ":{"ha":833,"x_min":154,"x_max":679,"o":"m 154 0 l 154 911 l 272 911 l 272 0 l 154 0 m 488 -229 q 429 -224 456 -229 q 385 -211 403 -218 l 407 -119 q 439 -128 422 -124 q 475 -132 456 -132 q 544 -97 528 -132 q 561 0 561 -61 l 561 911 l 679 911 l 679 -4 q 660 -123 679 -72 q 599 -201 642 -174 q 488 -229 557 -229 z "},"à":{"ha":833,"x_min":111,"x_max":717,"o":"m 342 -17 q 226 6 278 -17 q 142 72 174 29 q 111 175 111 114 q 226 348 111 289 q 601 428 340 407 q 582 512 600 474 q 526 574 564 550 q 422 597 488 597 q 336 585 378 597 q 256 555 294 574 q 186 517 217 536 l 140 594 q 223 639 175 617 q 327 676 271 661 q 442 692 383 692 q 594 657 533 692 q 686 560 656 622 q 717 414 717 497 l 717 0 l 621 0 l 611 92 l 607 92 q 482 15 551 47 q 342 -17 413 -17 m 372 76 q 486 102 429 76 q 601 176 543 128 l 601 351 q 375 317 457 340 q 259 261 293 294 q 225 183 225 228 q 246 122 225 144 q 300 88 267 99 q 372 76 333 76 m 474 789 l 256 1001 l 336 1079 l 533 846 l 474 789 z "},"á":{"ha":833,"x_min":111,"x_max":717,"o":"m 342 -17 q 226 6 278 -17 q 142 72 174 29 q 111 175 111 114 q 226 348 111 289 q 601 428 340 407 q 582 512 600 474 q 526 574 564 550 q 422 597 488 597 q 336 585 378 597 q 256 555 294 574 q 186 517 217 536 l 140 594 q 223 639 175 617 q 327 676 271 661 q 442 692 383 692 q 594 657 533 692 q 686 560 656 622 q 717 414 717 497 l 717 0 l 621 0 l 611 92 l 607 92 q 482 15 551 47 q 342 -17 413 -17 m 372 76 q 486 102 429 76 q 601 176 543 128 l 601 351 q 375 317 457 340 q 259 261 293 294 q 225 183 225 228 q 246 122 225 144 q 300 88 267 99 q 372 76 333 76 m 415 789 l 356 846 l 553 1079 l 633 1001 l 415 789 z "},"â":{"ha":833,"x_min":111,"x_max":717,"o":"m 342 -17 q 226 6 278 -17 q 142 72 174 29 q 111 175 111 114 q 226 348 111 289 q 601 428 340 407 q 582 512 600 474 q 526 574 564 550 q 422 597 488 597 q 336 585 378 597 q 256 555 294 574 q 186 517 217 536 l 140 594 q 223 639 175 617 q 327 676 271 661 q 442 692 383 692 q 594 657 533 692 q 686 560 656 622 q 717 414 717 497 l 717 0 l 621 0 l 611 92 l 607 92 q 482 15 551 47 q 342 -17 413 -17 m 372 76 q 486 102 429 76 q 601 176 543 128 l 601 351 q 375 317 457 340 q 259 261 293 294 q 225 183 225 228 q 246 122 225 144 q 300 88 267 99 q 372 76 333 76 m 278 789 l 229 833 l 386 1028 l 503 1028 l 660 833 l 611 789 l 447 946 l 442 946 l 278 789 z "},"ã":{"ha":833,"x_min":111,"x_max":717,"o":"m 342 -17 q 226 6 278 -17 q 142 72 174 29 q 111 175 111 114 q 226 348 111 289 q 601 428 340 407 q 582 512 600 474 q 526 574 564 550 q 422 597 488 597 q 336 585 378 597 q 256 555 294 574 q 186 517 217 536 l 140 594 q 223 639 175 617 q 327 676 271 661 q 442 692 383 692 q 594 657 533 692 q 686 560 656 622 q 717 414 717 497 l 717 0 l 621 0 l 611 92 l 607 92 q 482 15 551 47 q 342 -17 413 -17 m 372 76 q 486 102 429 76 q 601 176 543 128 l 601 351 q 375 317 457 340 q 259 261 293 294 q 225 183 225 228 q 246 122 225 144 q 300 88 267 99 q 372 76 333 76 m 544 801 q 481 819 507 801 q 433 860 454 836 q 390 901 411 883 q 346 918 369 918 q 299 888 314 918 q 281 808 283 857 l 204 813 q 221 909 206 867 q 267 976 236 951 q 344 1001 297 1001 q 408 984 382 1001 q 457 943 435 967 q 499 902 479 919 q 544 885 519 885 q 590 916 575 885 q 608 994 606 947 l 685 989 q 668 893 683 936 q 622 826 653 850 q 544 801 592 801 z "},"ä":{"ha":833,"x_min":111,"x_max":717,"o":"m 342 -17 q 226 6 278 -17 q 142 72 174 29 q 111 175 111 114 q 226 348 111 289 q 601 428 340 407 q 582 512 600 474 q 526 574 564 550 q 422 597 488 597 q 336 585 378 597 q 256 555 294 574 q 186 517 217 536 l 140 594 q 223 639 175 617 q 327 676 271 661 q 442 692 383 692 q 594 657 533 692 q 686 560 656 622 q 717 414 717 497 l 717 0 l 621 0 l 611 92 l 607 92 q 482 15 551 47 q 342 -17 413 -17 m 372 76 q 486 102 429 76 q 601 176 543 128 l 601 351 q 375 317 457 340 q 259 261 293 294 q 225 183 225 228 q 246 122 225 144 q 300 88 267 99 q 372 76 333 76 m 310 817 q 254 839 275 817 q 233 894 233 861 q 254 950 233 928 q 310 972 275 972 q 365 950 343 972 q 386 894 386 928 q 365 839 386 861 q 310 817 343 817 m 579 817 q 524 839 546 817 q 503 894 503 861 q 524 950 503 928 q 579 972 546 972 q 635 950 614 972 q 656 894 656 928 q 635 839 656 861 q 579 817 614 817 z "},"ā":{"ha":833,"x_min":111,"x_max":717,"o":"m 342 -17 q 226 6 278 -17 q 142 72 174 29 q 111 175 111 114 q 226 348 111 289 q 601 428 340 407 q 582 512 600 474 q 526 574 564 550 q 422 597 488 597 q 336 585 378 597 q 256 555 294 574 q 186 517 217 536 l 140 594 q 223 639 175 617 q 327 676 271 661 q 442 692 383 692 q 594 657 533 692 q 686 560 656 622 q 717 414 717 497 l 717 0 l 621 0 l 611 92 l 607 92 q 482 15 551 47 q 342 -17 413 -17 m 372 76 q 486 102 429 76 q 601 176 543 128 l 601 351 q 375 317 457 340 q 259 261 293 294 q 225 183 225 228 q 246 122 225 144 q 300 88 267 99 q 372 76 333 76 m 260 835 l 260 914 l 629 914 l 629 835 l 260 835 z "},"ă":{"ha":833,"x_min":111,"x_max":717,"o":"m 342 -17 q 226 6 278 -17 q 142 72 174 29 q 111 175 111 114 q 226 348 111 289 q 601 428 340 407 q 582 512 600 474 q 526 574 564 550 q 422 597 488 597 q 336 585 378 597 q 256 555 294 574 q 186 517 217 536 l 140 594 q 223 639 175 617 q 327 676 271 661 q 442 692 383 692 q 594 657 533 692 q 686 560 656 622 q 717 414 717 497 l 717 0 l 621 0 l 611 92 l 607 92 q 482 15 551 47 q 342 -17 413 -17 m 372 76 q 486 102 429 76 q 601 176 543 128 l 601 351 q 375 317 457 340 q 259 261 293 294 q 225 183 225 228 q 246 122 225 144 q 300 88 267 99 q 372 76 333 76 m 444 793 q 324 824 369 793 q 254 903 278 856 q 228 1003 231 951 l 300 1014 q 322 945 306 978 q 369 892 339 913 q 444 871 400 871 q 519 892 489 871 q 567 945 550 913 q 589 1014 583 978 l 661 1003 q 635 903 658 951 q 565 824 611 856 q 444 793 519 793 z "},"å":{"ha":833,"x_min":111,"x_max":717,"o":"m 342 -17 q 226 6 278 -17 q 142 72 174 29 q 111 175 111 114 q 226 348 111 289 q 601 428 340 407 q 582 512 600 474 q 526 574 564 550 q 422 597 488 597 q 336 585 378 597 q 256 555 294 574 q 186 517 217 536 l 140 594 q 223 639 175 617 q 327 676 271 661 q 442 692 383 692 q 594 657 533 692 q 686 560 656 622 q 717 414 717 497 l 717 0 l 621 0 l 611 92 l 607 92 q 482 15 551 47 q 342 -17 413 -17 m 372 76 q 486 102 429 76 q 601 176 543 128 l 601 351 q 375 317 457 340 q 259 261 293 294 q 225 183 225 228 q 246 122 225 144 q 300 88 267 99 q 372 76 333 76 m 444 790 q 332 828 372 790 q 292 924 292 867 q 332 1019 292 981 q 444 1057 372 1057 q 557 1019 517 1057 q 597 924 597 981 q 557 828 597 867 q 444 790 517 790 m 444 842 q 501 865 478 842 q 524 924 524 889 q 501 982 524 958 q 444 1006 478 1006 q 388 982 411 1006 q 365 924 365 958 q 388 865 365 889 q 444 842 411 842 z "},"ǻ":{"ha":833,"x_min":111,"x_max":717,"o":"m 400 1010 l 347 1029 l 542 1171 l 590 1101 l 400 1010 m 342 -17 q 226 6 278 -17 q 142 72 174 29 q 111 175 111 114 q 226 348 111 289 q 601 428 340 407 q 582 512 600 474 q 526 574 564 550 q 422 597 488 597 q 336 585 378 597 q 256 555 294 574 q 186 517 217 536 l 140 594 q 223 639 175 617 q 327 676 271 661 q 442 692 383 692 q 594 657 533 692 q 686 560 656 622 q 717 414 717 497 l 717 0 l 621 0 l 611 92 l 607 92 q 482 15 551 47 q 342 -17 413 -17 m 372 76 q 486 102 429 76 q 601 176 543 128 l 601 351 q 375 317 457 340 q 259 261 293 294 q 225 183 225 228 q 246 122 225 144 q 300 88 267 99 q 372 76 333 76 m 444 790 q 332 828 372 790 q 292 924 292 867 q 332 1019 292 981 q 444 1057 372 1057 q 557 1019 517 1057 q 597 924 597 981 q 557 828 597 867 q 444 790 517 790 m 444 842 q 501 865 478 842 q 524 924 524 889 q 501 982 524 958 q 444 1006 478 1006 q 388 982 411 1006 q 365 924 365 958 q 388 865 365 889 q 444 842 411 842 z "},"ǎ":{"ha":833,"x_min":111,"x_max":717,"o":"m 342 -17 q 226 6 278 -17 q 142 72 174 29 q 111 175 111 114 q 226 348 111 289 q 601 428 340 407 q 582 512 600 474 q 526 574 564 550 q 422 597 488 597 q 336 585 378 597 q 256 555 294 574 q 186 517 217 536 l 140 594 q 223 639 175 617 q 327 676 271 661 q 442 692 383 692 q 594 657 533 692 q 686 560 656 622 q 717 414 717 497 l 717 0 l 621 0 l 611 92 l 607 92 q 482 15 551 47 q 342 -17 413 -17 m 372 76 q 486 102 429 76 q 601 176 543 128 l 601 351 q 375 317 457 340 q 259 261 293 294 q 225 183 225 228 q 246 122 225 144 q 300 88 267 99 q 372 76 333 76 m 386 797 l 229 992 l 278 1036 l 442 879 l 447 879 l 611 1036 l 660 992 l 503 797 l 386 797 z "},"ą":{"ha":833,"x_min":111,"x_max":763,"o":"m 633 -312 q 531 -281 572 -312 q 490 -183 490 -249 q 508 -107 490 -142 q 556 -44 525 -72 q 622 7 586 -15 l 611 92 l 607 92 q 482 15 551 47 q 342 -17 413 -17 q 226 6 278 -17 q 142 72 174 29 q 111 175 111 114 q 226 348 111 289 q 601 428 340 407 q 582 512 600 474 q 526 574 564 550 q 422 597 488 597 q 336 585 378 597 q 256 555 294 574 q 186 517 217 536 l 140 594 q 223 639 175 617 q 327 676 271 661 q 442 692 383 692 q 594 657 533 692 q 686 560 656 622 q 717 414 717 497 l 717 0 q 608 -75 640 -33 q 575 -161 575 -117 q 600 -219 575 -200 q 657 -237 625 -237 q 699 -228 681 -237 q 729 -208 717 -219 l 763 -262 q 706 -299 739 -286 q 633 -312 672 -312 m 372 76 q 486 102 429 76 q 601 176 543 128 l 601 351 q 375 317 457 340 q 259 261 293 294 q 225 183 225 228 q 246 122 225 144 q 300 88 267 99 q 372 76 333 76 z "},"ạ":{"ha":833,"x_min":111,"x_max":717,"o":"m 342 -17 q 226 6 278 -17 q 142 72 174 29 q 111 175 111 114 q 226 348 111 289 q 601 428 340 407 q 582 512 600 474 q 526 574 564 550 q 422 597 488 597 q 336 585 378 597 q 256 555 294 574 q 186 517 217 536 l 140 594 q 223 639 175 617 q 327 676 271 661 q 442 692 383 692 q 594 657 533 692 q 686 560 656 622 q 717 414 717 497 l 717 0 l 621 0 l 611 92 l 607 92 q 482 15 551 47 q 342 -17 413 -17 m 372 76 q 486 102 429 76 q 601 176 543 128 l 601 351 q 375 317 457 340 q 259 261 293 294 q 225 183 225 228 q 246 122 225 144 q 300 88 267 99 q 372 76 333 76 z "},"ả":{"ha":833,"x_min":111,"x_max":717,"o":"m 342 -17 q 226 6 278 -17 q 142 72 174 29 q 111 175 111 114 q 226 348 111 289 q 601 428 340 407 q 582 512 600 474 q 526 574 564 550 q 422 597 488 597 q 336 585 378 597 q 256 555 294 574 q 186 517 217 536 l 140 594 q 223 639 175 617 q 327 676 271 661 q 442 692 383 692 q 594 657 533 692 q 686 560 656 622 q 717 414 717 497 l 717 0 l 621 0 l 611 92 l 607 92 q 482 15 551 47 q 342 -17 413 -17 m 372 76 q 486 102 429 76 q 601 176 543 128 l 601 351 q 375 317 457 340 q 259 261 293 294 q 225 183 225 228 q 246 122 225 144 q 300 88 267 99 q 372 76 333 76 m 400 794 l 388 850 q 443 874 421 860 q 465 915 465 889 q 437 962 465 946 q 350 981 408 978 l 357 1057 q 464 1040 419 1056 q 532 995 508 1024 q 556 925 556 967 q 533 858 556 885 q 476 817 511 832 q 400 794 440 803 z "},"ấ":{"ha":833,"x_min":111,"x_max":771,"o":"m 342 -17 q 226 6 278 -17 q 142 72 174 29 q 111 175 111 114 q 226 348 111 289 q 601 428 340 407 q 582 512 600 474 q 526 574 564 550 q 422 597 488 597 q 336 585 378 597 q 256 555 294 574 q 186 517 217 536 l 140 594 q 223 639 175 617 q 327 676 271 661 q 442 692 383 692 q 594 657 533 692 q 686 560 656 622 q 717 414 717 497 l 717 0 l 621 0 l 611 92 l 607 92 q 482 15 551 47 q 342 -17 413 -17 m 372 76 q 486 102 429 76 q 601 176 543 128 l 601 351 q 375 317 457 340 q 259 261 293 294 q 225 183 225 228 q 246 122 225 144 q 300 88 267 99 q 372 76 333 76 m 299 792 l 258 839 l 397 967 l 492 967 l 631 839 l 590 792 l 447 892 l 442 892 l 299 792 m 631 885 l 582 924 l 703 1090 l 771 1043 l 631 885 z "},"ầ":{"ha":833,"x_min":100,"x_max":717,"o":"m 342 -17 q 226 6 278 -17 q 142 72 174 29 q 111 175 111 114 q 226 348 111 289 q 601 428 340 407 q 582 512 600 474 q 526 574 564 550 q 422 597 488 597 q 336 585 378 597 q 256 555 294 574 q 186 517 217 536 l 140 594 q 223 639 175 617 q 327 676 271 661 q 442 692 383 692 q 594 657 533 692 q 686 560 656 622 q 717 414 717 497 l 717 0 l 621 0 l 611 92 l 607 92 q 482 15 551 47 q 342 -17 413 -17 m 372 76 q 486 102 429 76 q 601 176 543 128 l 601 351 q 375 317 457 340 q 259 261 293 294 q 225 183 225 228 q 246 122 225 144 q 300 88 267 99 q 372 76 333 76 m 299 792 l 258 839 l 397 967 l 492 967 l 631 839 l 590 792 l 447 892 l 442 892 l 299 792 m 258 885 l 100 1040 l 168 1090 l 307 928 l 258 885 z "},"ẩ":{"ha":833,"x_min":111,"x_max":735,"o":"m 342 -17 q 226 6 278 -17 q 142 72 174 29 q 111 175 111 114 q 226 348 111 289 q 601 428 340 407 q 582 512 600 474 q 526 574 564 550 q 422 597 488 597 q 336 585 378 597 q 256 555 294 574 q 186 517 217 536 l 140 594 q 223 639 175 617 q 327 676 271 661 q 442 692 383 692 q 594 657 533 692 q 686 560 656 622 q 717 414 717 497 l 717 0 l 621 0 l 611 92 l 607 92 q 482 15 551 47 q 342 -17 413 -17 m 372 76 q 486 102 429 76 q 601 176 543 128 l 601 351 q 375 317 457 340 q 259 261 293 294 q 225 183 225 228 q 246 122 225 144 q 300 88 267 99 q 372 76 333 76 m 299 792 l 258 839 l 397 967 l 492 967 l 631 839 l 590 792 l 447 892 l 442 892 l 299 792 m 606 882 l 593 931 q 635 951 619 939 q 651 985 651 963 q 630 1025 651 1011 q 556 1042 608 1039 l 567 1100 q 691 1072 647 1097 q 735 997 735 1047 q 716 938 735 961 q 668 902 697 915 q 606 882 639 889 z "},"ẫ":{"ha":833,"x_min":111,"x_max":717,"o":"m 342 -17 q 226 6 278 -17 q 142 72 174 29 q 111 175 111 114 q 226 348 111 289 q 601 428 340 407 q 582 512 600 474 q 526 574 564 550 q 422 597 488 597 q 336 585 378 597 q 256 555 294 574 q 186 517 217 536 l 140 594 q 223 639 175 617 q 327 676 271 661 q 442 692 383 692 q 594 657 533 692 q 686 560 656 622 q 717 414 717 497 l 717 0 l 621 0 l 611 92 l 607 92 q 482 15 551 47 q 342 -17 413 -17 m 372 76 q 486 102 429 76 q 601 176 543 128 l 601 351 q 375 317 457 340 q 259 261 293 294 q 225 183 225 228 q 246 122 225 144 q 300 88 267 99 q 372 76 333 76 m 299 792 l 258 839 l 397 961 l 492 961 l 631 839 l 590 792 l 447 888 l 442 888 l 299 792 m 535 986 q 465 1001 494 986 q 411 1030 436 1015 q 360 1044 386 1044 q 329 1031 339 1044 q 314 986 319 1017 l 254 992 q 283 1081 260 1046 q 354 1115 306 1115 q 424 1101 394 1115 q 478 1072 454 1086 q 529 1057 503 1057 q 560 1072 550 1057 q 575 1115 569 1086 l 635 1110 q 606 1022 629 1057 q 535 986 583 986 z "},"ậ":{"ha":833,"x_min":111,"x_max":717,"o":"m 342 -17 q 226 6 278 -17 q 142 72 174 29 q 111 175 111 114 q 226 348 111 289 q 601 428 340 407 q 582 512 600 474 q 526 574 564 550 q 422 597 488 597 q 336 585 378 597 q 256 555 294 574 q 186 517 217 536 l 140 594 q 223 639 175 617 q 327 676 271 661 q 442 692 383 692 q 594 657 533 692 q 686 560 656 622 q 717 414 717 497 l 717 0 l 621 0 l 611 92 l 607 92 q 482 15 551 47 q 342 -17 413 -17 m 372 76 q 486 102 429 76 q 601 176 543 128 l 601 351 q 375 317 457 340 q 259 261 293 294 q 225 183 225 228 q 246 122 225 144 q 300 88 267 99 q 372 76 333 76 m 278 789 l 229 833 l 386 1028 l 503 1028 l 660 833 l 611 789 l 447 946 l 442 946 l 278 789 z "},"ắ":{"ha":833,"x_min":111,"x_max":717,"o":"m 342 -17 q 226 6 278 -17 q 142 72 174 29 q 111 175 111 114 q 226 348 111 289 q 601 428 340 407 q 582 512 600 474 q 526 574 564 550 q 422 597 488 597 q 336 585 378 597 q 256 555 294 574 q 186 517 217 536 l 140 594 q 223 639 175 617 q 327 676 271 661 q 442 692 383 692 q 594 657 533 692 q 686 560 656 622 q 717 414 717 497 l 717 0 l 621 0 l 611 92 l 607 92 q 482 15 551 47 q 342 -17 413 -17 m 372 76 q 486 102 429 76 q 601 176 543 128 l 601 351 q 375 317 457 340 q 259 261 293 294 q 225 183 225 228 q 246 122 225 144 q 300 88 267 99 q 372 76 333 76 m 444 793 q 324 824 369 793 q 254 903 278 856 q 228 1003 231 951 l 294 1014 q 317 943 300 978 q 366 887 335 908 q 444 865 397 865 q 523 887 492 865 q 572 943 554 908 q 594 1014 589 978 l 661 1003 q 635 903 658 951 q 565 824 611 856 q 444 793 519 793 m 438 944 l 383 983 l 506 1157 l 578 1100 l 438 944 z "},"ằ":{"ha":833,"x_min":111,"x_max":717,"o":"m 342 -17 q 226 6 278 -17 q 142 72 174 29 q 111 175 111 114 q 226 348 111 289 q 601 428 340 407 q 582 512 600 474 q 526 574 564 550 q 422 597 488 597 q 336 585 378 597 q 256 555 294 574 q 186 517 217 536 l 140 594 q 223 639 175 617 q 327 676 271 661 q 442 692 383 692 q 594 657 533 692 q 686 560 656 622 q 717 414 717 497 l 717 0 l 621 0 l 611 92 l 607 92 q 482 15 551 47 q 342 -17 413 -17 m 372 76 q 486 102 429 76 q 601 176 543 128 l 601 351 q 375 317 457 340 q 259 261 293 294 q 225 183 225 228 q 246 122 225 144 q 300 88 267 99 q 372 76 333 76 m 444 793 q 324 824 369 793 q 254 903 278 856 q 228 1003 231 951 l 294 1014 q 317 943 300 978 q 366 887 335 908 q 444 865 397 865 q 523 887 492 865 q 572 943 554 908 q 594 1014 589 978 l 661 1003 q 635 903 658 951 q 565 824 611 856 q 444 793 519 793 m 451 944 l 311 1100 l 383 1157 l 506 983 l 451 944 z "},"ẳ":{"ha":833,"x_min":111,"x_max":717,"o":"m 342 -17 q 226 6 278 -17 q 142 72 174 29 q 111 175 111 114 q 226 348 111 289 q 601 428 340 407 q 582 512 600 474 q 526 574 564 550 q 422 597 488 597 q 336 585 378 597 q 256 555 294 574 q 186 517 217 536 l 140 594 q 223 639 175 617 q 327 676 271 661 q 442 692 383 692 q 594 657 533 692 q 686 560 656 622 q 717 414 717 497 l 717 0 l 621 0 l 611 92 l 607 92 q 482 15 551 47 q 342 -17 413 -17 m 372 76 q 486 102 429 76 q 601 176 543 128 l 601 351 q 375 317 457 340 q 259 261 293 294 q 225 183 225 228 q 246 122 225 144 q 300 88 267 99 q 372 76 333 76 m 444 793 q 324 824 369 793 q 254 903 278 856 q 228 1003 231 951 l 294 1014 q 317 943 300 978 q 366 887 335 908 q 444 865 397 865 q 523 887 492 865 q 572 943 554 908 q 594 1014 589 978 l 661 1003 q 635 903 658 951 q 565 824 611 856 q 444 793 519 793 m 407 947 l 396 997 q 443 1016 424 1003 q 463 1051 463 1029 q 438 1092 463 1078 q 357 1110 414 1107 l 367 1179 q 499 1148 453 1176 q 546 1065 546 1119 q 526 1003 546 1028 q 474 966 506 979 q 407 947 442 953 z "},"ẵ":{"ha":833,"x_min":111,"x_max":717,"o":"m 342 -17 q 226 6 278 -17 q 142 72 174 29 q 111 175 111 114 q 226 348 111 289 q 601 428 340 407 q 582 512 600 474 q 526 574 564 550 q 422 597 488 597 q 336 585 378 597 q 256 555 294 574 q 186 517 217 536 l 140 594 q 223 639 175 617 q 327 676 271 661 q 442 692 383 692 q 594 657 533 692 q 686 560 656 622 q 717 414 717 497 l 717 0 l 621 0 l 611 92 l 607 92 q 482 15 551 47 q 342 -17 413 -17 m 372 76 q 486 102 429 76 q 601 176 543 128 l 601 351 q 375 317 457 340 q 259 261 293 294 q 225 183 225 228 q 246 122 225 144 q 300 88 267 99 q 372 76 333 76 m 444 793 q 334 815 376 793 q 270 872 292 838 q 244 942 249 906 l 310 953 q 348 888 315 918 q 444 858 381 858 q 541 888 508 858 q 579 953 574 918 l 644 942 q 619 872 640 906 q 555 815 597 838 q 444 793 513 793 m 535 986 q 465 1001 494 986 q 411 1030 436 1015 q 360 1044 386 1044 q 329 1030 339 1044 q 314 985 319 1015 l 249 992 q 278 1079 254 1044 q 354 1114 303 1114 q 424 1099 394 1114 q 478 1070 454 1085 q 529 1056 503 1056 q 560 1070 550 1056 q 575 1115 569 1085 l 640 1108 q 610 1021 635 1056 q 535 986 586 986 z "},"ặ":{"ha":833,"x_min":111,"x_max":717,"o":"m 342 -17 q 226 6 278 -17 q 142 72 174 29 q 111 175 111 114 q 226 348 111 289 q 601 428 340 407 q 582 512 600 474 q 526 574 564 550 q 422 597 488 597 q 336 585 378 597 q 256 555 294 574 q 186 517 217 536 l 140 594 q 223 639 175 617 q 327 676 271 661 q 442 692 383 692 q 594 657 533 692 q 686 560 656 622 q 717 414 717 497 l 717 0 l 621 0 l 611 92 l 607 92 q 482 15 551 47 q 342 -17 413 -17 m 372 76 q 486 102 429 76 q 601 176 543 128 l 601 351 q 375 317 457 340 q 259 261 293 294 q 225 183 225 228 q 246 122 225 144 q 300 88 267 99 q 372 76 333 76 m 444 793 q 324 824 369 793 q 254 903 278 856 q 228 1003 231 951 l 300 1014 q 322 945 306 978 q 369 892 339 913 q 444 871 400 871 q 519 892 489 871 q 567 945 550 913 q 589 1014 583 978 l 661 1003 q 635 903 658 951 q 565 824 611 856 q 444 793 519 793 z "},"æ":{"ha":833,"x_min":24,"x_max":829,"o":"m 201 -17 q 74 32 125 -17 q 24 167 24 81 q 62 290 24 238 q 182 375 100 342 q 396 422 264 408 l 396 349 q 233 313 292 336 q 152 255 175 289 q 129 178 129 221 q 158 102 129 129 q 232 75 186 75 q 323 106 275 75 q 408 193 371 136 l 447 135 q 331 24 393 64 q 201 -17 269 -17 m 631 -17 q 489 28 547 -17 q 400 152 431 72 q 369 336 369 232 l 369 404 q 336 555 369 513 q 247 597 303 597 q 163 581 206 597 q 89 542 121 564 l 46 619 q 142 669 88 647 q 257 692 197 692 q 372 649 325 692 q 440 508 418 606 l 411 508 q 500 649 442 606 q 622 692 558 692 q 738 649 692 692 q 807 537 785 607 q 829 383 829 467 q 827 344 829 364 q 824 306 825 324 l 428 306 l 428 394 l 757 394 l 736 367 q 707 543 736 485 q 615 601 678 601 q 541 576 576 601 q 483 492 506 550 q 460 339 460 435 q 480 199 460 258 q 539 108 500 140 q 635 76 578 76 q 706 90 674 76 q 767 121 739 103 l 808 43 q 728 1 774 18 q 631 -17 683 -17 z "},"ǽ":{"ha":833,"x_min":24,"x_max":829,"o":"m 201 -17 q 74 32 125 -17 q 24 167 24 81 q 62 290 24 238 q 182 375 100 342 q 396 422 264 408 l 396 349 q 233 313 292 336 q 152 255 175 289 q 129 178 129 221 q 158 102 129 129 q 232 75 186 75 q 323 106 275 75 q 408 193 371 136 l 447 135 q 331 24 393 64 q 201 -17 269 -17 m 631 -17 q 489 28 547 -17 q 400 152 431 72 q 369 336 369 232 l 369 404 q 336 555 369 513 q 247 597 303 597 q 163 581 206 597 q 89 542 121 564 l 46 619 q 142 669 88 647 q 257 692 197 692 q 372 649 325 692 q 440 508 418 606 l 411 508 q 500 649 442 606 q 622 692 558 692 q 738 649 692 692 q 807 537 785 607 q 829 383 829 467 q 827 344 829 364 q 824 306 825 324 l 428 306 l 428 394 l 757 394 l 736 367 q 707 543 736 485 q 615 601 678 601 q 541 576 576 601 q 483 492 506 550 q 460 339 460 435 q 480 199 460 258 q 539 108 500 140 q 635 76 578 76 q 706 90 674 76 q 767 121 739 103 l 808 43 q 728 1 774 18 q 631 -17 683 -17 m 410 789 l 350 846 l 547 1079 l 628 1001 l 410 789 z "},"ǣ":{"ha":833,"x_min":24,"x_max":829,"o":"m 201 -17 q 74 32 125 -17 q 24 167 24 81 q 62 290 24 238 q 182 375 100 342 q 396 422 264 408 l 396 349 q 233 313 292 336 q 152 255 175 289 q 129 178 129 221 q 158 102 129 129 q 232 75 186 75 q 323 106 275 75 q 408 193 371 136 l 447 135 q 331 24 393 64 q 201 -17 269 -17 m 631 -17 q 489 28 547 -17 q 400 152 431 72 q 369 336 369 232 l 369 404 q 336 555 369 513 q 247 597 303 597 q 163 581 206 597 q 89 542 121 564 l 46 619 q 142 669 88 647 q 257 692 197 692 q 372 649 325 692 q 440 508 418 606 l 411 508 q 500 649 442 606 q 622 692 558 692 q 738 649 692 692 q 807 537 785 607 q 829 383 829 467 q 827 344 829 364 q 824 306 825 324 l 428 306 l 428 394 l 757 394 l 736 367 q 707 543 736 485 q 615 601 678 601 q 541 576 576 601 q 483 492 506 550 q 460 339 460 435 q 480 199 460 258 q 539 108 500 140 q 635 76 578 76 q 706 90 674 76 q 767 121 739 103 l 808 43 q 728 1 774 18 q 631 -17 683 -17 m 254 835 l 254 914 l 624 914 l 624 835 l 254 835 z "},"ƀ":{"ha":833,"x_min":28,"x_max":750,"o":"m 444 -17 q 340 8 396 -17 q 235 75 283 32 l 231 75 l 221 0 l 129 0 l 129 989 l 243 989 l 243 688 l 239 561 l 243 561 q 349 636 289 608 q 469 664 410 664 q 624 624 561 664 q 718 509 686 583 q 750 335 750 435 q 707 145 750 224 q 594 25 664 67 q 444 -17 525 -17 m 426 79 q 532 110 486 79 q 605 197 578 140 q 632 333 632 254 q 613 456 632 403 q 551 539 593 510 q 442 568 508 568 q 346 544 397 568 q 243 467 294 519 l 243 158 q 341 97 292 115 q 426 79 390 79 m 28 781 l 28 863 l 135 869 l 539 869 l 539 781 l 28 781 z "},"ḇ":{"ha":833,"x_min":129,"x_max":750,"o":"m 446 -17 q 340 8 396 -17 q 236 75 283 32 l 232 75 l 221 0 l 129 0 l 129 989 l 244 989 l 244 719 l 239 589 l 243 589 q 349 664 289 636 q 469 692 410 692 q 624 649 561 692 q 718 530 686 607 q 750 349 750 453 q 707 151 750 233 q 594 26 664 69 q 446 -17 525 -17 m 426 81 q 531 113 485 81 q 605 204 578 144 q 632 347 632 264 q 613 478 632 422 q 551 564 593 533 q 442 594 508 594 q 347 571 397 594 q 244 494 296 547 l 244 158 q 341 98 292 115 q 426 81 390 81 z "},"ç":{"ha":833,"x_min":111,"x_max":749,"o":"m 481 -17 q 292 25 375 -17 q 160 146 208 67 q 111 336 111 225 q 163 529 111 450 q 300 650 214 608 q 488 692 386 692 q 631 663 569 692 q 733 593 692 633 l 676 519 q 590 576 635 556 q 492 596 544 596 q 355 563 414 596 q 263 472 296 531 q 229 336 229 414 q 262 201 229 258 q 353 111 294 143 q 489 79 411 79 q 603 103 551 79 q 697 164 656 128 l 749 89 q 624 11 692 39 q 481 -17 556 -17 m 360 -314 l 349 -258 q 468 -236 436 -253 q 500 -189 500 -219 q 476 -146 500 -161 q 393 -122 453 -131 l 449 11 l 524 11 l 488 -89 q 563 -122 536 -100 q 589 -187 589 -144 q 529 -278 589 -247 q 360 -314 469 -308 z "},"ć":{"ha":833,"x_min":111,"x_max":749,"o":"m 481 -17 q 292 25 375 -17 q 160 146 208 67 q 111 336 111 225 q 163 529 111 450 q 300 650 214 608 q 488 692 386 692 q 631 663 569 692 q 733 593 692 633 l 676 519 q 590 576 635 556 q 492 596 544 596 q 355 563 414 596 q 263 472 296 531 q 229 336 229 414 q 262 201 229 258 q 353 111 294 143 q 489 79 411 79 q 603 103 551 79 q 697 164 656 128 l 749 89 q 624 11 692 39 q 481 -17 556 -17 m 451 789 l 392 846 l 589 1079 l 669 1001 l 451 789 z "},"ĉ":{"ha":833,"x_min":111,"x_max":749,"o":"m 481 -17 q 292 25 375 -17 q 160 146 208 67 q 111 336 111 225 q 163 529 111 450 q 300 650 214 608 q 488 692 386 692 q 631 663 569 692 q 733 593 692 633 l 676 519 q 590 576 635 556 q 492 596 544 596 q 355 563 414 596 q 263 472 296 531 q 229 336 229 414 q 262 201 229 258 q 353 111 294 143 q 489 79 411 79 q 603 103 551 79 q 697 164 656 128 l 749 89 q 624 11 692 39 q 481 -17 556 -17 m 314 789 l 265 833 l 422 1028 l 539 1028 l 696 833 l 647 789 l 483 946 l 478 946 l 314 789 z "},"č":{"ha":833,"x_min":111,"x_max":749,"o":"m 481 -17 q 292 25 375 -17 q 160 146 208 67 q 111 336 111 225 q 163 529 111 450 q 300 650 214 608 q 488 692 386 692 q 631 663 569 692 q 733 593 692 633 l 676 519 q 590 576 635 556 q 492 596 544 596 q 355 563 414 596 q 263 472 296 531 q 229 336 229 414 q 262 201 229 258 q 353 111 294 143 q 489 79 411 79 q 603 103 551 79 q 697 164 656 128 l 749 89 q 624 11 692 39 q 481 -17 556 -17 m 422 797 l 265 992 l 314 1036 l 478 879 l 483 879 l 647 1036 l 696 992 l 539 797 l 422 797 z "},"ċ":{"ha":833,"x_min":111,"x_max":749,"o":"m 481 -17 q 292 25 375 -17 q 160 146 208 67 q 111 336 111 225 q 163 529 111 450 q 300 650 214 608 q 488 692 386 692 q 631 663 569 692 q 733 593 692 633 l 676 519 q 590 576 635 556 q 492 596 544 596 q 355 563 414 596 q 263 472 296 531 q 229 336 229 414 q 262 201 229 258 q 353 111 294 143 q 489 79 411 79 q 603 103 551 79 q 697 164 656 128 l 749 89 q 624 11 692 39 q 481 -17 556 -17 m 481 817 q 415 841 442 817 q 389 906 389 865 q 415 969 389 944 q 481 994 442 994 q 546 969 519 994 q 572 906 572 944 q 546 841 572 865 q 481 817 519 817 z "},"ď":{"ha":833,"x_min":75,"x_max":861,"o":"m 351 -17 q 151 75 228 -17 q 75 336 75 167 q 116 526 75 446 q 223 649 157 606 q 365 692 289 692 q 468 668 422 692 q 557 606 514 644 l 561 606 l 554 729 l 554 989 l 665 989 l 665 0 l 575 0 l 565 89 l 561 89 q 466 15 521 47 q 351 -17 411 -17 m 376 81 q 467 106 424 81 q 554 181 511 132 l 554 517 q 470 576 511 558 q 389 594 429 594 q 288 563 333 594 q 216 472 243 531 q 189 338 189 414 q 238 149 189 217 q 376 81 288 81 m 761 761 l 756 1133 l 861 1133 l 860 1021 l 840 761 l 761 761 z "},"ḍ":{"ha":833,"x_min":83,"x_max":704,"o":"m 375 -17 q 164 75 244 -17 q 83 336 83 167 q 126 526 83 446 q 239 649 169 606 q 389 692 308 692 q 499 669 450 692 q 592 606 547 646 l 594 606 l 589 729 l 589 989 l 704 989 l 704 0 l 610 0 l 600 89 l 596 89 q 497 15 554 46 q 375 -17 439 -17 m 400 81 q 497 106 450 81 q 589 181 544 131 l 589 517 q 499 577 543 560 q 413 594 456 594 q 306 563 354 594 q 230 472 258 531 q 201 338 201 414 q 254 149 201 217 q 400 81 307 81 z "},"ḏ":{"ha":833,"x_min":83,"x_max":704,"o":"m 375 -17 q 164 75 244 -17 q 83 336 83 167 q 126 526 83 446 q 239 649 169 606 q 389 692 308 692 q 499 669 450 692 q 592 606 547 646 l 594 606 l 589 729 l 589 989 l 704 989 l 704 0 l 610 0 l 600 89 l 596 89 q 497 15 554 46 q 375 -17 439 -17 m 400 81 q 497 106 450 81 q 589 181 544 131 l 589 517 q 499 577 543 560 q 413 594 456 594 q 306 563 354 594 q 230 472 258 531 q 201 338 201 414 q 254 149 201 217 q 400 81 307 81 z "},"ḑ":{"ha":833,"x_min":83,"x_max":704,"o":"m 375 -17 q 164 75 244 -17 q 83 336 83 167 q 126 526 83 446 q 239 649 169 606 q 389 692 308 692 q 499 669 450 692 q 592 606 547 646 l 594 606 l 589 729 l 589 989 l 704 989 l 704 0 l 610 0 l 600 89 l 596 89 q 497 15 554 46 q 375 -17 439 -17 m 400 81 q 497 106 450 81 q 589 181 544 131 l 589 517 q 499 577 543 560 q 413 594 456 594 q 306 563 354 594 q 230 472 258 531 q 201 338 201 414 q 254 149 201 217 q 400 81 307 81 m 289 -314 l 278 -258 q 397 -236 365 -253 q 429 -189 429 -219 q 406 -146 429 -161 q 322 -122 382 -131 l 378 11 l 453 11 l 417 -89 q 492 -122 465 -100 q 518 -187 518 -144 q 458 -278 518 -247 q 289 -314 399 -308 z "},"đ":{"ha":833,"x_min":83,"x_max":806,"o":"m 376 -17 q 164 72 244 -17 q 83 322 83 160 q 127 504 83 428 q 241 622 171 581 q 390 664 311 664 q 499 640 451 664 q 592 576 547 617 l 596 576 l 590 701 l 590 989 l 704 989 l 704 0 l 610 0 l 600 89 l 596 89 q 497 15 554 46 q 376 -17 439 -17 m 400 79 q 498 105 450 79 q 590 181 546 131 l 590 489 q 501 550 544 532 q 414 568 457 568 q 307 537 356 568 q 230 451 258 506 q 201 324 201 396 q 253 144 201 208 q 400 79 306 79 m 347 781 l 347 869 l 806 869 l 806 789 l 700 781 l 347 781 z "},"è":{"ha":833,"x_min":94,"x_max":747,"o":"m 458 -17 q 274 25 357 -17 q 143 147 192 67 q 94 339 94 226 q 143 528 94 449 q 270 649 192 607 q 439 692 349 692 q 605 652 536 692 q 710 541 674 613 q 747 375 747 469 q 746 338 747 356 q 742 306 744 319 l 171 306 l 171 394 l 674 394 l 644 363 q 590 542 644 482 q 442 601 535 601 q 326 571 379 601 q 240 481 272 540 q 208 339 208 422 q 243 192 208 251 q 338 104 278 133 q 472 75 397 75 q 583 92 533 75 q 678 139 632 110 l 719 64 q 604 7 669 31 q 458 -17 539 -17 m 468 789 l 250 1001 l 331 1079 l 528 846 l 468 789 z "},"é":{"ha":833,"x_min":94,"x_max":747,"o":"m 458 -17 q 274 25 357 -17 q 143 147 192 67 q 94 339 94 226 q 143 528 94 449 q 270 649 192 607 q 439 692 349 692 q 605 652 536 692 q 710 541 674 613 q 747 375 747 469 q 746 338 747 356 q 742 306 744 319 l 171 306 l 171 394 l 674 394 l 644 363 q 590 542 644 482 q 442 601 535 601 q 326 571 379 601 q 240 481 272 540 q 208 339 208 422 q 243 192 208 251 q 338 104 278 133 q 472 75 397 75 q 583 92 533 75 q 678 139 632 110 l 719 64 q 604 7 669 31 q 458 -17 539 -17 m 410 789 l 350 846 l 547 1079 l 628 1001 l 410 789 z "},"ê":{"ha":833,"x_min":94,"x_max":747,"o":"m 458 -17 q 274 25 357 -17 q 143 147 192 67 q 94 339 94 226 q 143 528 94 449 q 270 649 192 607 q 439 692 349 692 q 605 652 536 692 q 710 541 674 613 q 747 375 747 469 q 746 338 747 356 q 742 306 744 319 l 171 306 l 171 394 l 674 394 l 644 363 q 590 542 644 482 q 442 601 535 601 q 326 571 379 601 q 240 481 272 540 q 208 339 208 422 q 243 192 208 251 q 338 104 278 133 q 472 75 397 75 q 583 92 533 75 q 678 139 632 110 l 719 64 q 604 7 669 31 q 458 -17 539 -17 m 272 789 l 224 833 l 381 1028 l 497 1028 l 654 833 l 606 789 l 442 946 l 436 946 l 272 789 z "},"ě":{"ha":833,"x_min":94,"x_max":747,"o":"m 458 -17 q 274 25 357 -17 q 143 147 192 67 q 94 339 94 226 q 143 528 94 449 q 270 649 192 607 q 439 692 349 692 q 605 652 536 692 q 710 541 674 613 q 747 375 747 469 q 746 338 747 356 q 742 306 744 319 l 171 306 l 171 394 l 674 394 l 644 363 q 590 542 644 482 q 442 601 535 601 q 326 571 379 601 q 240 481 272 540 q 208 339 208 422 q 243 192 208 251 q 338 104 278 133 q 472 75 397 75 q 583 92 533 75 q 678 139 632 110 l 719 64 q 604 7 669 31 q 458 -17 539 -17 m 381 797 l 224 992 l 272 1036 l 436 879 l 442 879 l 606 1036 l 654 992 l 497 797 l 381 797 z "},"ë":{"ha":833,"x_min":94,"x_max":747,"o":"m 458 -17 q 274 25 357 -17 q 143 147 192 67 q 94 339 94 226 q 143 528 94 449 q 270 649 192 607 q 439 692 349 692 q 605 652 536 692 q 710 541 674 613 q 747 375 747 469 q 746 338 747 356 q 742 306 744 319 l 171 306 l 171 394 l 674 394 l 644 363 q 590 542 644 482 q 442 601 535 601 q 326 571 379 601 q 240 481 272 540 q 208 339 208 422 q 243 192 208 251 q 338 104 278 133 q 472 75 397 75 q 583 92 533 75 q 678 139 632 110 l 719 64 q 604 7 669 31 q 458 -17 539 -17 m 304 817 q 249 839 269 817 q 228 894 228 861 q 249 950 228 928 q 304 972 269 972 q 359 950 338 972 q 381 894 381 928 q 359 839 381 861 q 304 817 338 817 m 574 817 q 519 839 540 817 q 497 894 497 861 q 519 950 497 928 q 574 972 540 972 q 629 950 608 972 q 650 894 650 928 q 629 839 650 861 q 574 817 608 817 z "},"ē":{"ha":833,"x_min":94,"x_max":747,"o":"m 458 -17 q 274 25 357 -17 q 143 147 192 67 q 94 339 94 226 q 143 528 94 449 q 270 649 192 607 q 439 692 349 692 q 605 652 536 692 q 710 541 674 613 q 747 375 747 469 q 746 338 747 356 q 742 306 744 319 l 171 306 l 171 394 l 674 394 l 644 363 q 590 542 644 482 q 442 601 535 601 q 326 571 379 601 q 240 481 272 540 q 208 339 208 422 q 243 192 208 251 q 338 104 278 133 q 472 75 397 75 q 583 92 533 75 q 678 139 632 110 l 719 64 q 604 7 669 31 q 458 -17 539 -17 m 254 835 l 254 914 l 624 914 l 624 835 l 254 835 z "},"ĕ":{"ha":833,"x_min":94,"x_max":747,"o":"m 458 -17 q 274 25 357 -17 q 143 147 192 67 q 94 339 94 226 q 143 528 94 449 q 270 649 192 607 q 439 692 349 692 q 605 652 536 692 q 710 541 674 613 q 747 375 747 469 q 746 338 747 356 q 742 306 744 319 l 171 306 l 171 394 l 674 394 l 644 363 q 590 542 644 482 q 442 601 535 601 q 326 571 379 601 q 240 481 272 540 q 208 339 208 422 q 243 192 208 251 q 338 104 278 133 q 472 75 397 75 q 583 92 533 75 q 678 139 632 110 l 719 64 q 604 7 669 31 q 458 -17 539 -17 m 439 793 q 318 824 364 793 q 249 903 272 856 q 222 1003 225 951 l 294 1014 q 317 945 300 978 q 364 892 333 913 q 439 871 394 871 q 514 892 483 871 q 561 945 544 913 q 583 1014 578 978 l 656 1003 q 629 903 653 951 q 560 824 606 856 q 439 793 514 793 z "},"ę":{"ha":833,"x_min":94,"x_max":747,"o":"m 586 -312 q 483 -281 524 -312 q 443 -183 443 -249 q 483 -70 443 -119 q 582 25 522 -21 l 589 15 q 503 -14 535 -11 q 458 -17 471 -17 q 274 25 357 -17 q 143 146 192 67 q 94 336 94 225 q 143 527 94 447 q 270 649 192 607 q 439 692 349 692 q 605 652 536 692 q 710 541 674 613 q 747 375 747 469 q 746 338 747 356 q 742 306 744 319 l 171 306 l 171 394 l 674 394 l 644 363 q 590 542 644 482 q 442 601 535 601 q 326 571 379 601 q 240 481 272 540 q 208 339 208 422 q 243 192 208 251 q 338 104 278 133 q 472 75 397 75 q 583 92 533 75 q 678 139 632 110 l 719 64 q 606 -23 649 14 q 546 -92 564 -60 q 528 -161 528 -125 q 553 -219 528 -200 q 610 -237 578 -237 q 651 -229 633 -237 q 683 -208 669 -221 l 717 -262 q 658 -299 692 -286 q 586 -312 625 -312 z "},"ė":{"ha":833,"x_min":94,"x_max":747,"o":"m 458 -17 q 274 25 357 -17 q 143 147 192 67 q 94 339 94 226 q 143 528 94 449 q 270 649 192 607 q 439 692 349 692 q 605 652 536 692 q 710 541 674 613 q 747 375 747 469 q 746 338 747 356 q 742 306 744 319 l 171 306 l 171 394 l 674 394 l 644 363 q 590 542 644 482 q 442 601 535 601 q 326 571 379 601 q 240 481 272 540 q 208 339 208 422 q 243 192 208 251 q 338 104 278 133 q 472 75 397 75 q 583 92 533 75 q 678 139 632 110 l 719 64 q 604 7 669 31 q 458 -17 539 -17 m 439 817 q 374 841 400 817 q 347 906 347 865 q 374 969 347 944 q 439 994 400 994 q 504 969 478 994 q 531 906 531 944 q 504 841 531 865 q 439 817 478 817 z "},"ẹ":{"ha":833,"x_min":94,"x_max":747,"o":"m 458 -17 q 274 25 357 -17 q 143 147 192 67 q 94 339 94 226 q 143 528 94 449 q 270 649 192 607 q 439 692 349 692 q 605 652 536 692 q 710 541 674 613 q 747 375 747 469 q 746 338 747 356 q 742 306 744 319 l 171 306 l 171 394 l 674 394 l 644 363 q 590 542 644 482 q 442 601 535 601 q 326 571 379 601 q 240 481 272 540 q 208 339 208 422 q 243 192 208 251 q 338 104 278 133 q 472 75 397 75 q 583 92 533 75 q 678 139 632 110 l 719 64 q 604 7 669 31 q 458 -17 539 -17 z "},"ẻ":{"ha":833,"x_min":94,"x_max":747,"o":"m 458 -17 q 274 25 357 -17 q 143 147 192 67 q 94 339 94 226 q 143 528 94 449 q 270 649 192 607 q 439 692 349 692 q 605 652 536 692 q 710 541 674 613 q 747 375 747 469 q 746 338 747 356 q 742 306 744 319 l 171 306 l 171 394 l 674 394 l 644 363 q 590 542 644 482 q 442 601 535 601 q 326 571 379 601 q 240 481 272 540 q 208 339 208 422 q 243 192 208 251 q 338 104 278 133 q 472 75 397 75 q 583 92 533 75 q 678 139 632 110 l 719 64 q 604 7 669 31 q 458 -17 539 -17 m 394 794 l 382 850 q 438 874 415 860 q 460 915 460 889 q 431 962 460 946 q 344 981 403 978 l 351 1057 q 458 1040 414 1056 q 526 995 503 1024 q 550 925 550 967 q 528 858 550 885 q 470 817 506 832 q 394 794 435 803 z "},"ẽ":{"ha":833,"x_min":94,"x_max":747,"o":"m 458 -17 q 274 25 357 -17 q 143 147 192 67 q 94 339 94 226 q 143 528 94 449 q 270 649 192 607 q 439 692 349 692 q 605 652 536 692 q 710 541 674 613 q 747 375 747 469 q 746 338 747 356 q 742 306 744 319 l 171 306 l 171 394 l 674 394 l 644 363 q 590 542 644 482 q 442 601 535 601 q 326 571 379 601 q 240 481 272 540 q 208 339 208 422 q 243 192 208 251 q 338 104 278 133 q 472 75 397 75 q 583 92 533 75 q 678 139 632 110 l 719 64 q 604 7 669 31 q 458 -17 539 -17 m 539 801 q 475 819 501 801 q 427 860 449 836 q 385 901 406 883 q 340 918 364 918 q 293 888 308 918 q 275 808 278 857 l 199 813 q 215 909 200 867 q 261 976 231 951 q 339 1001 292 1001 q 403 984 376 1001 q 451 943 429 967 q 494 902 474 919 q 539 885 514 885 q 585 916 569 885 q 603 994 600 947 l 679 989 q 663 893 678 936 q 617 826 647 850 q 539 801 586 801 z "},"ế":{"ha":833,"x_min":94,"x_max":765,"o":"m 458 -17 q 274 25 357 -17 q 143 147 192 67 q 94 339 94 226 q 143 528 94 449 q 270 649 192 607 q 439 692 349 692 q 605 652 536 692 q 710 541 674 613 q 747 375 747 469 q 746 338 747 356 q 742 306 744 319 l 171 306 l 171 394 l 674 394 l 644 363 q 590 542 644 482 q 442 601 535 601 q 326 571 379 601 q 240 481 272 540 q 208 339 208 422 q 243 192 208 251 q 338 104 278 133 q 472 75 397 75 q 583 92 533 75 q 678 139 632 110 l 719 64 q 604 7 669 31 q 458 -17 539 -17 m 293 792 l 253 839 l 392 967 l 486 967 l 625 839 l 585 792 l 442 892 l 436 892 l 293 792 m 625 885 l 576 924 l 697 1090 l 765 1043 l 625 885 z "},"ề":{"ha":833,"x_min":94,"x_max":747,"o":"m 458 -17 q 274 25 357 -17 q 143 147 192 67 q 94 339 94 226 q 143 528 94 449 q 270 649 192 607 q 439 692 349 692 q 605 652 536 692 q 710 541 674 613 q 747 375 747 469 q 746 338 747 356 q 742 306 744 319 l 171 306 l 171 394 l 674 394 l 644 363 q 590 542 644 482 q 442 601 535 601 q 326 571 379 601 q 240 481 272 540 q 208 339 208 422 q 243 192 208 251 q 338 104 278 133 q 472 75 397 75 q 583 92 533 75 q 678 139 632 110 l 719 64 q 604 7 669 31 q 458 -17 539 -17 m 293 792 l 253 839 l 392 967 l 486 967 l 625 839 l 585 792 l 442 892 l 436 892 l 293 792 m 253 885 l 94 1040 l 163 1090 l 301 928 l 253 885 z "},"ể":{"ha":833,"x_min":94,"x_max":747,"o":"m 458 -17 q 274 25 357 -17 q 143 147 192 67 q 94 339 94 226 q 143 528 94 449 q 270 649 192 607 q 439 692 349 692 q 605 652 536 692 q 710 541 674 613 q 747 375 747 469 q 746 338 747 356 q 742 306 744 319 l 171 306 l 171 394 l 674 394 l 644 363 q 590 542 644 482 q 442 601 535 601 q 326 571 379 601 q 240 481 272 540 q 208 339 208 422 q 243 192 208 251 q 338 104 278 133 q 472 75 397 75 q 583 92 533 75 q 678 139 632 110 l 719 64 q 604 7 669 31 q 458 -17 539 -17 m 293 792 l 253 839 l 392 967 l 486 967 l 625 839 l 585 792 l 442 892 l 436 892 l 293 792 m 600 882 l 588 931 q 630 951 614 939 q 646 985 646 963 q 624 1025 646 1011 q 550 1042 603 1039 l 561 1100 q 685 1072 642 1097 q 729 997 729 1047 q 710 938 729 961 q 663 902 692 915 q 600 882 633 889 z "},"ễ":{"ha":833,"x_min":94,"x_max":747,"o":"m 458 -17 q 274 25 357 -17 q 143 147 192 67 q 94 339 94 226 q 143 528 94 449 q 270 649 192 607 q 439 692 349 692 q 605 652 536 692 q 710 541 674 613 q 747 375 747 469 q 746 338 747 356 q 742 306 744 319 l 171 306 l 171 394 l 674 394 l 644 363 q 590 542 644 482 q 442 601 535 601 q 326 571 379 601 q 240 481 272 540 q 208 339 208 422 q 243 192 208 251 q 338 104 278 133 q 472 75 397 75 q 583 92 533 75 q 678 139 632 110 l 719 64 q 604 7 669 31 q 458 -17 539 -17 m 293 792 l 253 839 l 392 961 l 486 961 l 625 839 l 585 792 l 442 888 l 436 888 l 293 792 m 529 986 q 460 1001 489 986 q 406 1030 431 1015 q 354 1044 381 1044 q 324 1031 333 1044 q 308 986 314 1017 l 249 992 q 277 1081 254 1046 q 349 1115 300 1115 q 419 1101 389 1115 q 473 1072 449 1086 q 524 1057 497 1057 q 554 1072 544 1057 q 569 1115 564 1086 l 629 1110 q 601 1022 624 1057 q 529 986 578 986 z "},"ệ":{"ha":833,"x_min":94,"x_max":747,"o":"m 458 -17 q 274 25 357 -17 q 143 147 192 67 q 94 339 94 226 q 143 528 94 449 q 270 649 192 607 q 439 692 349 692 q 605 652 536 692 q 710 541 674 613 q 747 375 747 469 q 746 338 747 356 q 742 306 744 319 l 171 306 l 171 394 l 674 394 l 644 363 q 590 542 644 482 q 442 601 535 601 q 326 571 379 601 q 240 481 272 540 q 208 339 208 422 q 243 192 208 251 q 338 104 278 133 q 472 75 397 75 q 583 92 533 75 q 678 139 632 110 l 719 64 q 604 7 669 31 q 458 -17 539 -17 m 272 789 l 224 833 l 381 1028 l 497 1028 l 654 833 l 606 789 l 442 946 l 436 946 l 272 789 z "},"ḗ":{"ha":833,"x_min":94,"x_max":747,"o":"m 458 -17 q 274 25 357 -17 q 143 147 192 67 q 94 339 94 226 q 143 528 94 449 q 270 649 192 607 q 439 692 349 692 q 605 652 536 692 q 710 541 674 613 q 747 375 747 469 q 746 338 747 356 q 742 306 744 319 l 171 306 l 171 394 l 674 394 l 644 363 q 590 542 644 482 q 442 601 535 601 q 326 571 379 601 q 240 481 272 540 q 208 339 208 422 q 243 192 208 251 q 338 104 278 133 q 472 75 397 75 q 583 92 533 75 q 678 139 632 110 l 719 64 q 604 7 669 31 q 458 -17 539 -17 m 254 835 l 254 914 l 624 914 l 624 835 l 254 835 m 392 979 l 347 1033 l 535 1171 l 589 1103 l 392 979 z "},"ǵ":{"ha":833,"x_min":100,"x_max":786,"o":"m 411 -311 q 243 -289 313 -311 q 137 -225 174 -267 q 100 -124 100 -183 q 128 -44 100 -83 q 211 26 157 -6 l 211 32 q 163 74 183 47 q 142 143 142 100 q 163 209 142 175 q 222 269 183 243 l 222 275 q 163 345 188 301 q 139 450 139 389 q 176 578 139 524 q 273 662 213 632 q 404 692 333 692 q 504 675 461 692 l 783 675 l 783 582 l 608 582 q 648 522 631 558 q 665 446 665 486 q 631 322 665 374 q 537 242 596 269 q 404 214 478 214 q 348 220 378 214 q 290 239 318 226 q 251 204 265 224 q 238 161 238 185 q 274 103 238 122 q 378 83 311 83 l 529 83 q 723 47 660 83 q 786 -75 786 11 q 740 -192 786 -139 q 610 -278 694 -246 q 411 -311 525 -311 m 404 290 q 483 310 447 290 q 539 365 518 329 q 560 450 560 401 q 539 533 560 497 q 483 588 518 568 q 404 608 447 608 q 326 588 361 608 q 270 533 292 568 q 249 450 249 497 q 270 365 249 401 q 326 310 292 329 q 404 290 361 290 m 419 -228 q 555 -208 497 -228 q 643 -158 613 -189 q 674 -93 674 -128 q 635 -28 674 -44 q 519 -11 597 -11 l 388 -11 q 333 -8 358 -11 q 285 0 307 -6 q 217 -55 236 -26 q 199 -112 199 -83 q 255 -197 199 -165 q 419 -228 311 -228 m 397 789 l 338 846 l 535 1079 l 615 1001 l 397 789 z "},"ĝ":{"ha":833,"x_min":100,"x_max":786,"o":"m 411 -311 q 243 -289 313 -311 q 137 -225 174 -267 q 100 -124 100 -183 q 128 -44 100 -83 q 211 26 157 -6 l 211 32 q 163 74 183 47 q 142 143 142 100 q 163 209 142 175 q 222 269 183 243 l 222 275 q 163 345 188 301 q 139 450 139 389 q 176 578 139 524 q 273 662 213 632 q 404 692 333 692 q 504 675 461 692 l 783 675 l 783 582 l 608 582 q 648 522 631 558 q 665 446 665 486 q 631 322 665 374 q 537 242 596 269 q 404 214 478 214 q 348 220 378 214 q 290 239 318 226 q 251 204 265 224 q 238 161 238 185 q 274 103 238 122 q 378 83 311 83 l 529 83 q 723 47 660 83 q 786 -75 786 11 q 740 -192 786 -139 q 610 -278 694 -246 q 411 -311 525 -311 m 404 290 q 483 310 447 290 q 539 365 518 329 q 560 450 560 401 q 539 533 560 497 q 483 588 518 568 q 404 608 447 608 q 326 588 361 608 q 270 533 292 568 q 249 450 249 497 q 270 365 249 401 q 326 310 292 329 q 404 290 361 290 m 419 -228 q 555 -208 497 -228 q 643 -158 613 -189 q 674 -93 674 -128 q 635 -28 674 -44 q 519 -11 597 -11 l 388 -11 q 333 -8 358 -11 q 285 0 307 -6 q 217 -55 236 -26 q 199 -112 199 -83 q 255 -197 199 -165 q 419 -228 311 -228 m 260 789 l 211 833 l 368 1028 l 485 1028 l 642 833 l 593 789 l 429 946 l 424 946 l 260 789 z "},"ğ":{"ha":833,"x_min":100,"x_max":786,"o":"m 411 -311 q 243 -289 313 -311 q 137 -225 174 -267 q 100 -124 100 -183 q 128 -44 100 -83 q 211 26 157 -6 l 211 32 q 163 74 183 47 q 142 143 142 100 q 163 209 142 175 q 222 269 183 243 l 222 275 q 163 345 188 301 q 139 450 139 389 q 176 578 139 524 q 273 662 213 632 q 404 692 333 692 q 504 675 461 692 l 783 675 l 783 582 l 608 582 q 648 522 631 558 q 665 446 665 486 q 631 322 665 374 q 537 242 596 269 q 404 214 478 214 q 348 220 378 214 q 290 239 318 226 q 251 204 265 224 q 238 161 238 185 q 274 103 238 122 q 378 83 311 83 l 529 83 q 723 47 660 83 q 786 -75 786 11 q 740 -192 786 -139 q 610 -278 694 -246 q 411 -311 525 -311 m 404 290 q 483 310 447 290 q 539 365 518 329 q 560 450 560 401 q 539 533 560 497 q 483 588 518 568 q 404 608 447 608 q 326 588 361 608 q 270 533 292 568 q 249 450 249 497 q 270 365 249 401 q 326 310 292 329 q 404 290 361 290 m 419 -228 q 555 -208 497 -228 q 643 -158 613 -189 q 674 -93 674 -128 q 635 -28 674 -44 q 519 -11 597 -11 l 388 -11 q 333 -8 358 -11 q 285 0 307 -6 q 217 -55 236 -26 q 199 -112 199 -83 q 255 -197 199 -165 q 419 -228 311 -228 m 426 793 q 306 824 351 793 q 236 903 260 856 q 210 1003 213 951 l 282 1014 q 304 945 288 978 q 351 892 321 913 q 426 871 382 871 q 501 892 471 871 q 549 945 532 913 q 571 1014 565 978 l 643 1003 q 617 903 640 951 q 547 824 593 856 q 426 793 501 793 z "},"ġ":{"ha":833,"x_min":100,"x_max":786,"o":"m 411 -311 q 243 -289 313 -311 q 137 -225 174 -267 q 100 -124 100 -183 q 128 -44 100 -83 q 211 26 157 -6 l 211 32 q 163 74 183 47 q 142 143 142 100 q 163 209 142 175 q 222 269 183 243 l 222 275 q 163 345 188 301 q 139 450 139 389 q 176 578 139 524 q 273 662 213 632 q 404 692 333 692 q 504 675 461 692 l 783 675 l 783 582 l 608 582 q 648 522 631 558 q 665 446 665 486 q 631 322 665 374 q 537 242 596 269 q 404 214 478 214 q 348 220 378 214 q 290 239 318 226 q 251 204 265 224 q 238 161 238 185 q 274 103 238 122 q 378 83 311 83 l 529 83 q 723 47 660 83 q 786 -75 786 11 q 740 -192 786 -139 q 610 -278 694 -246 q 411 -311 525 -311 m 404 290 q 483 310 447 290 q 539 365 518 329 q 560 450 560 401 q 539 533 560 497 q 483 588 518 568 q 404 608 447 608 q 326 588 361 608 q 270 533 292 568 q 249 450 249 497 q 270 365 249 401 q 326 310 292 329 q 404 290 361 290 m 419 -228 q 555 -208 497 -228 q 643 -158 613 -189 q 674 -93 674 -128 q 635 -28 674 -44 q 519 -11 597 -11 l 388 -11 q 333 -8 358 -11 q 285 0 307 -6 q 217 -55 236 -26 q 199 -112 199 -83 q 255 -197 199 -165 q 419 -228 311 -228 m 426 817 q 361 841 388 817 q 335 906 335 865 q 361 969 335 944 q 426 994 388 994 q 492 969 465 994 q 518 906 518 944 q 492 841 518 865 q 426 817 465 817 z "},"ģ":{"ha":833,"x_min":100,"x_max":786,"o":"m 411 -311 q 243 -289 313 -311 q 137 -225 174 -267 q 100 -124 100 -183 q 128 -44 100 -83 q 211 26 157 -6 l 211 32 q 163 74 183 47 q 142 143 142 100 q 163 209 142 175 q 222 269 183 243 l 222 275 q 163 345 188 301 q 139 450 139 389 q 176 578 139 524 q 273 662 213 632 q 404 692 333 692 q 504 675 461 692 l 783 675 l 783 582 l 608 582 q 648 522 631 558 q 665 446 665 486 q 631 322 665 374 q 537 242 596 269 q 404 214 478 214 q 348 220 378 214 q 290 239 318 226 q 251 204 265 224 q 238 161 238 185 q 274 103 238 122 q 378 83 311 83 l 529 83 q 723 47 660 83 q 786 -75 786 11 q 740 -192 786 -139 q 610 -278 694 -246 q 411 -311 525 -311 m 404 290 q 483 310 447 290 q 539 365 518 329 q 560 450 560 401 q 539 533 560 497 q 483 588 518 568 q 404 608 447 608 q 326 588 361 608 q 270 533 292 568 q 249 450 249 497 q 270 365 249 401 q 326 310 292 329 q 404 290 361 290 m 419 -228 q 555 -208 497 -228 q 643 -158 613 -189 q 674 -93 674 -128 q 635 -28 674 -44 q 519 -11 597 -11 l 388 -11 q 333 -8 358 -11 q 285 0 307 -6 q 217 -55 236 -26 q 199 -112 199 -83 q 255 -197 199 -165 q 419 -228 311 -228 m 481 799 q 354 833 390 808 q 318 906 318 858 q 378 997 318 967 q 547 1033 438 1028 l 558 976 q 439 955 471 971 q 407 910 407 939 q 432 869 407 883 q 506 851 457 856 l 481 799 z "},"ǧ":{"ha":833,"x_min":100,"x_max":786,"o":"m 411 -311 q 243 -289 313 -311 q 137 -225 174 -267 q 100 -124 100 -183 q 128 -44 100 -83 q 211 26 157 -6 l 211 32 q 163 74 183 47 q 142 143 142 100 q 163 209 142 175 q 222 269 183 243 l 222 275 q 163 345 188 301 q 139 450 139 389 q 176 578 139 524 q 273 662 213 632 q 404 692 333 692 q 504 675 461 692 l 783 675 l 783 582 l 608 582 q 648 522 631 558 q 665 446 665 486 q 631 322 665 374 q 537 242 596 269 q 404 214 478 214 q 348 220 378 214 q 290 239 318 226 q 251 204 265 224 q 238 161 238 185 q 274 103 238 122 q 378 83 311 83 l 529 83 q 723 47 660 83 q 786 -75 786 11 q 740 -192 786 -139 q 610 -278 694 -246 q 411 -311 525 -311 m 404 290 q 483 310 447 290 q 539 365 518 329 q 560 450 560 401 q 539 533 560 497 q 483 588 518 568 q 404 608 447 608 q 326 588 361 608 q 270 533 292 568 q 249 450 249 497 q 270 365 249 401 q 326 310 292 329 q 404 290 361 290 m 419 -228 q 555 -208 497 -228 q 643 -158 613 -189 q 674 -93 674 -128 q 635 -28 674 -44 q 519 -11 597 -11 l 388 -11 q 333 -8 358 -11 q 285 0 307 -6 q 217 -55 236 -26 q 199 -112 199 -83 q 255 -197 199 -165 q 419 -228 311 -228 m 368 797 l 211 992 l 260 1036 l 424 879 l 429 879 l 593 1036 l 642 992 l 485 797 l 368 797 z "},"ḡ":{"ha":833,"x_min":100,"x_max":786,"o":"m 411 -311 q 243 -289 313 -311 q 137 -225 174 -267 q 100 -124 100 -183 q 128 -44 100 -83 q 211 26 157 -6 l 211 32 q 163 74 183 47 q 142 143 142 100 q 163 209 142 175 q 222 269 183 243 l 222 275 q 163 345 188 301 q 139 450 139 389 q 176 578 139 524 q 273 662 213 632 q 404 692 333 692 q 504 675 461 692 l 783 675 l 783 582 l 608 582 q 648 522 631 558 q 665 446 665 486 q 631 322 665 374 q 537 242 596 269 q 404 214 478 214 q 348 220 378 214 q 290 239 318 226 q 251 204 265 224 q 238 161 238 185 q 274 103 238 122 q 378 83 311 83 l 529 83 q 723 47 660 83 q 786 -75 786 11 q 740 -192 786 -139 q 610 -278 694 -246 q 411 -311 525 -311 m 404 290 q 483 310 447 290 q 539 365 518 329 q 560 450 560 401 q 539 533 560 497 q 483 588 518 568 q 404 608 447 608 q 326 588 361 608 q 270 533 292 568 q 249 450 249 497 q 270 365 249 401 q 326 310 292 329 q 404 290 361 290 m 419 -228 q 555 -208 497 -228 q 643 -158 613 -189 q 674 -93 674 -128 q 635 -28 674 -44 q 519 -11 597 -11 l 388 -11 q 333 -8 358 -11 q 285 0 307 -6 q 217 -55 236 -26 q 199 -112 199 -83 q 255 -197 199 -165 q 419 -228 311 -228 m 242 835 l 242 914 l 611 914 l 611 835 l 242 835 z "},"ĥ":{"ha":833,"x_min":-24,"x_max":726,"o":"m 129 0 l 129 989 l 244 989 l 244 719 l 238 560 l 242 560 q 354 654 293 617 q 493 692 415 692 q 669 622 613 692 q 726 419 726 553 l 726 0 l 611 0 l 611 404 q 575 546 611 500 q 457 592 539 592 q 350 561 397 592 q 244 471 303 531 l 244 0 l 129 0 m 26 1054 l -24 1090 l 121 1247 l 243 1247 l 388 1090 l 338 1054 l 185 1182 l 179 1182 l 26 1054 z "},"ḧ":{"ha":833,"x_min":-15,"x_max":726,"o":"m 129 0 l 129 989 l 244 989 l 244 719 l 238 560 l 242 560 q 354 654 293 617 q 493 692 415 692 q 669 622 613 692 q 726 419 726 553 l 726 0 l 611 0 l 611 404 q 575 546 611 500 q 457 592 539 592 q 350 561 397 592 q 244 471 303 531 l 244 0 l 129 0 m 54 1076 q 4 1097 24 1076 q -15 1147 -15 1117 q 4 1198 -15 1178 q 54 1218 24 1218 q 105 1198 85 1218 q 125 1147 125 1178 q 105 1097 125 1117 q 54 1076 85 1076 m 310 1076 q 259 1097 279 1076 q 239 1147 239 1117 q 259 1198 239 1178 q 310 1218 279 1218 q 360 1198 340 1218 q 379 1147 379 1178 q 360 1097 379 1117 q 310 1076 340 1076 z "},"ḥ":{"ha":833,"x_min":129,"x_max":726,"o":"m 129 0 l 129 989 l 244 989 l 244 719 l 238 560 l 242 560 q 354 654 293 617 q 493 692 415 692 q 669 622 613 692 q 726 419 726 553 l 726 0 l 611 0 l 611 404 q 575 546 611 500 q 457 592 539 592 q 350 561 397 592 q 244 471 303 531 l 244 0 l 129 0 z "},"ẖ":{"ha":833,"x_min":129,"x_max":726,"o":"m 129 0 l 129 989 l 244 989 l 244 719 l 238 560 l 242 560 q 354 654 293 617 q 493 692 415 692 q 669 622 613 692 q 726 419 726 553 l 726 0 l 611 0 l 611 404 q 575 546 611 500 q 457 592 539 592 q 350 561 397 592 q 244 471 303 531 l 244 0 l 129 0 z "},"ḩ":{"ha":833,"x_min":54,"x_max":726,"o":"m 129 0 l 129 989 l 244 989 l 244 719 l 238 560 l 242 560 q 354 654 293 617 q 493 692 415 692 q 669 622 613 692 q 726 419 726 553 l 726 0 l 611 0 l 611 404 q 575 546 611 500 q 457 592 539 592 q 350 561 397 592 q 244 471 303 531 l 244 0 l 129 0 m 65 -314 l 54 -258 q 174 -236 142 -253 q 206 -189 206 -219 q 182 -146 206 -161 q 99 -122 158 -131 l 154 11 l 229 11 l 193 -89 q 268 -122 242 -100 q 294 -187 294 -144 q 235 -278 294 -247 q 65 -314 175 -308 z "},"ḫ":{"ha":833,"x_min":129,"x_max":726,"o":"m 129 0 l 129 989 l 244 989 l 244 719 l 238 560 l 242 560 q 354 654 293 617 q 493 692 415 692 q 669 622 613 692 q 726 419 726 553 l 726 0 l 611 0 l 611 404 q 575 546 611 500 q 457 592 539 592 q 350 561 397 592 q 244 471 303 531 l 244 0 l 129 0 z "},"ħ":{"ha":833,"x_min":28,"x_max":726,"o":"m 129 0 l 129 989 l 243 989 l 243 692 l 236 532 l 240 532 q 353 626 292 589 q 493 664 414 664 q 669 594 613 664 q 726 392 726 525 l 726 0 l 613 0 l 613 376 q 576 519 613 472 q 457 565 540 565 q 350 535 397 565 q 243 443 303 504 l 243 0 l 129 0 m 28 781 l 28 861 l 136 869 l 539 869 l 539 781 l 28 781 z "},"ì":{"ha":833,"x_min":125,"x_max":572,"o":"m 438 0 l 438 582 l 125 582 l 125 675 l 553 675 l 553 0 l 438 0 m 513 789 l 294 1001 l 375 1079 l 572 846 l 513 789 z "},"í":{"ha":833,"x_min":125,"x_max":672,"o":"m 438 0 l 438 582 l 125 582 l 125 675 l 553 675 l 553 0 l 438 0 m 454 789 l 394 846 l 592 1079 l 672 1001 l 454 789 z "},"î":{"ha":833,"x_min":125,"x_max":699,"o":"m 438 0 l 438 582 l 125 582 l 125 675 l 553 675 l 553 0 l 438 0 m 317 789 l 268 833 l 425 1028 l 542 1028 l 699 833 l 650 789 l 486 946 l 481 946 l 317 789 z "},"ĩ":{"ha":833,"x_min":125,"x_max":724,"o":"m 438 0 l 438 582 l 125 582 l 125 675 l 553 675 l 553 0 l 438 0 m 583 801 q 519 819 546 801 q 472 860 493 836 q 429 901 450 883 q 385 918 408 918 q 338 888 353 918 q 319 808 322 857 l 243 813 q 260 909 244 867 q 306 976 275 951 q 383 1001 336 1001 q 447 984 421 1001 q 496 943 474 967 q 538 902 518 919 q 583 885 558 885 q 629 916 614 885 q 647 994 644 947 l 724 989 q 707 893 722 936 q 661 826 692 850 q 583 801 631 801 z "},"ï":{"ha":833,"x_min":125,"x_max":694,"o":"m 438 0 l 438 582 l 125 582 l 125 675 l 553 675 l 553 0 l 438 0 m 349 817 q 293 839 314 817 q 272 894 272 861 q 293 950 272 928 q 349 972 314 972 q 403 950 382 972 q 425 894 425 928 q 403 839 425 861 q 349 817 382 817 m 618 817 q 563 839 585 817 q 542 894 542 861 q 563 950 542 928 q 618 972 585 972 q 674 950 653 972 q 694 894 694 928 q 674 839 694 861 q 618 817 653 817 z "},"ī":{"ha":833,"x_min":125,"x_max":668,"o":"m 438 0 l 438 582 l 125 582 l 125 675 l 553 675 l 553 0 l 438 0 m 299 835 l 299 914 l 668 914 l 668 835 l 299 835 z "},"ǐ":{"ha":833,"x_min":125,"x_max":699,"o":"m 438 0 l 438 582 l 125 582 l 125 675 l 553 675 l 553 0 l 438 0 m 425 797 l 268 992 l 317 1036 l 481 879 l 486 879 l 650 1036 l 699 992 l 542 797 l 425 797 z "},"į":{"ha":833,"x_min":125,"x_max":619,"o":"m 490 -312 q 388 -281 429 -312 q 346 -183 346 -249 q 381 -79 346 -125 q 465 0 415 -33 l 438 0 l 438 582 l 125 582 l 125 675 l 553 675 l 553 -7 q 462 -78 492 -37 q 432 -161 432 -119 q 457 -219 432 -200 q 514 -237 482 -237 q 554 -228 536 -237 q 586 -208 572 -219 l 619 -262 q 562 -299 594 -286 q 490 -312 529 -312 m 483 817 q 418 841 444 817 q 392 906 392 865 q 418 969 392 944 q 483 994 444 994 q 549 969 522 994 q 575 906 575 944 q 549 841 575 865 q 483 817 522 817 z "},"ỉ":{"ha":833,"x_min":125,"x_max":594,"o":"m 438 0 l 438 582 l 125 582 l 125 675 l 553 675 l 553 0 l 438 0 m 439 794 l 426 850 q 482 874 460 860 q 504 915 504 889 q 476 962 504 946 q 389 981 447 978 l 396 1057 q 503 1040 458 1056 q 571 995 547 1024 q 594 925 594 967 q 572 858 594 885 q 515 817 550 832 q 439 794 479 803 z "},"ị":{"ha":833,"x_min":125,"x_max":575,"o":"m 438 0 l 438 582 l 125 582 l 125 675 l 553 675 l 553 0 l 438 0 m 483 817 q 418 841 444 817 q 392 906 392 865 q 418 969 392 944 q 483 994 444 994 q 549 969 522 994 q 575 906 575 944 q 549 841 575 865 q 483 817 522 817 z "},"ĭ":{"ha":833,"x_min":125,"x_max":700,"o":"m 438 0 l 438 582 l 125 582 l 125 675 l 553 675 l 553 0 l 438 0 m 483 793 q 363 824 408 793 q 293 903 317 856 q 267 1003 269 951 l 339 1014 q 361 945 344 978 q 408 892 378 913 q 483 871 439 871 q 558 892 528 871 q 606 945 589 913 q 628 1014 622 978 l 700 1003 q 674 903 697 951 q 604 824 650 856 q 483 793 558 793 z "},"ı":{"ha":833,"x_min":125,"x_max":553,"o":"m 438 0 l 438 582 l 125 582 l 125 675 l 553 675 l 553 0 l 438 0 z "},"ĵ":{"ha":833,"x_min":76,"x_max":699,"o":"m 269 -301 q 167 -288 217 -301 q 76 -256 117 -275 l 114 -169 q 190 -197 150 -187 q 268 -207 229 -207 q 372 -185 335 -207 q 423 -123 408 -164 q 438 -25 438 -82 l 438 582 l 125 582 l 125 675 l 553 675 l 553 -17 q 539 -131 553 -79 q 493 -222 525 -183 q 406 -281 461 -260 q 269 -301 351 -301 m 317 789 l 268 833 l 425 1028 l 542 1028 l 699 833 l 650 789 l 486 946 l 481 946 l 317 789 z "},"ķ":{"ha":833,"x_min":146,"x_max":797,"o":"m 146 0 l 146 989 l 261 989 l 261 321 l 267 321 l 629 675 l 761 675 l 261 183 l 261 0 l 146 0 m 669 0 l 406 358 l 475 433 l 797 0 l 669 0 m 344 -314 l 333 -258 q 453 -236 421 -253 q 485 -192 485 -219 q 460 -151 485 -164 q 386 -133 435 -137 l 411 -81 q 538 -116 501 -92 q 574 -187 574 -140 q 514 -278 574 -247 q 344 -314 454 -308 z "},"ḳ":{"ha":833,"x_min":146,"x_max":797,"o":"m 146 0 l 146 989 l 261 989 l 261 321 l 267 321 l 629 675 l 761 675 l 261 183 l 261 0 l 146 0 m 669 0 l 406 358 l 475 433 l 797 0 l 669 0 z "},"ḵ":{"ha":833,"x_min":146,"x_max":797,"o":"m 146 0 l 146 989 l 261 989 l 261 321 l 267 321 l 629 675 l 761 675 l 261 183 l 261 0 l 146 0 m 669 0 l 406 358 l 475 433 l 797 0 l 669 0 z "},"ĸ":{"ha":833,"x_min":146,"x_max":797,"o":"m 146 0 l 146 675 l 261 675 l 261 321 l 265 322 l 629 675 l 761 675 l 493 407 l 797 0 l 669 0 l 421 332 l 261 181 l 261 0 l 146 0 z "},"ĺ":{"ha":833,"x_min":103,"x_max":746,"o":"m 565 -17 q 399 45 457 -17 q 342 226 342 107 l 342 896 l 103 896 l 103 989 l 457 989 l 457 218 q 494 112 457 144 q 590 79 531 79 q 651 87 619 79 q 717 110 682 94 l 746 24 q 660 -6 699 4 q 565 -17 621 -17 m 356 1051 l 304 1110 l 501 1289 l 567 1211 l 356 1051 z "},"ľ":{"ha":833,"x_min":103,"x_max":746,"o":"m 565 -17 q 399 45 457 -17 q 342 226 342 107 l 342 896 l 103 896 l 103 989 l 457 989 l 457 218 q 494 112 457 144 q 590 79 531 79 q 651 87 619 79 q 717 110 682 94 l 746 24 q 660 -6 699 4 q 565 -17 621 -17 m 561 761 l 556 1133 l 661 1133 l 660 1021 l 640 761 l 561 761 z "},"ļ":{"ha":833,"x_min":103,"x_max":746,"o":"m 565 -17 q 399 45 457 -17 q 342 226 342 107 l 342 896 l 103 896 l 103 989 l 457 989 l 457 218 q 494 112 457 144 q 590 79 531 79 q 651 87 619 79 q 717 110 682 94 l 746 24 q 660 -6 699 4 q 565 -17 621 -17 m 414 -314 l 403 -258 q 522 -236 490 -253 q 554 -192 554 -219 q 529 -151 554 -164 q 456 -133 504 -137 l 481 -81 q 607 -116 571 -92 q 643 -187 643 -140 q 583 -278 643 -247 q 414 -314 524 -308 z "},"ḷ":{"ha":833,"x_min":103,"x_max":746,"o":"m 565 -17 q 399 45 457 -17 q 342 226 342 107 l 342 896 l 103 896 l 103 989 l 457 989 l 457 218 q 494 112 457 144 q 590 79 531 79 q 651 87 619 79 q 717 110 682 94 l 746 24 q 660 -6 699 4 q 565 -17 621 -17 z "},"ḹ":{"ha":833,"x_min":103,"x_max":746,"o":"m 565 -17 q 399 45 457 -17 q 342 226 342 107 l 342 896 l 103 896 l 103 989 l 457 989 l 457 218 q 494 112 457 144 q 590 79 531 79 q 651 87 619 79 q 717 110 682 94 l 746 24 q 660 -6 699 4 q 565 -17 621 -17 m 210 1104 l 210 1185 l 582 1185 l 582 1104 l 210 1104 z "},"ḻ":{"ha":833,"x_min":103,"x_max":746,"o":"m 565 -17 q 399 45 457 -17 q 342 226 342 107 l 342 896 l 103 896 l 103 989 l 457 989 l 457 218 q 494 112 457 144 q 590 79 531 79 q 651 87 619 79 q 717 110 682 94 l 746 24 q 660 -6 699 4 q 565 -17 621 -17 z "},"ł":{"ha":833,"x_min":103,"x_max":746,"o":"m 193 375 l 153 451 l 349 565 l 439 606 l 663 732 l 703 657 l 439 507 l 349 467 l 193 375 m 565 -17 q 399 45 457 -17 q 342 226 342 107 l 342 896 l 103 896 l 103 989 l 457 989 l 457 218 q 494 112 457 144 q 590 79 531 79 q 651 87 619 79 q 717 110 682 94 l 746 24 q 660 -6 699 4 q 565 -17 621 -17 z "},"ŀ":{"ha":833,"x_min":49,"x_max":882,"o":"m 511 -17 q 345 45 403 -17 q 288 226 288 107 l 288 896 l 49 896 l 49 989 l 403 989 l 403 218 q 440 112 403 144 q 536 79 476 79 q 597 87 565 79 q 663 110 628 94 l 692 24 q 606 -6 644 4 q 511 -17 567 -17 m 790 396 q 725 420 751 396 q 699 485 699 444 q 725 549 699 524 q 790 574 751 574 q 856 549 829 574 q 882 485 882 524 q 856 420 882 444 q 790 396 829 396 z "},"ḿ":{"ha":833,"x_min":81,"x_max":775,"o":"m 81 0 l 81 675 l 172 675 l 182 586 l 185 586 q 246 663 211 633 q 339 692 281 692 q 421 663 389 692 q 467 575 453 633 q 531 660 496 629 q 625 692 567 692 q 735 638 696 692 q 775 483 775 585 l 775 0 l 661 0 l 661 475 q 589 593 661 593 q 531 567 553 593 q 481 489 508 542 l 481 0 l 375 0 l 375 475 q 359 563 375 533 q 306 593 343 593 q 244 567 269 593 q 194 489 219 542 l 194 0 l 81 0 m 408 789 l 349 846 l 546 1079 l 626 1001 l 408 789 z "},"ṁ":{"ha":833,"x_min":81,"x_max":775,"o":"m 81 0 l 81 675 l 172 675 l 182 586 l 185 586 q 246 663 211 633 q 339 692 281 692 q 421 663 389 692 q 467 575 453 633 q 531 660 496 629 q 625 692 567 692 q 735 638 696 692 q 775 483 775 585 l 775 0 l 661 0 l 661 475 q 589 593 661 593 q 531 567 553 593 q 481 489 508 542 l 481 0 l 375 0 l 375 475 q 359 563 375 533 q 306 593 343 593 q 244 567 269 593 q 194 489 219 542 l 194 0 l 81 0 m 438 817 q 372 841 399 817 q 346 906 346 865 q 372 969 346 944 q 438 994 399 994 q 503 969 476 994 q 529 906 529 944 q 503 841 529 865 q 438 817 476 817 z "},"ṃ":{"ha":833,"x_min":81,"x_max":775,"o":"m 81 0 l 81 675 l 172 675 l 182 586 l 185 586 q 246 663 211 633 q 339 692 281 692 q 421 663 389 692 q 467 575 453 633 q 531 660 496 629 q 625 692 567 692 q 735 638 696 692 q 775 483 775 585 l 775 0 l 661 0 l 661 475 q 589 593 661 593 q 531 567 553 593 q 481 489 508 542 l 481 0 l 375 0 l 375 475 q 359 563 375 533 q 306 593 343 593 q 244 567 269 593 q 194 489 219 542 l 194 0 l 81 0 z "},"ń":{"ha":833,"x_min":129,"x_max":726,"o":"m 129 0 l 129 675 l 224 675 l 233 561 l 239 561 q 353 654 292 617 q 493 692 414 692 q 669 622 613 692 q 726 419 726 553 l 726 0 l 611 0 l 611 404 q 575 546 611 500 q 457 592 539 592 q 350 561 397 592 q 244 471 303 531 l 244 0 l 129 0 m 413 789 l 353 846 l 550 1079 l 631 1001 l 413 789 z "},"ǹ":{"ha":833,"x_min":129,"x_max":726,"o":"m 129 0 l 129 675 l 224 675 l 233 561 l 239 561 q 353 654 292 617 q 493 692 414 692 q 669 622 613 692 q 726 419 726 553 l 726 0 l 611 0 l 611 404 q 575 546 611 500 q 457 592 539 592 q 350 561 397 592 q 244 471 303 531 l 244 0 l 129 0 m 471 789 l 253 1001 l 333 1079 l 531 846 l 471 789 z "},"ň":{"ha":833,"x_min":129,"x_max":726,"o":"m 129 0 l 129 675 l 224 675 l 233 561 l 239 561 q 353 654 292 617 q 493 692 414 692 q 669 622 613 692 q 726 419 726 553 l 726 0 l 611 0 l 611 404 q 575 546 611 500 q 457 592 539 592 q 350 561 397 592 q 244 471 303 531 l 244 0 l 129 0 m 383 797 l 226 992 l 275 1036 l 439 879 l 444 879 l 608 1036 l 657 992 l 500 797 l 383 797 z "},"ñ":{"ha":833,"x_min":129,"x_max":726,"o":"m 129 0 l 129 675 l 224 675 l 233 561 l 239 561 q 353 654 292 617 q 493 692 414 692 q 669 622 613 692 q 726 419 726 553 l 726 0 l 611 0 l 611 404 q 575 546 611 500 q 457 592 539 592 q 350 561 397 592 q 244 471 303 531 l 244 0 l 129 0 m 542 801 q 478 819 504 801 q 430 860 451 836 q 388 901 408 883 q 343 918 367 918 q 296 888 311 918 q 278 808 281 857 l 201 813 q 218 909 203 867 q 264 976 233 951 q 342 1001 294 1001 q 406 984 379 1001 q 454 943 432 967 q 497 902 476 919 q 542 885 517 885 q 588 916 572 885 q 606 994 603 947 l 682 989 q 665 893 681 936 q 619 826 650 850 q 542 801 589 801 z "},"ņ":{"ha":833,"x_min":129,"x_max":726,"o":"m 129 0 l 129 675 l 224 675 l 233 561 l 239 561 q 353 654 292 617 q 493 692 414 692 q 669 622 613 692 q 726 419 726 553 l 726 0 l 611 0 l 611 404 q 575 546 611 500 q 457 592 539 592 q 350 561 397 592 q 244 471 303 531 l 244 0 l 129 0 m 314 -314 l 303 -258 q 422 -236 390 -253 q 454 -192 454 -219 q 429 -151 454 -164 q 356 -133 404 -137 l 381 -81 q 507 -116 471 -92 q 543 -187 543 -140 q 483 -278 543 -247 q 314 -314 424 -308 z "},"ṅ":{"ha":833,"x_min":129,"x_max":726,"o":"m 129 0 l 129 675 l 224 675 l 233 561 l 239 561 q 353 654 292 617 q 493 692 414 692 q 669 622 613 692 q 726 419 726 553 l 726 0 l 611 0 l 611 404 q 575 546 611 500 q 457 592 539 592 q 350 561 397 592 q 244 471 303 531 l 244 0 l 129 0 m 442 817 q 376 841 403 817 q 350 906 350 865 q 376 969 350 944 q 442 994 403 994 q 507 969 481 994 q 533 906 533 944 q 507 841 533 865 q 442 817 481 817 z "},"ṇ":{"ha":833,"x_min":129,"x_max":726,"o":"m 129 0 l 129 675 l 224 675 l 233 561 l 239 561 q 353 654 292 617 q 493 692 414 692 q 669 622 613 692 q 726 419 726 553 l 726 0 l 611 0 l 611 404 q 575 546 611 500 q 457 592 539 592 q 350 561 397 592 q 244 471 303 531 l 244 0 l 129 0 z "},"ṉ":{"ha":833,"x_min":129,"x_max":726,"o":"m 129 0 l 129 675 l 224 675 l 233 561 l 239 561 q 353 654 292 617 q 493 692 414 692 q 669 622 613 692 q 726 419 726 553 l 726 0 l 611 0 l 611 404 q 575 546 611 500 q 457 592 539 592 q 350 561 397 592 q 244 471 303 531 l 244 0 l 129 0 z "},"ŉ":{"ha":833,"x_min":-31,"x_max":831,"o":"m 272 0 l 272 675 l 368 675 l 378 569 l 383 569 q 488 656 432 621 q 617 692 543 692 q 778 624 726 692 q 831 428 831 557 l 831 0 l 715 0 l 715 413 q 683 548 715 504 q 579 592 651 592 q 483 564 525 592 q 389 481 442 536 l 389 0 l 272 0 m 8 485 l -31 551 q 77 652 39 592 q 115 792 115 713 l 88 900 l 164 807 q 123 776 146 789 q 78 763 100 763 q 6 791 33 763 q -21 863 -21 819 q 8 941 -21 911 q 82 971 38 971 q 172 926 138 971 q 207 801 207 882 q 155 615 207 697 q 8 485 103 533 z "},"ò":{"ha":833,"x_min":83,"x_max":750,"o":"m 417 -17 q 252 25 328 -17 q 130 146 176 67 q 83 336 83 225 q 130 529 83 450 q 252 650 176 608 q 417 692 328 692 q 581 650 506 692 q 703 529 657 608 q 750 336 750 450 q 703 146 750 225 q 581 25 657 67 q 417 -17 506 -17 m 417 79 q 529 111 481 79 q 605 201 578 143 q 632 336 632 258 q 605 472 632 414 q 529 563 578 531 q 417 596 481 596 q 304 563 353 596 q 228 472 256 531 q 201 336 201 414 q 228 201 201 258 q 304 111 256 143 q 417 79 353 79 m 446 789 l 228 1001 l 308 1079 l 506 846 l 446 789 z "},"ó":{"ha":833,"x_min":83,"x_max":750,"o":"m 417 -17 q 252 25 328 -17 q 130 146 176 67 q 83 336 83 225 q 130 529 83 450 q 252 650 176 608 q 417 692 328 692 q 581 650 506 692 q 703 529 657 608 q 750 336 750 450 q 703 146 750 225 q 581 25 657 67 q 417 -17 506 -17 m 417 79 q 529 111 481 79 q 605 201 578 143 q 632 336 632 258 q 605 472 632 414 q 529 563 578 531 q 417 596 481 596 q 304 563 353 596 q 228 472 256 531 q 201 336 201 414 q 228 201 201 258 q 304 111 256 143 q 417 79 353 79 m 388 789 l 328 846 l 525 1079 l 606 1001 l 388 789 z "},"ô":{"ha":833,"x_min":83,"x_max":750,"o":"m 417 -17 q 252 25 328 -17 q 130 146 176 67 q 83 336 83 225 q 130 529 83 450 q 252 650 176 608 q 417 692 328 692 q 581 650 506 692 q 703 529 657 608 q 750 336 750 450 q 703 146 750 225 q 581 25 657 67 q 417 -17 506 -17 m 417 79 q 529 111 481 79 q 605 201 578 143 q 632 336 632 258 q 605 472 632 414 q 529 563 578 531 q 417 596 481 596 q 304 563 353 596 q 228 472 256 531 q 201 336 201 414 q 228 201 201 258 q 304 111 256 143 q 417 79 353 79 m 250 789 l 201 833 l 358 1028 l 475 1028 l 632 833 l 583 789 l 419 946 l 414 946 l 250 789 z "},"õ":{"ha":833,"x_min":83,"x_max":750,"o":"m 417 -17 q 252 25 328 -17 q 130 146 176 67 q 83 336 83 225 q 130 529 83 450 q 252 650 176 608 q 417 692 328 692 q 581 650 506 692 q 703 529 657 608 q 750 336 750 450 q 703 146 750 225 q 581 25 657 67 q 417 -17 506 -17 m 417 79 q 529 111 481 79 q 605 201 578 143 q 632 336 632 258 q 605 472 632 414 q 529 563 578 531 q 417 596 481 596 q 304 563 353 596 q 228 472 256 531 q 201 336 201 414 q 228 201 201 258 q 304 111 256 143 q 417 79 353 79 m 517 801 q 453 819 479 801 q 405 860 426 836 q 363 901 383 883 q 318 918 342 918 q 271 888 286 918 q 253 808 256 857 l 176 813 q 193 909 178 867 q 239 976 208 951 q 317 1001 269 1001 q 381 984 354 1001 q 429 943 407 967 q 472 902 451 919 q 517 885 492 885 q 563 916 547 885 q 581 994 578 947 l 657 989 q 640 893 656 936 q 594 826 625 850 q 517 801 564 801 z "},"ö":{"ha":833,"x_min":83,"x_max":750,"o":"m 417 -17 q 252 25 328 -17 q 130 146 176 67 q 83 336 83 225 q 130 529 83 450 q 252 650 176 608 q 417 692 328 692 q 581 650 506 692 q 703 529 657 608 q 750 336 750 450 q 703 146 750 225 q 581 25 657 67 q 417 -17 506 -17 m 417 79 q 529 111 481 79 q 605 201 578 143 q 632 336 632 258 q 605 472 632 414 q 529 563 578 531 q 417 596 481 596 q 304 563 353 596 q 228 472 256 531 q 201 336 201 414 q 228 201 201 258 q 304 111 256 143 q 417 79 353 79 m 282 817 q 226 839 247 817 q 206 894 206 861 q 226 950 206 928 q 282 972 247 972 q 337 950 315 972 q 358 894 358 928 q 337 839 358 861 q 282 817 315 817 m 551 817 q 497 839 518 817 q 475 894 475 861 q 497 950 475 928 q 551 972 518 972 q 607 950 586 972 q 628 894 628 928 q 607 839 628 861 q 551 817 586 817 z "},"ō":{"ha":833,"x_min":83,"x_max":750,"o":"m 417 -17 q 252 25 328 -17 q 130 146 176 67 q 83 336 83 225 q 130 529 83 450 q 252 650 176 608 q 417 692 328 692 q 581 650 506 692 q 703 529 657 608 q 750 336 750 450 q 703 146 750 225 q 581 25 657 67 q 417 -17 506 -17 m 417 79 q 529 111 481 79 q 605 201 578 143 q 632 336 632 258 q 605 472 632 414 q 529 563 578 531 q 417 596 481 596 q 304 563 353 596 q 228 472 256 531 q 201 336 201 414 q 228 201 201 258 q 304 111 256 143 q 417 79 353 79 m 232 835 l 232 914 l 601 914 l 601 835 l 232 835 z "},"ő":{"ha":833,"x_min":83,"x_max":750,"o":"m 417 -17 q 252 25 328 -17 q 130 146 176 67 q 83 336 83 225 q 130 529 83 450 q 252 650 176 608 q 417 692 328 692 q 581 650 506 692 q 703 529 657 608 q 750 336 750 450 q 703 146 750 225 q 581 25 657 67 q 417 -17 506 -17 m 417 79 q 529 111 481 79 q 605 201 578 143 q 632 336 632 258 q 605 472 632 414 q 529 563 578 531 q 417 596 481 596 q 304 563 353 596 q 228 472 256 531 q 201 336 201 414 q 228 201 201 258 q 304 111 256 143 q 417 79 353 79 m 338 789 l 274 818 l 394 1058 l 475 1018 l 338 789 m 547 789 l 483 818 l 604 1058 l 686 1018 l 547 789 z "},"ǒ":{"ha":833,"x_min":83,"x_max":750,"o":"m 417 -17 q 252 25 328 -17 q 130 146 176 67 q 83 336 83 225 q 130 529 83 450 q 252 650 176 608 q 417 692 328 692 q 581 650 506 692 q 703 529 657 608 q 750 336 750 450 q 703 146 750 225 q 581 25 657 67 q 417 -17 506 -17 m 417 79 q 529 111 481 79 q 605 201 578 143 q 632 336 632 258 q 605 472 632 414 q 529 563 578 531 q 417 596 481 596 q 304 563 353 596 q 228 472 256 531 q 201 336 201 414 q 228 201 201 258 q 304 111 256 143 q 417 79 353 79 m 358 797 l 201 992 l 250 1036 l 414 879 l 419 879 l 583 1036 l 632 992 l 475 797 l 358 797 z "},"ǫ":{"ha":833,"x_min":83,"x_max":750,"o":"m 450 -312 q 349 -281 389 -312 q 310 -183 310 -249 q 338 -87 310 -129 q 403 -15 367 -44 q 239 33 311 -11 q 125 154 167 76 q 83 336 83 232 q 130 529 83 450 q 252 650 176 608 q 417 692 328 692 q 581 650 506 692 q 703 529 657 608 q 750 336 750 450 q 720 178 750 242 q 637 71 690 114 q 513 -4 583 28 q 425 -74 456 -29 q 394 -161 394 -118 q 419 -219 394 -200 q 474 -237 444 -237 q 518 -228 500 -237 q 549 -208 536 -219 l 582 -262 q 526 -299 558 -285 q 450 -312 493 -312 m 417 78 q 529 110 481 78 q 605 200 578 142 q 632 336 632 258 q 605 472 632 414 q 529 563 578 531 q 417 596 481 596 q 304 563 353 596 q 228 472 256 531 q 201 336 201 414 q 228 200 201 258 q 304 110 256 142 q 417 78 353 78 z "},"ọ":{"ha":833,"x_min":83,"x_max":750,"o":"m 417 -17 q 252 25 328 -17 q 130 146 176 67 q 83 336 83 225 q 130 529 83 450 q 252 650 176 608 q 417 692 328 692 q 581 650 506 692 q 703 529 657 608 q 750 336 750 450 q 703 146 750 225 q 581 25 657 67 q 417 -17 506 -17 m 417 79 q 529 111 481 79 q 605 201 578 143 q 632 336 632 258 q 605 472 632 414 q 529 563 578 531 q 417 596 481 596 q 304 563 353 596 q 228 472 256 531 q 201 336 201 414 q 228 201 201 258 q 304 111 256 143 q 417 79 353 79 z "},"ỏ":{"ha":833,"x_min":83,"x_max":750,"o":"m 417 -17 q 252 25 328 -17 q 130 146 176 67 q 83 336 83 225 q 130 529 83 450 q 252 650 176 608 q 417 692 328 692 q 581 650 506 692 q 703 529 657 608 q 750 336 750 450 q 703 146 750 225 q 581 25 657 67 q 417 -17 506 -17 m 417 79 q 529 111 481 79 q 605 201 578 143 q 632 336 632 258 q 605 472 632 414 q 529 563 578 531 q 417 596 481 596 q 304 563 353 596 q 228 472 256 531 q 201 336 201 414 q 228 201 201 258 q 304 111 256 143 q 417 79 353 79 m 372 794 l 360 850 q 415 874 393 860 q 438 915 438 889 q 409 962 438 946 q 322 981 381 978 l 329 1057 q 436 1040 392 1056 q 504 995 481 1024 q 528 925 528 967 q 506 858 528 885 q 448 817 483 832 q 372 794 413 803 z "},"ố":{"ha":833,"x_min":83,"x_max":750,"o":"m 417 -17 q 252 25 328 -17 q 130 146 176 67 q 83 336 83 225 q 130 529 83 450 q 252 650 176 608 q 417 692 328 692 q 581 650 506 692 q 703 529 657 608 q 750 336 750 450 q 703 146 750 225 q 581 25 657 67 q 417 -17 506 -17 m 417 79 q 529 111 481 79 q 605 201 578 143 q 632 336 632 258 q 605 472 632 414 q 529 563 578 531 q 417 596 481 596 q 304 563 353 596 q 228 472 256 531 q 201 336 201 414 q 228 201 201 258 q 304 111 256 143 q 417 79 353 79 m 271 792 l 231 839 l 369 967 l 464 967 l 603 839 l 563 792 l 419 892 l 414 892 l 271 792 m 603 885 l 554 924 l 675 1090 l 743 1043 l 603 885 z "},"ồ":{"ha":833,"x_min":72,"x_max":750,"o":"m 417 -17 q 252 25 328 -17 q 130 146 176 67 q 83 336 83 225 q 130 529 83 450 q 252 650 176 608 q 417 692 328 692 q 581 650 506 692 q 703 529 657 608 q 750 336 750 450 q 703 146 750 225 q 581 25 657 67 q 417 -17 506 -17 m 417 79 q 529 111 481 79 q 605 201 578 143 q 632 336 632 258 q 605 472 632 414 q 529 563 578 531 q 417 596 481 596 q 304 563 353 596 q 228 472 256 531 q 201 336 201 414 q 228 201 201 258 q 304 111 256 143 q 417 79 353 79 m 271 792 l 231 839 l 369 967 l 464 967 l 603 839 l 563 792 l 419 892 l 414 892 l 271 792 m 231 885 l 72 1040 l 140 1090 l 279 928 l 231 885 z "},"ổ":{"ha":833,"x_min":83,"x_max":750,"o":"m 417 -17 q 252 25 328 -17 q 130 146 176 67 q 83 336 83 225 q 130 529 83 450 q 252 650 176 608 q 417 692 328 692 q 581 650 506 692 q 703 529 657 608 q 750 336 750 450 q 703 146 750 225 q 581 25 657 67 q 417 -17 506 -17 m 417 79 q 529 111 481 79 q 605 201 578 143 q 632 336 632 258 q 605 472 632 414 q 529 563 578 531 q 417 596 481 596 q 304 563 353 596 q 228 472 256 531 q 201 336 201 414 q 228 201 201 258 q 304 111 256 143 q 417 79 353 79 m 271 792 l 231 839 l 369 967 l 464 967 l 603 839 l 563 792 l 419 892 l 414 892 l 271 792 m 578 882 l 565 931 q 608 951 592 939 q 624 985 624 963 q 602 1025 624 1011 q 528 1042 581 1039 l 539 1100 q 663 1072 619 1097 q 707 997 707 1047 q 688 938 707 961 q 640 902 669 915 q 578 882 611 889 z "},"ỗ":{"ha":833,"x_min":83,"x_max":750,"o":"m 417 -17 q 252 25 328 -17 q 130 146 176 67 q 83 336 83 225 q 130 529 83 450 q 252 650 176 608 q 417 692 328 692 q 581 650 506 692 q 703 529 657 608 q 750 336 750 450 q 703 146 750 225 q 581 25 657 67 q 417 -17 506 -17 m 417 79 q 529 111 481 79 q 605 201 578 143 q 632 336 632 258 q 605 472 632 414 q 529 563 578 531 q 417 596 481 596 q 304 563 353 596 q 228 472 256 531 q 201 336 201 414 q 228 201 201 258 q 304 111 256 143 q 417 79 353 79 m 271 792 l 231 839 l 369 961 l 464 961 l 603 839 l 563 792 l 419 888 l 414 888 l 271 792 m 507 986 q 438 1001 467 986 q 383 1030 408 1015 q 332 1044 358 1044 q 301 1031 311 1044 q 286 986 292 1017 l 226 992 q 255 1081 232 1046 q 326 1115 278 1115 q 397 1101 367 1115 q 451 1072 426 1086 q 501 1057 475 1057 q 532 1072 522 1057 q 547 1115 542 1086 l 607 1110 q 578 1022 601 1057 q 507 986 556 986 z "},"ộ":{"ha":833,"x_min":83,"x_max":750,"o":"m 417 -17 q 252 25 328 -17 q 130 146 176 67 q 83 336 83 225 q 130 529 83 450 q 252 650 176 608 q 417 692 328 692 q 581 650 506 692 q 703 529 657 608 q 750 336 750 450 q 703 146 750 225 q 581 25 657 67 q 417 -17 506 -17 m 417 79 q 529 111 481 79 q 605 201 578 143 q 632 336 632 258 q 605 472 632 414 q 529 563 578 531 q 417 596 481 596 q 304 563 353 596 q 228 472 256 531 q 201 336 201 414 q 228 201 201 258 q 304 111 256 143 q 417 79 353 79 m 250 789 l 201 833 l 358 1028 l 475 1028 l 632 833 l 583 789 l 419 946 l 414 946 l 250 789 z "},"ŏ":{"ha":833,"x_min":83,"x_max":750,"o":"m 417 -17 q 252 25 328 -17 q 130 146 176 67 q 83 336 83 225 q 130 529 83 450 q 252 650 176 608 q 417 692 328 692 q 581 650 506 692 q 703 529 657 608 q 750 336 750 450 q 703 146 750 225 q 581 25 657 67 q 417 -17 506 -17 m 417 79 q 529 111 481 79 q 605 201 578 143 q 632 336 632 258 q 605 472 632 414 q 529 563 578 531 q 417 596 481 596 q 304 563 353 596 q 228 472 256 531 q 201 336 201 414 q 228 201 201 258 q 304 111 256 143 q 417 79 353 79 m 417 793 q 296 824 342 793 q 226 903 250 856 q 200 1003 203 951 l 272 1014 q 294 945 278 978 q 342 892 311 913 q 417 871 372 871 q 492 892 461 871 q 539 945 522 913 q 561 1014 556 978 l 633 1003 q 607 903 631 951 q 538 824 583 856 q 417 793 492 793 z "},"ṓ":{"ha":833,"x_min":83,"x_max":750,"o":"m 417 -17 q 252 25 328 -17 q 130 146 176 67 q 83 336 83 225 q 130 529 83 450 q 252 650 176 608 q 417 692 328 692 q 581 650 506 692 q 703 529 657 608 q 750 336 750 450 q 703 146 750 225 q 581 25 657 67 q 417 -17 506 -17 m 417 79 q 529 111 481 79 q 605 201 578 143 q 632 336 632 258 q 605 472 632 414 q 529 563 578 531 q 417 596 481 596 q 304 563 353 596 q 228 472 256 531 q 201 336 201 414 q 228 201 201 258 q 304 111 256 143 q 417 79 353 79 m 232 835 l 232 914 l 601 914 l 601 835 l 232 835 m 369 979 l 325 1033 l 513 1171 l 567 1103 l 369 979 z "},"ơ":{"ha":833,"x_min":83,"x_max":778,"o":"m 613 614 l 546 660 q 642 704 608 671 q 676 800 676 738 q 672 842 676 821 q 656 881 667 864 l 744 922 q 768 869 758 900 q 778 808 778 839 q 754 713 778 751 q 693 649 731 674 q 613 614 656 625 m 417 -17 q 252 25 328 -17 q 130 146 176 67 q 83 336 83 225 q 130 529 83 450 q 252 650 176 608 q 417 692 328 692 q 581 650 506 692 q 703 529 657 608 q 750 336 750 450 q 703 146 750 225 q 581 25 657 67 q 417 -17 506 -17 m 417 79 q 529 111 481 79 q 605 201 578 143 q 632 336 632 258 q 605 472 632 414 q 529 563 578 531 q 417 596 481 596 q 304 563 353 596 q 228 472 256 531 q 201 336 201 414 q 228 201 201 258 q 304 111 256 143 q 417 79 353 79 z "},"ớ":{"ha":833,"x_min":83,"x_max":778,"o":"m 613 614 l 546 660 q 642 704 608 671 q 676 800 676 738 q 672 842 676 821 q 656 881 667 864 l 744 922 q 768 869 758 900 q 778 808 778 839 q 754 713 778 751 q 693 649 731 674 q 613 614 656 625 m 417 -17 q 252 25 328 -17 q 130 146 176 67 q 83 336 83 225 q 130 529 83 450 q 252 650 176 608 q 417 692 328 692 q 581 650 506 692 q 703 529 657 608 q 750 336 750 450 q 703 146 750 225 q 581 25 657 67 q 417 -17 506 -17 m 417 79 q 529 111 481 79 q 605 201 578 143 q 632 336 632 258 q 605 472 632 414 q 529 563 578 531 q 417 596 481 596 q 304 563 353 596 q 228 472 256 531 q 201 336 201 414 q 228 201 201 258 q 304 111 256 143 q 417 79 353 79 m 388 789 l 328 846 l 525 1079 l 606 1001 l 388 789 z "},"ờ":{"ha":833,"x_min":83,"x_max":778,"o":"m 613 614 l 546 660 q 642 704 608 671 q 676 800 676 738 q 672 842 676 821 q 656 881 667 864 l 744 922 q 768 869 758 900 q 778 808 778 839 q 754 713 778 751 q 693 649 731 674 q 613 614 656 625 m 417 -17 q 252 25 328 -17 q 130 146 176 67 q 83 336 83 225 q 130 529 83 450 q 252 650 176 608 q 417 692 328 692 q 581 650 506 692 q 703 529 657 608 q 750 336 750 450 q 703 146 750 225 q 581 25 657 67 q 417 -17 506 -17 m 417 79 q 529 111 481 79 q 605 201 578 143 q 632 336 632 258 q 605 472 632 414 q 529 563 578 531 q 417 596 481 596 q 304 563 353 596 q 228 472 256 531 q 201 336 201 414 q 228 201 201 258 q 304 111 256 143 q 417 79 353 79 m 446 789 l 228 1001 l 308 1079 l 506 846 l 446 789 z "},"ở":{"ha":833,"x_min":83,"x_max":778,"o":"m 613 614 l 546 660 q 642 704 608 671 q 676 800 676 738 q 672 842 676 821 q 656 881 667 864 l 744 922 q 768 869 758 900 q 778 808 778 839 q 754 713 778 751 q 693 649 731 674 q 613 614 656 625 m 417 -17 q 252 25 328 -17 q 130 146 176 67 q 83 336 83 225 q 130 529 83 450 q 252 650 176 608 q 417 692 328 692 q 581 650 506 692 q 703 529 657 608 q 750 336 750 450 q 703 146 750 225 q 581 25 657 67 q 417 -17 506 -17 m 417 79 q 529 111 481 79 q 605 201 578 143 q 632 336 632 258 q 605 472 632 414 q 529 563 578 531 q 417 596 481 596 q 304 563 353 596 q 228 472 256 531 q 201 336 201 414 q 228 201 201 258 q 304 111 256 143 q 417 79 353 79 m 372 794 l 360 850 q 415 874 393 860 q 438 915 438 889 q 409 962 438 946 q 322 981 381 978 l 329 1057 q 436 1040 392 1056 q 504 995 481 1024 q 528 925 528 967 q 506 858 528 885 q 448 817 483 832 q 372 794 413 803 z "},"ỡ":{"ha":833,"x_min":83,"x_max":778,"o":"m 613 614 l 546 660 q 642 704 608 671 q 676 800 676 738 q 672 842 676 821 q 656 881 667 864 l 744 922 q 768 869 758 900 q 778 808 778 839 q 754 713 778 751 q 693 649 731 674 q 613 614 656 625 m 417 -17 q 252 25 328 -17 q 130 146 176 67 q 83 336 83 225 q 130 529 83 450 q 252 650 176 608 q 417 692 328 692 q 581 650 506 692 q 703 529 657 608 q 750 336 750 450 q 703 146 750 225 q 581 25 657 67 q 417 -17 506 -17 m 417 79 q 529 111 481 79 q 605 201 578 143 q 632 336 632 258 q 605 472 632 414 q 529 563 578 531 q 417 596 481 596 q 304 563 353 596 q 228 472 256 531 q 201 336 201 414 q 228 201 201 258 q 304 111 256 143 q 417 79 353 79 m 489 801 q 425 819 451 801 q 377 860 399 836 q 335 901 356 883 q 290 918 314 918 q 243 888 258 918 q 225 808 228 857 l 149 813 q 165 909 150 867 q 211 976 181 951 q 289 1001 242 1001 q 353 984 326 1001 q 401 943 379 967 q 444 902 424 919 q 489 885 464 885 q 535 916 519 885 q 553 994 550 947 l 629 989 q 613 893 628 936 q 567 826 597 850 q 489 801 536 801 z "},"ợ":{"ha":833,"x_min":83,"x_max":778,"o":"m 613 614 l 546 660 q 642 704 608 671 q 676 800 676 738 q 672 842 676 821 q 656 881 667 864 l 744 922 q 768 869 758 900 q 778 808 778 839 q 754 713 778 751 q 693 649 731 674 q 613 614 656 625 m 417 -17 q 252 25 328 -17 q 130 146 176 67 q 83 336 83 225 q 130 529 83 450 q 252 650 176 608 q 417 692 328 692 q 581 650 506 692 q 703 529 657 608 q 750 336 750 450 q 703 146 750 225 q 581 25 657 67 q 417 -17 506 -17 m 417 79 q 529 111 481 79 q 605 201 578 143 q 632 336 632 258 q 605 472 632 414 q 529 563 578 531 q 417 596 481 596 q 304 563 353 596 q 228 472 256 531 q 201 336 201 414 q 228 201 201 258 q 304 111 256 143 q 417 79 353 79 z "}}}
